<?xml version="1.0" encoding="UTF-8" standalone="no"?>
<svg
   width="100px"
   height="20px"
   viewBox="0 0 100 20"
   version="1.1"
   id="svg5309"
   sodipodi:docname="bank-note.svg"
   inkscape:version="1.2 (dc2aeda, 2022-05-15)"
   xmlns:inkscape="http://www.inkscape.org/namespaces/inkscape"
   xmlns:sodipodi="http://sodipodi.sourceforge.net/DTD/sodipodi-0.dtd"
   xmlns="http://www.w3.org/2000/svg"
   xmlns:svg="http://www.w3.org/2000/svg">
  <sodipodi:namedview
     id="namedview5311"
     pagecolor="#ffffff"
     bordercolor="#666666"
     borderopacity="1.0"
     inkscape:showpageshadow="2"
     inkscape:pageopacity="0.0"
     inkscape:pagecheckerboard="0"
     inkscape:deskcolor="#d1d1d1"
     showgrid="false"
     inkscape:zoom="7.266663"
     inkscape:cx="65.160584"
     inkscape:cy="10.802758"
     inkscape:window-width="1644"
     inkscape:window-height="887"
     inkscape:window-x="918"
     inkscape:window-y="316"
     inkscape:window-maximized="0"
     inkscape:current-layer="svg5309" />
  <!-- Generator: Sketch 40 (33762) - http://www.bohemiancoding.com/sketch -->
  <title
     id="title5300">bank-note</title>
  <desc
     id="desc5302">Created with Sketch.</desc>
  <defs
     id="defs5304" />
  <path
     d="m 21.184134,20 c 0.357011,-0.130252 0.719592,-0.264123 1.088258,-0.401674 0.362252,-0.135158 1.598145,-0.598328 1.767513,-0.66165 C 33.639748,15.347555 39.646935,14 50,14 c 10.271136,0 15.36184,1.221769 24.628609,4.928477 0.955746,0.382298 1.869266,0.73905 2.750175,1.071523 h 6.225221 C 81.093136,19.269447 78.464967,18.308954 75.371391,17.071523 65.88816,13.278231 60.562197,12 50,12 c -10.625856,0 -16.855186,1.397387 -26.66049,5.063324 -0.170648,0.0638 -1.405656,0.526639 -1.76625,0.661179 C 19.098471,18.647858 16.912678,19.399457 14.849417,20 Z m 0,-20 C 13.257521,2.8919486 8.0767284,4 0,4 V 4 2 C 5.7439175,2 9.9514017,1.4256397 14.849417,0 Z m 56.19465,0 C 85.238555,2.9664329 90.50229,4 100,4 V 2 C 93.157733,2 88.614413,1.4578092 83.604005,0 Z M 0,14 C 8.4405004,14 13.718328,12.789889 22.272392,9.5983261 22.634644,9.4631679 23.870537,8.9999982 24.039905,8.9366758 33.639748,5.3475548 39.646935,4 50,4 60.271136,4 65.36184,5.2217689 74.628609,8.9284767 84.11184,12.721769 89.437803,14 100,14 V 12 C 89.728864,12 84.63816,10.778231 75.371391,7.0715233 65.88816,3.2782311 60.562197,2 50,2 39.374144,2 33.144814,3.3973866 23.33951,7.0633242 23.168862,7.1271247 21.933854,7.5899633 21.57326,7.7245028 13.223524,10.839829 8.1635099,12 0,12 Z"
     id="Combined-Shape"
     style="fill:#dfe4ea;fill-rule:evenodd;stroke:none;stroke-width:1" />
</svg>
