<?xml version="1.0" encoding="UTF-8" standalone="no"?>
<svg
   viewBox="0 0 100 18"
   version="1.1"
   id="svg134"
   sodipodi:docname="formal-invitation.svg"
   inkscape:version="1.2 (dc2aeda, 2022-05-15)"
   xmlns:inkscape="http://www.inkscape.org/namespaces/inkscape"
   xmlns:sodipodi="http://sodipodi.sourceforge.net/DTD/sodipodi-0.dtd"
   xmlns="http://www.w3.org/2000/svg"
   xmlns:svg="http://www.w3.org/2000/svg">
  <defs
     id="defs138" />
  <sodipodi:namedview
     id="namedview136"
     pagecolor="#ffffff"
     bordercolor="#666666"
     borderopacity="1.0"
     inkscape:showpageshadow="2"
     inkscape:pageopacity="0.0"
     inkscape:pagecheckerboard="0"
     inkscape:deskcolor="#d1d1d1"
     showgrid="false"
     inkscape:zoom="8.1373298"
     inkscape:cx="51.736873"
     inkscape:cy="26.85156"
     inkscape:window-width="1759"
     inkscape:window-height="1177"
     inkscape:window-x="921"
     inkscape:window-y="77"
     inkscape:window-maximized="0"
     inkscape:current-layer="svg134" />
  <path
     fill="#000000"
     d="M61.82 18c3.47-1.45 6.86-3.78 11.3-7.34C78 6.76 80.34 5.1 83.87 3.42 88.56 1.16 93.75 0 100 0v6.16C98.76 6.05 97.43 6 96 6c-9.59 0-14.23 2.23-23.13 9.34-1.28 1.03-2.39 1.9-3.4 2.66h-7.65zm-23.64 0H22.52c-1-.76-2.1-1.63-3.4-2.66C11.57 9.3 7.08 6.78 0 6.16V0c6.25 0 11.44 1.16 16.14 3.42 3.53 1.7 5.87 3.35 10.73 7.24 4.45 3.56 7.84 5.9 11.31 7.34zM61.82 0h7.66a39.57 39.57 0 0 1-7.34 4.58C57.44 6.84 52.25 8 46 8S34.56 6.84 29.86 4.58A39.57 39.57 0 0 1 22.52 0h15.66C41.65 1.44 45.21 2 50 2c4.8 0 8.35-.56 11.82-2z"
     id="path132"
     style="fill:#dfe4ea" />
</svg>
