<?xml version="1.0" encoding="UTF-8" standalone="no"?>
<svg
   width="100"
   height="100"
   viewBox="0 0 100 100"
   version="1.1"
   id="svg419"
   sodipodi:docname="graph-paper.svg"
   inkscape:version="1.2 (dc2aeda, 2022-05-15)"
   xmlns:inkscape="http://www.inkscape.org/namespaces/inkscape"
   xmlns:sodipodi="http://sodipodi.sourceforge.net/DTD/sodipodi-0.dtd"
   xmlns="http://www.w3.org/2000/svg"
   xmlns:svg="http://www.w3.org/2000/svg">
  <defs
     id="defs423" />
  <sodipodi:namedview
     id="namedview421"
     pagecolor="#ffffff"
     bordercolor="#666666"
     borderopacity="1.0"
     inkscape:showpageshadow="2"
     inkscape:pageopacity="0.0"
     inkscape:pagecheckerboard="0"
     inkscape:deskcolor="#d1d1d1"
     showgrid="false"
     inkscape:zoom="2.36"
     inkscape:cx="50"
     inkscape:cy="50"
     inkscape:window-width="1440"
     inkscape:window-height="456"
     inkscape:window-x="0"
     inkscape:window-y="25"
     inkscape:window-maximized="0"
     inkscape:current-layer="svg419" />
  <g
     fill="#000000"
     id="g415"
     style="fill-rule:evenodd;fill:#dfe4ea">
    <path
       opacity="0.5"
       d="m 96,95 h 4 v 1 h -4 v 4 h -1 v -4 h -9 v 4 h -1 v -4 h -9 v 4 h -1 v -4 h -9 v 4 h -1 v -4 h -9 v 4 h -1 v -4 h -9 v 4 h -1 v -4 h -9 v 4 h -1 v -4 h -9 v 4 h -1 v -4 h -9 v 4 H 15 V 96 H 0 V 95 H 15 V 86 H 0 V 85 H 15 V 76 H 0 V 75 H 15 V 66 H 0 V 65 H 15 V 56 H 0 V 55 H 15 V 46 H 0 V 45 H 15 V 36 H 0 V 35 H 15 V 26 H 0 V 25 H 15 V 16 H 0 V 15 H 15 V 0 h 1 v 15 h 9 V 0 h 1 v 15 h 9 V 0 h 1 v 15 h 9 V 0 h 1 v 15 h 9 V 0 h 1 v 15 h 9 V 0 h 1 v 15 h 9 V 0 h 1 v 15 h 9 V 0 h 1 v 15 h 9 V 0 h 1 v 15 h 4 v 1 h -4 v 9 h 4 v 1 h -4 v 9 h 4 v 1 h -4 v 9 h 4 v 1 h -4 v 9 h 4 v 1 h -4 v 9 h 4 v 1 h -4 v 9 h 4 v 1 h -4 v 9 h 4 v 1 h -4 z m -1,0 v -9 h -9 v 9 z m -10,0 v -9 h -9 v 9 z m -10,0 v -9 h -9 v 9 z m -10,0 v -9 h -9 v 9 z m -10,0 v -9 h -9 v 9 z m -10,0 v -9 h -9 v 9 z m -10,0 v -9 h -9 v 9 z m -10,0 v -9 h -9 v 9 z M 16,85 h 9 v -9 h -9 z m 10,0 h 9 v -9 h -9 z m 10,0 h 9 v -9 h -9 z m 10,0 h 9 v -9 h -9 z m 10,0 h 9 v -9 h -9 z m 10,0 h 9 v -9 h -9 z m 10,0 h 9 v -9 h -9 z m 10,0 h 9 v -9 h -9 z m 9,-10 v -9 h -9 v 9 z m -10,0 v -9 h -9 v 9 z m -10,0 v -9 h -9 v 9 z m -10,0 v -9 h -9 v 9 z m -10,0 v -9 h -9 v 9 z m -10,0 v -9 h -9 v 9 z m -10,0 v -9 h -9 v 9 z m -10,0 v -9 h -9 v 9 z M 16,65 h 9 v -9 h -9 z m 10,0 h 9 v -9 h -9 z m 10,0 h 9 v -9 h -9 z m 10,0 h 9 v -9 h -9 z m 10,0 h 9 v -9 h -9 z m 10,0 h 9 v -9 h -9 z m 10,0 h 9 v -9 h -9 z m 10,0 h 9 v -9 h -9 z m 9,-10 v -9 h -9 v 9 z m -10,0 v -9 h -9 v 9 z m -10,0 v -9 h -9 v 9 z m -10,0 v -9 h -9 v 9 z m -10,0 v -9 h -9 v 9 z m -10,0 v -9 h -9 v 9 z m -10,0 v -9 h -9 v 9 z m -10,0 v -9 h -9 v 9 z M 16,45 h 9 v -9 h -9 z m 10,0 h 9 v -9 h -9 z m 10,0 h 9 v -9 h -9 z m 10,0 h 9 v -9 h -9 z m 10,0 h 9 v -9 h -9 z m 10,0 h 9 v -9 h -9 z m 10,0 h 9 v -9 h -9 z m 10,0 h 9 v -9 h -9 z m 9,-10 v -9 h -9 v 9 z m -10,0 v -9 h -9 v 9 z m -10,0 v -9 h -9 v 9 z m -10,0 v -9 h -9 v 9 z m -10,0 v -9 h -9 v 9 z m -10,0 v -9 h -9 v 9 z m -10,0 v -9 h -9 v 9 z m -10,0 v -9 h -9 v 9 z M 16,25 h 9 v -9 h -9 z m 10,0 h 9 v -9 h -9 z m 10,0 h 9 v -9 h -9 z m 10,0 h 9 v -9 h -9 z m 10,0 h 9 v -9 h -9 z m 10,0 h 9 v -9 h -9 z m 10,0 h 9 v -9 h -9 z m 10,0 h 9 v -9 h -9 z"
       id="path411"
       style="fill:#dfe4ea" />
    <path
       d="M 6,5 V 0 H 5 V 5 H 0 v 1 h 5 v 94 H 6 V 6 h 94 V 5 Z"
       id="path413"
       style="fill:#dfe4ea" />
  </g>
</svg>
