<?xml version="1.0" encoding="UTF-8" standalone="no"?>
<!-- Generator: Adobe Illustrator 13.0.2, SVG Export Plug-In . SVG Version: 6.00 Build 14948)  -->

<svg
   xmlns:dc="http://purl.org/dc/elements/1.1/"
   xmlns:cc="http://creativecommons.org/ns#"
   xmlns:rdf="http://www.w3.org/1999/02/22-rdf-syntax-ns#"
   xmlns:svg="http://www.w3.org/2000/svg"
   xmlns="http://www.w3.org/2000/svg"
   xmlns:sodipodi="http://sodipodi.sourceforge.net/DTD/sodipodi-0.dtd"
   xmlns:inkscape="http://www.inkscape.org/namespaces/inkscape"
   id="Layer_1"
   enable-background="new 0 0 169.853 300.184"
   xml:space="preserve"
   viewBox="0 0 169.84194 300.12251"
   version="1.1"
   y="0px"
   x="0px"
   sodipodi:docname="acorn-logo-original.svg"
   width="169.84193"
   height="300.1225"
   inkscape:version="0.92.3 (2405546, 2018-03-11)"><defs
   id="defs119" /><sodipodi:namedview
   pagecolor="#ffffff"
   bordercolor="#666666"
   borderopacity="1"
   objecttolerance="10"
   gridtolerance="10"
   guidetolerance="10"
   inkscape:pageopacity="0"
   inkscape:pageshadow="2"
   inkscape:window-width="659"
   inkscape:window-height="480"
   id="namedview117"
   showgrid="false"
   fit-margin-top="0"
   fit-margin-left="0"
   fit-margin-right="0"
   fit-margin-bottom="0"
   inkscape:zoom="0.7861845"
   inkscape:cx="-63.903531"
   inkscape:cy="150.097"
   inkscape:window-x="194"
   inkscape:window-y="67"
   inkscape:window-maximized="0"
   inkscape:current-layer="Layer_1" />
<path
   d="m 70.644,23.934498 c -1.27,-1.939 1.463,-6.007 4.588,-6.423 -1.157,2.516 -2.075,5.266 -4.588,6.423 z"
   id="path2"
   inkscape:connector-curvature="0"
   style="clip-rule:evenodd;fill-rule:evenodd" />
<path
   d="m 75.232,19.346498 c 2.363,-2.255 4.409,0.982 5.503,2.753 0.799,-4.058 2.147,-1.016 3.67,-0.918 1.195,0.077 0.362,-1.721 0.918,-1.835 2.699,-0.557 7.837,0.764 10.092,0 1.259,4.622 -6.175,0.553 -4.589,5.505 -6.328,-1.129 -7.694,2.703 -13.762,1.835 0.235,-2.417 1.89,-3.011 -1.833,-2.751 -0.003,-1.53 0.001,-3.061 0.001,-4.589 z"
   id="path4"
   inkscape:connector-curvature="0"
   style="clip-rule:evenodd;fill-rule:evenodd" />
<path
   d="m 40.363,35.861498 c 2.957,2.722 -2.769,4.521 -2.752,7.342 -2.4,-2.166 2.513,-4.775 2.752,-7.342 z"
   id="path6"
   inkscape:connector-curvature="0"
   style="clip-rule:evenodd;fill-rule:evenodd" />
<path
   d="m 33.941,47.789498 c 2.057,1.529 -1.684,4.984 -1.835,7.34 -2.027,-1.496 1.28,-5.385 1.835,-7.34 z"
   id="path8"
   inkscape:connector-curvature="0"
   style="clip-rule:evenodd;fill-rule:evenodd" />
<path
   d="m 44.951,56.048498 c 1.066,-0.149 1.633,0.202 1.835,0.918 -1.672,13.071 -5.283,28.142 -7.34,41.289 -0.528,3.368002 2.397,9.521002 -2.753,11.010002 1.898,-18.590002 4.48,-36.500002 8.258,-53.215002 z"
   id="path10"
   inkscape:connector-curvature="0"
   style="clip-rule:evenodd;fill-rule:evenodd" />
<path
   d="m 127.53,62.472498 c 1.631,0.672 0.131,1.667 0,2.752 -1.63,-0.673 -0.13,-1.667 0,-2.752 z"
   id="path12"
   inkscape:connector-curvature="0"
   style="clip-rule:evenodd;fill-rule:evenodd" />
<path
   d="m 26.599,67.977498 c 3.42,5.205 -4.906,9.612 -1.835,14.68 -5.352,-3.834 1.596,-10.407 1.835,-14.68 z"
   id="path14"
   inkscape:connector-curvature="0"
   style="clip-rule:evenodd;fill-rule:evenodd" />
<path
   d="m 43.116,101.0135 c 1.482,-0.258 1.579,0.868 2.751,0.918 -0.723,9.108 -1.85,27.774 -0.917,38.538 -5.576,-3.151 -2.072,-10.954 -1.835,-16.518 0.263,-6.201 -0.196,-13.354 0,-20.185 10e-4,-0.93 10e-4,-1.85 10e-4,-2.76 z"
   id="path16"
   inkscape:connector-curvature="0"
   style="clip-rule:evenodd;fill-rule:evenodd" />
<path
   d="m 37.611,112.0235 c 2.759,0.04 2.664,6.513 -0.918,5.505 1.314,-2.75 -0.749,-3.13 0.918,-5.51 z"
   id="path18"
   inkscape:connector-curvature="0"
   style="clip-rule:evenodd;fill-rule:evenodd" />
<path
   d="m 24.764,117.5235 c 4.688,1.59 -0.646,7.5 0.918,11.929 -2.712,-1.34 -2.34,-9.37 -0.918,-11.93 z"
   id="path20"
   inkscape:connector-curvature="0"
   style="clip-rule:evenodd;fill-rule:evenodd" />
<path
   d="m 36.693,119.3635 c 1.068,-0.149 1.633,0.202 1.835,0.917 0.089,13.409 -2.117,21.687 1.835,33.034 -2.963,-0.821 -1.288,2.991 -2.752,3.667 -3.222,-3.024 -1.835,-10.688 -1.835,-16.514 0,-7.8 -0.623,-15.29 0.917,-21.11 z"
   id="path22"
   inkscape:connector-curvature="0"
   style="clip-rule:evenodd;fill-rule:evenodd" />
<path
   d="m 125.69,129.4535 c 1.497,-0.161 1.852,6.001 -0.915,4.586 -0.28,-2.13 0.16,-3.53 0.92,-4.59 z"
   id="path24"
   inkscape:connector-curvature="0"
   style="clip-rule:evenodd;fill-rule:evenodd" />
<path
   d="m 49.538,130.3735 c 4.042,6.121 -0.465,12.492 2.754,17.434 -2.414,-0.272 -0.723,3.561 -3.67,2.752 -1.789,-5.89 0.53,-12.14 0.916,-20.18 z"
   id="path26"
   inkscape:connector-curvature="0"
   style="clip-rule:evenodd;fill-rule:evenodd" />
<path
   d="m 23.847,132.2035 c 2.836,1.639 2.572,5.164 2.752,7.34 0.177,2.15 -1.229,5.479 -0.917,8.258 -3.055,-4.9 -2.331,-9.83 -1.835,-15.6 z"
   id="path28"
   inkscape:connector-curvature="0"
   style="clip-rule:evenodd;fill-rule:evenodd" />
<path
   d="m 125.69,135.8735 c 2.472,4.951 0.646,19.754 0,27.527 -2.59,-4.45 -2.68,-20.53 0,-27.53 z"
   id="path30"
   inkscape:connector-curvature="0"
   style="clip-rule:evenodd;fill-rule:evenodd" />
<path
   d="m 44.033,144.1335 c 1.068,-0.149 1.633,0.202 1.835,0.918 -0.915,7.31 2.694,17.215 0.918,24.772 -3.263,-5.71 -4.009,-18.49 -2.753,-25.69 z"
   id="path32"
   inkscape:connector-curvature="0"
   style="clip-rule:evenodd;fill-rule:evenodd" />
<path
   d="m 119.27,147.8035 c 3.121,3.353 2.277,17.182 -1.837,19.269 0.02,-7.03 0.54,-13.54 1.84,-19.27 z"
   id="path34"
   inkscape:connector-curvature="0"
   style="clip-rule:evenodd;fill-rule:evenodd" />
<path
   d="m 134.87,153.3135 c 1.266,0.448 2.226,8.271 -0.918,7.341 1.42,-1.34 0.81,-4.7 0.92,-7.34 z"
   id="path36"
   inkscape:connector-curvature="0"
   style="clip-rule:evenodd;fill-rule:evenodd" />
<path
   d="m 51.375,157.8935 h 2.752 c -1.643,4.929 3.461,11.716 -1.835,11.929 0.214,-4.49 -1.617,-6.95 -0.917,-11.93 z"
   id="path38"
   inkscape:connector-curvature="0"
   style="clip-rule:evenodd;fill-rule:evenodd" />
<path
   d="m 36.693,158.8135 c 2.571,2.016 4.238,8.796 3.67,11.01 -2.655,-1.93 -5.05,-7.98 -3.67,-11.01 z"
   id="path40"
   inkscape:connector-curvature="0"
   style="clip-rule:evenodd;fill-rule:evenodd" />
<path
   d="m 110.1,163.4035 h 2.755 v 2.752 H 110.1 c 0.01,-0.92 0.01,-1.84 0.01,-2.75 z"
   id="path42"
   inkscape:connector-curvature="0"
   style="clip-rule:evenodd;fill-rule:evenodd" />
<path
   d="m 57.797,164.3135 c 3.315,-0.866 1.281,3.614 1.835,5.507 -3.471,0.79 -3.246,-4.11 -1.835,-5.51 z"
   id="path44"
   inkscape:connector-curvature="0"
   style="clip-rule:evenodd;fill-rule:evenodd" />
<path
   d="m 129.37,179.0035 v 3.67 c -3.54,0.72 -3.54,-4.4 0,-3.67 z"
   id="path46"
   inkscape:connector-curvature="0"
   style="clip-rule:evenodd;fill-rule:evenodd" />
<path
   d="m 41.281,181.7535 c 2.489,0.377 3.786,4.364 1.835,6.422 -0.997,-1.86 -3.349,-4.8 -1.835,-6.42 z"
   id="path48"
   inkscape:connector-curvature="0"
   style="clip-rule:evenodd;fill-rule:evenodd" />
<path
   d="m 107.34,182.6735 c -0.104,2.341 -0.172,4.719 -2.752,4.584 -0.18,-2.62 -0.11,-5 2.75,-4.58 z"
   id="path50"
   inkscape:connector-curvature="0"
   style="clip-rule:evenodd;fill-rule:evenodd" />
<path
   d="m 48.621,183.5935 c 1.803,0.414 1.648,6.437 -1.835,4.585 -0.787,-2.92 1.445,-2.84 1.835,-4.58 z"
   id="path52"
   inkscape:connector-curvature="0"
   style="clip-rule:evenodd;fill-rule:evenodd" />
<path
   d="m 98.171,183.5935 h 3.671 c 0.586,4.869 -2.815,5.75 -5.507,7.34 -1.122,-4.18 2.517,-3.6 1.838,-7.34 z"
   id="path54"
   inkscape:connector-curvature="0"
   style="clip-rule:evenodd;fill-rule:evenodd" />
<path
   d="m 70.644,191.8535 c -3.954,1.194 -2.901,-2.606 -4.588,-3.674 -1.245,0.284 -0.762,2.3 -0.919,3.674 -3.115,0.056 -5.04,-1.079 -6.421,-2.755 2.247,-7.24 15.012,-4.35 11.928,2.76 z"
   id="path56"
   inkscape:connector-curvature="0"
   style="clip-rule:evenodd;fill-rule:evenodd" />
<path
   d="m 52.292,185.4235 h 2.753 c 0.257,1.482 -0.868,1.579 -0.918,2.752 h -1.835 v -2.75 z"
   id="path58"
   inkscape:connector-curvature="0"
   style="clip-rule:evenodd;fill-rule:evenodd" />
<path
   d="m 83.487,185.4235 c -0.731,1.714 -1.531,3.36 -1.833,5.507 2.561,-0.265 6.478,3.166 7.34,7.341 -3.103,-1.792 -6.373,-3.413 -9.177,-5.507 -3.334,0.336 -3.405,3.935 -6.422,4.588 -0.373,-5.268 4.238,-5.548 7.34,-7.34 -1.904,-1.89 0.004,-4.65 2.752,-4.59 z"
   id="path60"
   inkscape:connector-curvature="0"
   style="clip-rule:evenodd;fill-rule:evenodd" />
<path
   d="m 88.076,185.4235 c 3.173,1.109 5.29,3.274 5.507,7.341 -3.495,-0.79 -4.97,-3.59 -5.507,-7.34 z"
   id="path62"
   inkscape:connector-curvature="0"
   style="clip-rule:evenodd;fill-rule:evenodd" />
<path
   d="m 111.01,188.1735 c 4.066,-0.392 5.81,1.53 6.422,4.589 -3.3,-0.36 -5.84,-1.49 -6.42,-4.59 z"
   id="path64"
   inkscape:connector-curvature="0"
   style="clip-rule:evenodd;fill-rule:evenodd" />
<path
   d="m 108.26,189.0935 c -0.623,4.271 -3.318,6.47 -7.34,7.34 0.11,-4.78 3.97,-5.82 7.34,-7.34 z"
   id="path66"
   inkscape:connector-curvature="0"
   style="clip-rule:evenodd;fill-rule:evenodd" />
<path
   d="m 57.797,190.9335 c 1.379,2.596 4.043,3.906 4.588,7.341 -3.722,-0.254 -3.972,-3.98 -6.423,-5.507 -2.761,1.28 1.908,4.749 -0.917,6.425 -1.363,-4.823 -5.298,0.549 -8.259,-1.837 0.954,-4.86 5.375,-6.25 11.011,-6.42 z"
   id="path68"
   inkscape:connector-curvature="0"
   style="clip-rule:evenodd;fill-rule:evenodd" />
<path
   d="m 126.61,197.3535 c -0.612,3.551 -0.003,3.264 -0.918,5.504 -1.927,-1.434 -2.916,-3.809 -5.503,-4.585 -5.563,-0.415 -4.75,9.584 -10.096,6.422 1.77,-5.71 8.98,-10.42 16.52,-7.34 z"
   id="path70"
   inkscape:connector-curvature="0"
   style="clip-rule:evenodd;fill-rule:evenodd" />
<path
   d="m 109.18,203.7735 c -3.917,4.749 -6.739,-3.158 -11.011,-3.666 3.351,-5.42 8.831,1.91 11.011,3.67 z"
   id="path72"
   inkscape:connector-curvature="0"
   style="clip-rule:evenodd;fill-rule:evenodd" />
<path
   d="m 48.621,199.1935 c 3.239,2.479 10.488,5.123 8.259,10.092 -2.442,-3.68 -7.631,-4.61 -8.259,-10.09 z"
   id="path74"
   inkscape:connector-curvature="0"
   style="clip-rule:evenodd;fill-rule:evenodd" />
<path
   d="m 96.335,200.1035 c -2.009,2.576 -3.663,5.511 -8.259,5.503 -0.512,-4.82 5.216,-7.15 8.259,-5.5 z"
   id="path76"
   inkscape:connector-curvature="0"
   style="clip-rule:evenodd;fill-rule:evenodd" />
<path
   d="m 95.416,211.1135 c 0.011,-2.434 -0.347,-5.238 0.919,-6.421 2.826,3.42 1.729,4.278 5.507,3.67 0.717,3.778 -1.411,4.708 -0.919,8.259 -3.305,-0.36 -0.23,-7.11 -5.504,-5.51 z"
   id="path78"
   inkscape:connector-curvature="0"
   style="clip-rule:evenodd;fill-rule:evenodd" />
<path
   d="m 83.487,207.4435 c -2.695,3.42 -4.379,7.852 -7.34,11.007 -3.696,-3.14 2.266,-10.71 7.34,-11.01 z"
   id="path80"
   inkscape:connector-curvature="0"
   style="clip-rule:evenodd;fill-rule:evenodd" />
<path
   d="m 95.416,217.5435 c -3.211,-2.296 -4.634,-6.377 -6.422,-10.092 4.701,0.44 8.666,5.66 6.422,10.09 z"
   id="path82"
   inkscape:connector-curvature="0"
   style="clip-rule:evenodd;fill-rule:evenodd" />
<path
   d="m 109.18,207.4435 c -0.403,1.128 -1.176,1.882 -2.755,1.833 -0.43,-1.95 1.31,-1.74 2.75,-1.83 z"
   id="path84"
   inkscape:connector-curvature="0"
   style="clip-rule:evenodd;fill-rule:evenodd" />
<path
   d="m 82.573,213.8735 c 1.885,3.08 1.896,0.643 4.584,0 -1.583,4.727 3.461,10.842 -1.833,11.01 0.661,-2.804 -0.937,-3.345 -0.918,-5.507 -1.751,0.393 -1.662,2.621 -4.588,1.837 -0.599,-3.97 1.586,-5.15 2.755,-7.34 z"
   id="path86"
   inkscape:connector-curvature="0"
   style="clip-rule:evenodd;fill-rule:evenodd" />
<path
   d="m 114.68,218.4535 c -1.512,3.076 -2.71,6.466 -6.422,7.34 0.94,-3.65 2.14,-7.04 6.42,-7.34 z"
   id="path88"
   inkscape:connector-curvature="0"
   style="clip-rule:evenodd;fill-rule:evenodd" />
<path
   d="m 48.621,219.3735 c 1.621,-0.291 1.637,5.142 -0.918,3.674 -0.388,-1.92 0.629,-2.43 0.918,-3.67 z"
   id="path90"
   inkscape:connector-curvature="0"
   style="clip-rule:evenodd;fill-rule:evenodd" />
<path
   d="m 105.51,226.7135 c -4.01,0.029 -7.157,-0.796 -10.096,-1.834 0.901,-5.2 9.986,-2.1 10.096,1.83 z"
   id="path92"
   inkscape:connector-curvature="0"
   style="clip-rule:evenodd;fill-rule:evenodd" />
<path
   d="m 94.498,223.0435 c -2.479,2.106 -4.059,5.115 -5.504,8.255 -2.699,-3.65 1.341,-8.41 5.504,-8.25 z"
   id="path94"
   inkscape:connector-curvature="0"
   style="clip-rule:evenodd;fill-rule:evenodd" />
<path
   d="m 104.59,227.6335 c -0.399,1.128 -1.176,1.886 -2.751,1.837 -0.43,-1.96 1.31,-1.75 2.75,-1.84 z"
   id="path96"
   inkscape:connector-curvature="0"
   style="clip-rule:evenodd;fill-rule:evenodd" />
<path
   d="m 94.498,256.0735 c -0.777,1.366 -2.954,1.329 -4.585,1.837 -0.647,-3.18 3.215,-3.29 4.585,-1.84 z"
   id="path98"
   inkscape:connector-curvature="0"
   style="clip-rule:evenodd;fill-rule:evenodd" />
<path
   d="m 87.157,256.0735 c 1.781,-0.362 1.341,4.182 -0.914,2.755 v -1.837 c 0.78,0.17 0.862,-0.36 0.914,-0.92 z"
   id="path100"
   inkscape:connector-curvature="0"
   style="clip-rule:evenodd;fill-rule:evenodd" />
<path
   d="m 79.817,257.9135 c 2.128,-0.291 3.524,0.149 4.588,0.918 -0.466,1.64 -5.857,3.53 -4.588,-0.92 z"
   id="path102"
   inkscape:connector-curvature="0"
   style="clip-rule:evenodd;fill-rule:evenodd" />
<path
   d="m 11.919,183.5935 c 4.54,0.313 -0.764,2.408 0,4.585 5.751,-0.672 4.872,-7.972 6.424,-12.844 3.885,-1.426 10.071,1.931 11.927,5.504 -3.172,-0.725 -3.872,1.022 -5.505,1.837 1.464,3.957 4.189,6.799 8.259,3.67 -0.293,-2.154 -1.449,-3.446 -0.917,-6.426 6.784,1.475 7.725,8.793 11.927,12.848 -4.471,0.19 -4.172,-4.391 -8.257,-4.589 -2.724,0.336 -4.527,1.591 -5.507,3.674 0.536,2.86 6.464,6.854 7.342,3.666 1.245,0.284 0.76,2.3 0.917,3.674 2.824,0.68 1.764,-2.52 4.588,-1.837 -0.409,2.345 -1.288,4.219 -2.753,5.504 -5.072,-0.739 -5.733,-5.889 -10.094,-7.341 -5.753,1.016 -8.044,8.572 -3.67,12.848 1.788,-1.576 1.979,-4.753 1.837,-8.255 2.863,-0.172 2.008,5.443 2.751,8.255 0.538,2.038 3.464,2.818 -0.918,2.751 0.422,2.334 3.967,1.542 4.588,3.674 3.467,-1.004 -0.409,-6.496 -1.835,-8.258 1.789,-4.257 4.826,2.075 5.505,4.584 1.695,-4.42 2.479,-9.752 7.34,-11.006 -1.953,2.146 -2.755,7.291 0,9.173 -1.486,2.797 -2.143,6.418 -6.422,6.422 -1.094,2.729 3.866,3.942 4.587,1.837 0.676,3.133 0.59,5.04 2.753,8.255 3.304,0.246 4.422,-1.695 7.34,-1.833 -0.508,2.55 -3.547,2.568 -5.505,3.67 0.917,2.756 2.751,4.589 5.505,5.503 1.949,-0.291 -1.311,-2.837 -1.835,-3.666 2.496,-3.024 2.892,3.774 5.505,3.666 -0.463,-4.185 1.594,-5.196 0,-8.255 3.853,3.059 10.26,1.438 11.929,-2.751 -0.325,-4.54 -4.941,-8.744 -8.259,-7.341 -1.882,1.646 -1.225,8.513 0.918,9.174 -3.438,3.08 -5.01,-3.514 -4.588,-7.34 -2.064,0.381 0.138,5.028 -2.751,4.588 -3.766,-1.131 -4.523,-5.264 -6.424,-8.259 3.724,2.009 6.394,-4.106 6.424,0 6.102,-2.767 5.531,-12.208 11.928,-14.68 4.828,1.594 9.555,3.289 11.011,8.259 -3.349,3.285 -3.428,-4.484 -7.34,-3.674 -3.763,1.037 0.713,3.935 0,7.34 -3.92,-1.322 -4.592,-2.267 -8.259,0 3.898,3.748 9.017,6.276 11.929,11.014 -3.286,3.137 -4.67,8.177 -8.258,11.011 0.926,2.438 1.508,5.22 4.588,5.507 1.411,-0.649 -3.558,-7.153 1.833,-7.34 1.154,1.612 -0.9,5.503 1.837,7.34 1.244,-1.509 -1.658,-3.069 0,-6.426 3.831,0.773 4.331,-1.781 7.34,-1.833 -0.885,-3.397 -5.234,-3.33 -6.422,-6.422 6.896,-0.478 9.618,3.226 10.092,9.174 -3.341,-0.284 -5.97,0.146 -8.259,0.914 v 4.593 c 2.405,-0.963 3.82,-2.912 5.507,-4.593 2.729,3.577 8.901,1.449 9.173,-2.747 2.273,3.181 5.925,0.029 9.177,-0.919 0.161,3.219 -3.099,3.017 -3.67,5.503 2.58,1.091 2.472,4.869 3.67,7.341 1.303,-0.079 2.599,-0.149 2.752,0.918 15.355,-2.688 29.895,-6.197 36.701,-17.436 11.909,-6.164 23.678,-3.226 29.363,6.426 -2.075,3.61 0.654,7.837 0,11.01 -0.926,4.48 -3.539,5.529 -5.507,9.177 -4.409,-1.84 -6.402,2.397 -10.092,2.752 -9.359,0.9 -18.645,-6.683 -27.527,0 -2.188,3.01 -3.804,6.594 -7.34,8.259 -14.882,-4.977 -35.936,2.945 -50.466,8.255 -13.618,4.98 -27.432,14.49 -37.619,22.024 -3.082,2.281 -5.203,6.358 -9.175,6.421 -2.813,-5.268 7.209,-6.515 3.67,-12.847 18.317,-7.52 32.286,-17.208 47.713,-25.69 h 6.422 c -3.614,3.723 -9.453,5.23 -14.681,7.344 8.408,-0.776 18.283,-8.02 28.446,-10.096 2.154,-0.291 2.054,-2.837 3.67,-3.67 4.757,0.139 9.121,0.668 12.844,1.833 3.569,0.03 5.156,-5.182 8.258,-2.751 1.609,-0.841 3.189,-1.707 2.756,-4.589 2.968,-1.135 0.698,2.972 3.67,1.837 1.516,-0.979 -2.345,-2.785 0,-5.503 6.709,-1.449 12.899,0.254 18.351,-0.919 0.825,4.208 6.59,5.795 10.092,4.585 -0.858,-3.846 -5.085,1.001 -6.422,-2.752 -0.313,-3.617 5.57,-0.146 7.34,0 5.41,-0.533 4.689,-12.869 0.919,-14.68 -3.405,2.273 0.791,7.09 -3.67,7.34 -0.459,2.886 1.997,3.588 0,5.507 -2.572,-0.489 -4.771,-1.348 -7.34,-1.837 -0.62,-4.622 -2.293,-4.569 0,-8.259 -16.98,2.356 -32.24,18.373 -48.634,10.096 -5.753,4.406 -8.184,1.516 -13.762,4.585 2.166,-3.954 -3.058,-4.271 0.918,-6.422 3.05,-0.631 1.479,1.896 0.915,2.756 3.293,0.231 3.364,-2.756 6.426,-2.756 0.258,1.482 -0.87,1.579 -0.919,2.756 1.714,-0.735 3.36,-1.538 5.504,-1.837 -0.419,-2.334 -3.966,-1.539 -4.585,-3.67 -4.018,-0.168 -4.72,2.982 -8.259,0.914 -2.74,0.627 -3.077,3.655 -2.752,7.34 -15.834,12.729 -35.93,19.378 -53.22,30.279 -8.582,5.48 -16.035,12.43 -25.682,15.66 0.805,-7.146 10.863,-10.054 16.518,-13.762 1.368,-0.896 2.035,-2.472 3.67,-3.67 7.609,-5.574 20.023,-10.35 29.36,-14.681 5.216,-2.419 15.354,-7.754 21.106,-11.928 3.98,-2.891 6.134,-4.175 3.67,-10.092 -12.433,0.354 -25.911,0.847 -32.116,-7.345 -7.127,0.403 -8.767,-4.688 -15.599,-4.585 -5.843,-10.367 -19.984,-12.436 -20.186,-28.441 -7.994,-12.926 -6.304,-29.155 -3.67,-46.797 1.885,-0.258 1.831,-2.453 2.753,-3.672 1.173,-1.273 4.331,-0.562 5.505,-1.835 -0.551,-20.062 -1.281,-50.175002 4.586,-71.568002 0.579,-2.109 2.761,-3.776 3.67,-6.423 1.646,-4.794 1.796,-11.072 3.67,-15.599 1.619,-3.907 4.422,-8.737 6.423,-12.845 0.936,-1.923 2.412,-3.524 3.67,-5.507 1.454,-2.291 1.891,-5.301 2.753,-6.421 8.042,-10.439 19.797,-13.202 30.279,-19.269 5.552,1.236 10.222,-2.1520005 12.847,-0.9180005 2.92,-1.359 1.012,-7.547 3.67,-9.17499997 5.477,-1.19500003 3.207,5.35599997 3.67,9.17499997 9.169,2.1470005 16.778,5.8540005 24.771,9.1770005 3.913,6.071 9.346,11.496 13.766,18.35 7.579,11.763 14.408,29.616 18.351,45.878 1.654,6.825 0.646,15.979 1.833,25.692002 1.27,10.346 4.069,25.228 1.837,35.784 9.543,6.323 12.601,26.471 7.34,37.619 1.337,8.374 -3.711,10.356 -2.751,18.354 -3.842,6.862 -9.98,11.428 -12.848,19.265 -11.992,6.362 -19.238,17.466 -36.7,18.354 0.101,-4.488 1.9,-7.277 5.503,-8.259 0.434,2.879 -2.468,2.423 -2.752,4.585 2.901,0.149 3.065,-2.438 6.422,-1.833 -2.964,-6.415 5.664,-7.296 7.34,-11.929 11.556,4.518 11.313,-9.872 14.681,-16.518 -6.257,2.703 -9.513,7.602 -10.092,13.766 -3.715,-0.874 -5.728,-3.446 -8.259,-5.507 -5.398,0.717 -5.028,7.206 -10.092,8.259 0.489,-8.061 8.394,-12.612 16.518,-10.096 5.488,-1.849 5.22,-9.457 13.762,-8.255 0.997,-0.228 0.624,-1.826 1.833,-1.833 1.206,-4.57 -2.822,-3.905 -2.751,-7.344 -3.629,-0.557 -5.32,3.588 -8.259,0.918 2.099,-4.939 9.924,-3.629 12.847,-0.918 2.479,-0.273 1.646,-3.857 3.67,-4.589 -1.639,-1.725 -2.482,-4.245 -4.588,-5.503 -4.495,0.396 -6.06,3.726 -9.174,5.503 -3.099,-2.86 -5.145,-2.949 -9.177,-0.919 -2.218,-2.128 1.434,-2.452 1.837,-4.584 2.449,0.604 5.73,0.384 7.34,1.837 2.894,-3.532 10.32,-2.528 11.011,-8.259 0.153,-1.994 -3.256,-0.418 -4.589,-0.919 2.042,-4.233 5.742,-1.112 8.259,-4.588 0.934,5.298 -4.159,9.834 0,12.847 5.511,-2.038 1.344,-8.311 6.422,-10.096 -1.177,-2.494 -2.867,-4.473 -3.67,-7.34 1.004,-3.58 3.136,-6.041 4.588,-9.177 -0.022,-3.954 -0.892,-7.057 -3.67,-8.255 -2.856,1.749 1.434,3.983 0.919,6.422 -2.826,2.378 -3.939,6.462 -5.508,10.092 -4.633,1.792 -7.672,5.174 -11.01,8.258 -11.32,-0.209 -20.333,7.923 -34.867,7.341 -1.374,-0.053 -3.211,-1.636 -4.589,-1.833 -10.686,-1.527 -23.174,1.721 -32.114,0.914 -3.874,-0.347 -10.73,-2.853 -16.515,-3.666 -12.138,-1.71 -28.795,-8.603 -33.949,-18.354 -0.441,-3.494 4.247,-1.866 2.751,-6.422 -5.996,-1.971 -5.316,8.636 -4.588,11.929 0.136,2.005 2.313,1.968 4.588,1.834 1.219,3.674 1.314,8.475 3.67,11.014 -1.226,3.666 -4.368,5.417 -5.505,9.173 -0.168,0.78 0.358,0.866 0.918,0.919 1.077,-0.13 0.775,-1.65 0.919,-2.73 z M 136.709,76.233498 c -0.94,-6.397 -2.587,-12.091 -5.503,-16.517 -1.061,2.981 2.804,5.645 0,7.34 -1.702,-1.968 -2.453,-4.887 -2.752,-8.259 1.441,-0.086 3.182,0.123 2.752,-1.833 -1.9,-2.074 -4.738,1.279 -5.507,-2.753 -0.725,-3.174 1.022,-3.874 1.837,-5.505 -8.711,-15.147 -17.361,-30.354 -36.705,-34.868 0.485,2.345 1.218,3.211 -0.914,4.589 -4.891,-0.31 -5.959,-4.443 -10.096,-5.507 0.317,3.375 -3.342,2.776 -5.503,3.672 -0.668,-2.503 1.822,-1.848 1.833,-3.672 -3.588,0.081 -8.05,-0.709 -7.34,3.672 0.101,3.25 3.035,-1.951 2.751,0.917 -2.165,1.196 -0.899,5.826 -4.585,5.505 2.774,-7.676 -5.833,-2.275 -8.258,-3.67 0.009,-1.212 1.607,-0.838 1.835,-1.835 -4.586,0.308 -7.064,2.726 -8.258,6.423 3.444,0.909 1.999,-4.508 4.588,-1.835 -3.017,3.101 -5.417,6.817 -8.259,10.092 -0.831,-3.192 6.164,-6.562 1.835,-7.34 -3.519,-0.166 -0.332,0.752 -0.918,2.754 -2.99,-2.257 -7.23,3.431 -6.421,4.586 0.528,-3.495 2.146,3.573 0,2.753 -1.213,-0.011 -0.84,-1.607 -1.835,-1.835 -4.002,4.256 -4.758,11.759 -11.012,13.764 2.091,5.751 -2.879,10.891 -4.587,12.845 0.056,8.832 -8.312,28.515 -7.34,41.290002 0.704,-0.403 5.966,0.056 4.586,1.837 1.311,-1.693 -1.721,-2.683 0.918,-4.589002 0.05,4.232002 -0.407,8.970002 0.917,11.929002 3.612,1.469 0.319,-3.963 2.753,-3.67 -0.571,3.405 1.492,9.442 -1.835,10.092 -0.528,-1.613 1.109,-5.392 -0.918,-5.505 0.05,1.579 -0.706,2.352 -1.835,2.753 -0.838,-1.609 -0.315,-4.579 -1.835,-5.505 -0.22,2.365 -1.578,-1.26 -3.67,0 -0.495,2.888 5.947,8.466 0.918,7.34 3.396,4.213 1.502,15.952 0.917,19.269 -1.889,-0.252 -0.863,-3.418 -2.751,-3.67 -0.952,4.622 0.937,6.403 3.67,7.34 0.377,4.353 0.009,7.961 -1.835,10.094 2.578,1.09 2.472,4.868 3.67,7.34 -3.733,-0.19 -2.097,4.954 -0.918,7.34 2.332,-3.15 2.121,3.924 4.588,3.67 0.442,-5.548 -3.416,-14.825 0.917,-18.35 2.647,3.528 -0.818,8.564 3.67,11.01 -0.247,-13.103 -2.647,-27.541 1.837,-38.538 -0.015,-1.516 -2.546,-0.513 -2.754,-1.835 3.231,-0.629 -3.285,-9.442 1.835,-13.764 0.545,1.9 -1.135,6.028 0.918,6.423 0.13,-40.853002 8.525,-73.442002 32.114,-90.839002 -10.896,12.843 -21.7,28.078 -26.609,48.631 -3.097,12.961 -3.991,28.584 -4.588,43.125002 -0.564,13.745 -2.808,30.148 -1.835,43.126 0.177,2.355 3.218,4.432 0,6.422 0.155,-3.137 -3.228,0.209 -4.588,-2.752 0.772,2.285 1.202,4.914 0.918,8.259 8.731,7.434 25.417,5.556 36.703,7.34 8.032,1.27 18.05,-0.922 27.525,-0.918 16.432,0.007 27.718,1.165 37.619,-6.422 1.814,-11.679 0.731,-24.914 0,-36.703 -0.504,-8.154 -2.079,-16.426 0.919,-22.022 2.18,16.92 0.242,42.391 0.918,57.806 5.716,-0.399 5.429,-6.802 8.259,-10.095 1.071,2.404 -2.834,3.95 0.915,3.674 0.238,-5.593 4.349,-12.147 1.836,-17.436 -1.825,3.067 0.62,10.41 -3.67,11.014 2.218,-23.686 2.117,-58.257002 -6.422,-78.912002 2.764,19.87 6.418,43.738002 3.671,66.063002 -0.438,-17.301 -0.258,-35.22 -4.589,-48.629002 0.799,3.183 -1.411,3.147 -2.752,1.835 7.722,-4.714 -0.724,-15.86 0,-24.774 2.805,0.665 2.696,-1.583 5.504,-0.918 0.91,1.882 1.63,8.677 2.74,7.338 z m -103.69,-31.197 c -0.877,-1.71 2.748,-3.067 0,-3.67 -0.269,0.562 -2.283,3.532 0,3.67 z m 106.44,42.207 c -1.58,-8.375 -2.7,0.646 0,0 z m 1.83,18.348002 c -0.5,-1.333 1.071,-4.742 -0.918,-4.588 -1.45,1.38 -0.67,3.76 0.92,4.59 z m 1.84,16.52 c -1.561,-3.312 0.295,-9.207 -1.837,-13.764 -0.43,4.5 -1.82,11.16 1.84,13.76 z m 0,18.35 c -0.497,-4.725 1.063,-16.331 -0.919,-16.518 0.5,4.73 -1.06,16.33 0.92,16.52 z m 8.26,28.45 c 0.75,-0.669 2.46,-6.355 -0.919,-5.508 -0.4,2.04 -2.11,4.98 0.92,5.51 z m -148.65,1.83 c 2.876,0.429 2.585,-2.308 3.67,-3.671 H 3.655 c 0.207,1.73 -1.034,2.02 -0.916,3.67 z m 8.258,9.17 c 2.993,-2.098 0.739,-7.418 -0.918,-10.092 -3.418,2.53 -1.165,7.85 0.918,10.09 z m 141.3,0.92 c 0.52,-1.99 2.192,-7.513 0,-9.174 -2.29,2.95 -5.57,7.69 0,9.17 z m -143.13,2.76 c 0.044,-2.8 -0.834,-4.674 -2.753,-5.507 0.018,2.74 -0.086,5.59 2.753,5.51 z m 17.432,11.92 c -0.127,-6.295 -2.879,-9.965 -4.587,-14.68 -2.494,5.52 -0.491,13.76 4.587,14.68 z m 118.36,-1.83 c 4.499,0.213 4.809,-3.76 5.507,-7.34 -1.825,-0.012 -1.168,-2.506 -3.67,-1.833 -2.71,2.12 -2.72,5.54 -1.84,9.17 z m -131.21,0 c 0.03,-0.015 2.207,-4.245 0,-2.752 -1.751,1.18 -0.872,3.22 0,2.75 z m 7.34,4.59 c 1.619,-3.383 -1.426,-6.127 -3.67,-8.259 0.804,3.17 1.596,6.35 3.67,8.26 z m -13.764,-1.84 c 5.386,1.344 1.607,11.85 9.177,11.014 0.847,-5.13 -3.764,-4.801 -2.754,-10.096 -5.307,-0.108 -1.301,-4.077 -4.586,-5.503 0.683,2.83 -2.52,1.77 -1.837,4.59 z m 130.29,8.26 c 5.354,-0.882 6.388,-7.691 4.588,-11.011 -1.83,3.03 -6.62,7.06 -4.59,11.01 z m -118.36,0 c 1.413,-1.396 1.635,-6.292 -1.835,-5.504 -0.19,2.63 0.233,4.66 1.835,5.5 z m 118.36,5.5 c 4.278,1.157 7.444,-7.333 4.588,-7.34 -0.93,3.05 -5.08,2.88 -4.59,7.34 z m -73.4,-6.42 c -3.817,5.15 1.521,2.62 0,0 z m 67.9,7.34 c 2.946,0.194 2.233,-3.271 3.671,-4.584 -2.95,-0.2 -2.23,3.27 -3.67,4.58 z m -111.94,0.92 c 0.287,-1.239 1.305,-1.751 0.917,-3.67 -1.24,-0.288 -1.753,-1.304 -3.67,-0.915 -0.182,2.62 -0.115,5 2.753,4.58 z m 9.174,11.93 c -0.354,-4.491 -2.507,-5.769 -0.916,-10.092 -2.166,-0.284 -1.708,-3.188 -4.589,-2.756 -1.419,4.16 3.437,9.2 5.505,12.85 z m 102.77,-6.42 c 1.222,-1.833 5.996,-0.123 4.585,-4.589 -3.58,-1.07 -7.18,2.53 -4.59,4.59 z m -109.19,1.83 c 1.619,-1.725 -1.144,-4.249 -2.751,-5.503 -0.494,3.24 0.778,4.72 2.751,5.5 z m 11.012,-3.67 c -3.709,-3.23 -2.165,2.95 0,0 z m -0.918,5.51 c -0.386,-1.755 -0.333,-3.95 -2.753,-3.67 -0.257,2.39 -0.309,4.59 2.753,3.67 z m 5.505,6.42 c -2.981,-0.688 -0.206,-7.135 -4.587,-6.422 -0.207,0.71 -0.026,1.808 -0.918,1.837 -0.095,2.89 4.766,5.56 5.505,4.58 z m 75.242,0.92 c 3.531,2.144 9.785,0.337 9.177,-4.588 -3.64,-1.53 -7.61,1.35 -9.18,4.59 z m -72.489,-0.92 c 1.445,-1.362 1.021,-4.1 -1.835,-3.67 -0.257,2.09 0.221,3.45 1.835,3.67 z m 118.36,21.1 c 11.45,-2.441 4.977,-26.717 -5.504,-22.938 5.79,3.23 9.89,15.35 5.5,22.94 z m -7.34,-14.68 c -0.019,-2.158 1.584,-2.699 0.919,-5.504 -2.718,-0.646 -3.995,-2.732 -8.259,-1.836 2.55,2.35 5.01,4.79 7.34,7.34 z m -87.164,0.92 c -2.994,0.243 -1.945,-3.562 -4.586,-3.67 -3.037,2.53 3.023,8.5 4.586,3.67 z m 85.334,1.84 c -1.628,-0.821 -1.168,-3.726 -4.588,-2.755 -0.45,2.37 3.25,5.2 4.59,2.76 z m -61.476,0.91 h 5.504 c 0.615,-5.51 -3.899,-0.49 -5.504,0 z m -3.67,1.84 c 1.415,-2.771 -4.749,-2.416 -4.588,-0.919 2.21,-0.38 1.993,1.67 4.588,0.92 z m 60.556,0.91 c 3.7,4.63 4.3,-3.2 0,0 z m -11.01,8.26 c 2.091,0.258 3.45,-0.216 3.67,-1.833 -1.71,0.12 -3.06,0.6 -3.67,1.83 z m -19.27,10.1 c 1.911,-0.299 7.501,-1.575 4.589,-3.67 0.03,2.78 -4.62,0.88 -4.59,3.67 z"
   id="path104"
   inkscape:connector-curvature="0"
   style="clip-rule:evenodd;fill-rule:evenodd" />
<path
   d="m 48.621,33.109498 c -5.219,7.319 -9.382,15.698 -12.845,24.774 1.344,-7.533 5.992,-19.693 12.845,-24.774 z"
   id="path106"
   inkscape:connector-curvature="0"
   style="clip-rule:evenodd;fill-rule:evenodd" />
<path
   d="m 25.682,90.916498 c -2.035,0.504 -1.307,-1.753 -2.753,-1.835 -0.286,3.586 5.214,4.42 1.835,8.256 -2.837,-0.792 -2.733,-3.112 -2.751,1.837 -1.751,-3.618 0.222,-11.378 0.917,-15.599 1.129,0.399 1.885,1.174 1.835,2.751 1.876,-10.052 6.935,-16.922 9.177,-26.609 -0.766,2.203 -0.747,9.188 -2.753,16.517 -0.838,3.057 -6.5,9.044 -5.507,14.682 z"
   id="path108"
   inkscape:connector-curvature="0"
   style="clip-rule:evenodd;fill-rule:evenodd" />
<path
   d="m 30.269,84.492498 c 0.188,7.223 -2.563,11.505 -1.833,19.269002 -1.816,4.351 -1.652,-7.157002 -0.919,-12.845002 0.392,-3.043 0.572,-6.937 2.752,-6.426 z"
   id="path110"
   inkscape:connector-curvature="0"
   style="clip-rule:evenodd;fill-rule:evenodd" />
<path
   d="m 133.03,177.1735 c 1.73,-2.06 -4.6,5.46 0,0 z"
   id="path112"
   inkscape:connector-curvature="0"
   style="clip-rule:evenodd;fill-rule:evenodd" />
<metadata
   id="metadata114"><rdf:RDF><cc:Work><dc:format>image/svg+xml</dc:format><dc:type
         rdf:resource="http://purl.org/dc/dcmitype/StillImage" /><cc:license
         rdf:resource="http://creativecommons.org/publicdomain/zero/1.0/" /><dc:publisher><cc:Agent
           rdf:about="http://openclipart.org/"><dc:title>Openclipart</dc:title></cc:Agent></dc:publisher><dc:title>acorn 1</dc:title><dc:date>2006-12-26T00:00:00</dc:date><dc:description /><dc:source>https://openclipart.org/detail/20784/-by--20784</dc:source><dc:creator><cc:Agent><dc:title>johnny_automatic</dc:title></cc:Agent></dc:creator></cc:Work><cc:License
       rdf:about="http://creativecommons.org/publicdomain/zero/1.0/"><cc:permits
         rdf:resource="http://creativecommons.org/ns#Reproduction" /><cc:permits
         rdf:resource="http://creativecommons.org/ns#Distribution" /><cc:permits
         rdf:resource="http://creativecommons.org/ns#DerivativeWorks" /></cc:License></rdf:RDF></metadata></svg>