<?xml version="1.0" encoding="UTF-8" standalone="no"?>
<!-- Svg Vector Icons : http://www.onlinewebfonts.com/icon -->

<svg
   xmlns:dc="http://purl.org/dc/elements/1.1/"
   xmlns:cc="http://creativecommons.org/ns#"
   xmlns:rdf="http://www.w3.org/1999/02/22-rdf-syntax-ns#"
   xmlns:svg="http://www.w3.org/2000/svg"
   xmlns="http://www.w3.org/2000/svg"
   xmlns:sodipodi="http://sodipodi.sourceforge.net/DTD/sodipodi-0.dtd"
   xmlns:inkscape="http://www.inkscape.org/namespaces/inkscape"
   version="1.1"
   x="0px"
   y="0px"
   viewBox="0 0 1000 1000"
   enable-background="new 0 0 1000 1000"
   xml:space="preserve"
   id="svg8"
   sodipodi:docname="blank-artist-portrait.svg"
   inkscape:version="0.92.3 (2405546, 2018-03-11)"><defs
   id="defs12" /><sodipodi:namedview
   pagecolor="#ffffff"
   bordercolor="#666666"
   borderopacity="1"
   objecttolerance="10"
   gridtolerance="10"
   guidetolerance="10"
   inkscape:pageopacity="1"
   inkscape:pageshadow="2"
   inkscape:window-width="1920"
   inkscape:window-height="1017"
   id="namedview10"
   showgrid="false"
   inkscape:zoom="0.6675088"
   inkscape:cx="281.02347"
   inkscape:cy="638.9164"
   inkscape:window-x="-8"
   inkscape:window-y="-8"
   inkscape:window-maximized="1"
   inkscape:current-layer="svg8" />
<metadata
   id="metadata2"> Svg Vector Icons : http://www.onlinewebfonts.com/icon <rdf:RDF><cc:Work
     rdf:about=""><dc:format>image/svg+xml</dc:format><dc:type
       rdf:resource="http://purl.org/dc/dcmitype/StillImage" /><dc:title /></cc:Work></rdf:RDF></metadata>
<g
   id="g6"
   style="fill:#2f3542;fill-opacity:1"><path
     d="M504,537.4c62.2-39.2,99-104.8,99-180.8c0-123.2-102.5-226.9-222.3-226.9C258.7,129.8,162,233.4,162,356.6c0,76,35.7,141.6,88.7,180.8C110.2,589.2,10,719.4,10,870.2h743.9C753.9,719.4,653.7,589.2,504,537.4L504,537.4z M651.4,356.6c0,64.5-26.5,130.1-71.4,172.7c138.2,66.8,221.1,195.8,221.1,340.9H990c0-122.1-81.8-229.2-196.9-269.5c44.9-33.4,74.9-96.7,74.9-146.3c0-102.5-77.2-183.1-180.8-183.1c-17.3,0-33.4,2.3-47.2,8.1C643.4,300.2,651.4,330.1,651.4,356.6z"
     id="path4"
     style="fill:#2f3542;fill-opacity:1" /></g>
</svg>