<?xml version="1.0" encoding="UTF-8"?>
<svg xmlns:rdf="http://www.w3.org/1999/02/22-rdf-syntax-ns#" xmlns="http://www.w3.org/2000/svg" xmlns:cc="http://creativecommons.org/ns#" xmlns:xlink="http://www.w3.org/1999/xlink" xmlns:dc="http://purl.org/dc/elements/1.1/" xmlns:svg="http://www.w3.org/2000/svg" xmlns:inkscape="http://www.inkscape.org/namespaces/inkscape" xmlns:sodipodi="http://sodipodi.sourceforge.net/DTD/sodipodi-0.dtd" xmlns:ns1="http://sozi.baierouge.fr" id="svg2" viewBox="0 0 1307.8 1164.9" version="1.1">
  <defs id="defs4">
    <filter id="filter4100" color-interpolation-filters="sRGB">
      <feGaussianBlur id="feGaussianBlur4102" stdDeviation="6.0370166"/>
    </filter>
    <radialGradient id="radialGradient3908" spreadMethod="reflect" gradientUnits="userSpaceOnUse" cy="706.98" cx="780" gradientTransform="matrix(.88734 .51230 -.43483 .75314 387.65 -241.86)" r="639.42">
      <stop id="stop3997" stop-color="#5f5f5f" offset="0"/>
      <stop id="stop3999" stop-color="#a4a4a4" offset="1"/>
    </radialGradient>
    <linearGradient id="linearGradient3910" y2="568.5" gradientUnits="userSpaceOnUse" y1="568.5" x2="-78.787" x1="-196.22">
      <stop id="stop3961" offset="0"/>
      <stop id="stop3932" stop-color="#111" offset=".042578"/>
      <stop id="stop3929" stop-color="#111" offset=".85156"/>
      <stop id="stop3963" offset="1"/>
    </linearGradient>
    <radialGradient id="radialGradient3912" gradientUnits="userSpaceOnUse" cy="575.3" cx="502.63" gradientTransform="matrix(-.85878 .63793 -.64829 -.87273 1305.6 757.12)" r="565">
      <stop id="stop3931" stop-color="#d5d5d5" offset="0"/>
      <stop id="stop4023" stop-color="#333" offset=".10714"/>
      <stop id="stop3937" stop-color="#1b1b1b" offset=".87841"/>
      <stop id="stop3933" stop-color="#e2e2e2" offset="1"/>
    </radialGradient>
    <radialGradient id="radialGradient3914" gradientUnits="userSpaceOnUse" cy="567.7" cx="698.25" gradientTransform="matrix(1.8272 0 0 1.827 1650.8 -312.63)" r="187.04">
      <stop id="stop3914" stop-color="#fff" offset="0"/>
      <stop id="stop3920" stop-color="#fffee3" stop-opacity=".49804" offset=".98409"/>
      <stop id="stop3916" stop-color="#fffec8" stop-opacity="0" offset="1"/>
    </radialGradient>
    <linearGradient id="linearGradient3916" x1="-2288.1" spreadMethod="reflect" gradientUnits="userSpaceOnUse" y1="-376.22" gradientTransform="translate(2557.4 870.81)" x2="-2073.8" y2="-1176.2">
      <stop id="stop7021" stop-color="#ffc988" offset="0"/>
      <stop id="stop7027" stop-color="#be88e4" offset=".27419"/>
      <stop id="stop7023" stop-color="#96ff88" offset="1"/>
    </linearGradient>
    <linearGradient id="linearGradient3918" x1="-2212.6" spreadMethod="reflect" gradientUnits="userSpaceOnUse" y1="-425.03" gradientTransform="matrix(-1 0 0 -1 -1547.7 278.34)" x2="-1658.3" y2="-745.03">
      <stop id="stop4198" stop-color="#fffeb6" offset="0"/>
      <stop id="stop7025" stop-color="#d6e0da" offset=".54839"/>
      <stop id="stop4200" stop-color="#aec3fe" offset="1"/>
    </linearGradient>
    <linearGradient id="linearGradient3920" x1="694.48" gradientUnits="userSpaceOnUse" y1="-16.25" gradientTransform="matrix(.97825 0 0 .97825 9.329 13.602)" x2="366.63" y2="551.6">
      <stop id="stop3975" stop-color="#fff" stop-opacity=".34783" offset="0"/>
      <stop id="stop3982" stop-color="#fff" stop-opacity=".26957" offset=".96"/>
      <stop id="stop3977" stop-color="#fff" stop-opacity=".13913" offset="1"/>
    </linearGradient>
  </defs>
  <g id="layer1" transform="translate(227.86 -13.322)">
    <g id="g3865" transform="translate(-2.7592 3.2254)">
      <rect id="rect4092" opacity=".5814" ry="7.9456" rx="7.8634" transform="matrix(.97825 0 0 .97825 9.3288 12.891)" height="1135.9" filter="url(#filter4100)" width="1278.9" y="27.811" x="-213.37"/>
      <path id="rect2998" stroke="#6a5555" stroke-width=".97825" fill="url(#radialGradient3908)" d="m-171.64 20.102c-4.2582 0-7.6731 3.4589-7.6731 7.7648v1095.6c0 4.306 3.415 7.7648 7.6731 7.7648h1234.7c4.258 0 7.7037-3.4588 7.7037-7.7648v-1095.6c0-4.3059-3.4457-7.7648-7.7037-7.7648h-1234.7zm674.78 467.11c0.028-0.00004 0.0638 0 0.0917 0 3.5387 0 7.0258 0.20415 10.455 0.61141-2.0844 4.1852-3.8417 8.6953-4.1575 13.787-0.003 0.0157 0.003 0.0151 0 0.0305-0.00098 0.0183-0.0305 0.0428-0.0305 0.0611h0.0305c-0.24908 2.8991 0.61418 5.5402 2.0482 7.7037 1.6011 0.52019 3.0004 1.4073 3.7601 2.9959 1.0443 2.9756-0.50539 6.0834-1.8342 8.7125-1.9907 4.2429-5.0086 8.298-5.2886 13.115-0.33216 3.5104 2.9753 5.9008 5.9918 6.7866 2.875 1.1376 6.7491 1.5584 9.0182-0.97824 3.8363-5.2308 2.9825-12.215 4.9829-18.159 0.56311-2.5025 2.5462-4.9243 5.3192-4.8607 0.78476 0.0969 1.5482 0.2767 2.2928 0.5197 1.9399-0.66921 3.754-1.773 5.2581-3.4544a2.6887 2.6887 0 0 0 0.18342 -0.21399c3.3949-4.629 4.9512-9.7321 5.9306-14.857 3.0093 1.7456 5.913 3.6679 8.6819 5.7472-3.0622 2.0403-6.0596 4.3326-8.6208 7.2757-0.0642 0.0737-0.11983 0.13954-0.18342 0.21399-2.7827 2.7406-4.0124 6.4328-3.8518 10.088 1.7376 1.657 2.3736 4.4288 1.0394 6.542-3.9502 5.2994-11.157 7.0548-15.469 12.106-2.1669 2.0396-2.3162 5.4448-0.73369 7.8871 1.9241 2.8436 4.6318 6.0575 8.3762 6.0835 3.943-0.44739 6.6628-3.8533 9.0182-6.6949 2.6649-2.9272 4.7192-6.6336 8.3151-8.4679 2.2554-1.2871 4.9661-0.153 6.4809 1.7425 0.8142 0.14885 1.6597 0.2387 2.5373 0.24457a2.6887 2.6887 0 0 0 0.3057 -0.0305c7.2669-0.82453 12.178-6.0861 16.08-10.761 1.7663 3.0453 3.3727 6.2137 4.7689 9.4768-4.2978 0.28432-8.6806 0.94303-12.962 2.7513-0.0209 0.007-0.0404 0.0227-0.0611 0.0305-0.0381 0.0162-0.0841 0.0142-0.12228 0.0305-3.1335 1.146-5.326 3.411-6.6643 6.114 0.10329 0.48862 0.20093 0.99584 0.24456 1.4979 0.23098 2.4283-1.5356 4.5134-3.7907 5.1969-6.2002 1.8653-13.073 0.004-19.106 2.5985-2.76 0.96076-3.9594 4.0356-3.6684 6.756 0.27372 3.4902 1.353 7.8108 4.9829 9.1711 4.8543 1.0565 9.5146-1.4521 13.94-3.057 3.1235-0.98506 6.7415-2.7883 9.9659-1.1617 1.5222 0.91116 2.2668 2.4255 2.5985 4.0964 1.1428 0.98179 2.4763 1.8118 4.0047 2.3845a2.6887 2.6887 0 0 0 0.36684 0.12228c6.1839 1.3458 11.968-0.0817 17.303-2.0176-0.00059 3.5336-0.20474 7.0002-0.6114 10.424-4.4125-2.231-9.1874-4.0884-14.643-4.1576-0.0232-0.00025-0.0381 0.00023-0.0611 0-2.5938-0.0696-4.9366 0.73811-6.8783 2.0176-0.51589 1.609-1.4091 3.0264-2.9959 3.7907-3.0539 1.082-6.2508-0.54444-8.9265-1.9259-4.2924-1.9621-8.3756-5.1181-13.267-5.1664-3.4426-0.11302-5.635 3.2079-6.5114 6.1446-1.1058 2.8848-1.4198 6.6927 1.1617 8.8959 5.2478 3.7444 12.143 2.943 18.036 4.9218 2.5236 0.55832 4.9487 2.558 4.8912 5.3192-0.0979 0.78561-0.27588 1.5448-0.51969 2.2928 0.69855 2.0146 1.8773 3.9129 3.6684 5.4415a2.6887 2.6887 0 0 0 0.15285 0.15285c4.5999 3.2821 9.6851 4.8098 14.735 5.7778-1.752 3.0215-3.6894 5.9332-5.7778 8.7125-1.9996-3.0108-4.2438-5.9513-7.0923-8.4985-2.7655-2.9012-6.6321-4.3335-10.486-4.1881-1.6468 1.7635-4.4662 2.3932-6.5726 1.07-5.2334-3.9544-7.0024-10.971-11.861-15.316-1.8468-2.0183-4.9527-2.5321-7.398-1.284-3.0401 1.8131-6.3901 4.4798-6.7866 8.1928-0.0299 3.8065 3.1883 6.5844 5.8389 8.8348 3.1746 3.0079 7.4073 5.2167 9.385 9.2628 1.2129 2.229-0.0151 4.8086-1.8342 6.2974-0.0789 0.41696-0.13705 0.84991-0.18342 1.284a2.6887 2.6887 0 0 0 -0.0305 0.24456c-0.063 8.0056 6.0799 13.395 10.791 17.394-3.0581 1.7748-6.2295 3.3675-9.5073 4.769-0.27432-4.3672-0.91952-8.8394-2.8125-13.176-0.0263-0.0604-0.0343-0.12307-0.0611-0.18343h-0.0305c-1.1509-3.0477-3.4528-5.1707-6.0529-6.4503-0.31212 0.0685-0.60041 0.13685-0.9171 0.18342-2.2854 0.37006-4.629-0.91549-5.4721-3.0876-2.3618-6.3475-0.12274-13.587-2.9042-19.84-1.123-3.1406-4.8492-4.0152-7.826-3.485-3.1625 0.43501-6.9821 1.6256-8.1011 4.9829-0.99524 5.1286 1.7388 9.8885 3.3933 14.582 0.94476 2.9395 2.4355 6.468 0.76425 9.4156-0.96363 1.3967-2.4269 2.0984-4.0353 2.415-1.0358 1.209-1.897 2.6338-2.4456 4.2798a2.6887 2.6887 0 0 0 -0.0917 0.33627c-1.1892 6.1279 0.20426 11.788 2.1094 17.058-3.5389-0.002-7.0563-0.23317-10.486-0.64197 2.2183-4.3875 4.1219-9.1231 4.2187-14.521v-0.061c0.0853-2.6426-0.74436-5.0257-2.0482-7.0006-1.6707-0.5405-3.1422-1.4695-3.8518-3.1487-0.96346-3.2234 0.81722-6.4914 2.2622-9.2933 1.9402-4.0882 4.8503-8.0436 4.9218-12.687 0.12664-3.3674-3.0055-5.5575-5.8695-6.4503-2.9291-1.1331-6.8486-1.6442-9.1405 1.0088-3.7526 5.1468-2.9788 11.976-4.8607 17.822-0.54488 2.5037-2.3825 5.0215-5.1358 5.1358-0.90404-0.0661-1.7778-0.24291-2.629-0.5197-1.9561 0.6868-3.8163 1.8369-5.3192 3.5767a2.6887 2.6887 0 0 0 -0.12228 0.18342c-3.358 4.6056-4.9293 9.7007-5.9 14.796-3.0192-1.7522-5.9048-3.6896-8.6819-5.7778 0.46009-0.31343 0.92044-0.6518 1.3757-0.97825 2.4768-1.7497 5.3021-3.8608 7.5814-6.6032 2.1846-2.6285 3.8553-6.006 3.7601-9.9353-1.6779-1.6227-2.4292-4.2331-1.2534-6.3586 2.8585-4.1288 7.7492-6.0939 11.739-8.9571 2.7109-1.9148 5.9274-4.459 5.686-8.1928-0.43469-2.8363-2.4615-5.3042-4.555-7.1534-1.9184-1.6924-4.7191-2.7091-7.1228-1.4674-5.8996 3.0093-8.4774 9.7773-13.634 13.695-1.7519 1.6835-4.6405 1.9557-6.6032 0.45855-0.44605-0.40612-0.85665-0.8282-1.2534-1.2839-2.5681-0.50596-5.2944-0.29993-7.8871 1.0394v0.0305c-4.6113 2.3559-8.1084 5.7725-11.189 9.385-1.7514-3.0288-3.3221-6.1719-4.7078-9.4156 3.889-0.24892 7.836-0.8021 11.708-2.2316 0.0913-0.0336 0.18396-0.057 0.27513-0.0917 3.5771-1.0201 6.2518-3.5365 7.826-6.6337-0.01-0.0409-0.0217-0.0814-0.0305-0.12228-0.78716-2.4186 0.4158-5.178 2.7513-6.2057 6.1611-2.3538 13.224-0.3291 19.351-2.6596 2.727-0.70699 4.386-3.5301 4.2798-6.2669-0.20686-3.3978-0.90216-7.4624-4.0047-9.4462-3.4754-1.6706-7.4772-0.20131-10.852 1.0394-3.9276 1.2334-7.6924 3.5412-11.922 3.3322-2.5797 0.0124-4.4031-2.3485-4.7384-4.7384-0.5231-0.45002-1.0722-0.89443-1.6814-1.284a2.6887 2.6887 0 0 0 -0.30571 -0.15285c-6.7713-3.255-13.874-1.0309-19.657 1.07-0.00004-0.0153 0-0.0459 0-0.0611 0.00003-3.5545 0.20055-7.0417 0.61141-10.486 3.7683 1.8656 7.796 3.4466 12.289 4.0353 0.0849 0.0112 0.15935 0.0203 0.24456 0.0305 3.3466 0.65562 6.5529-0.26536 9.0793-1.9565 0.0935-0.29432 0.19288-0.56817 0.3057-0.85597 0.84705-2.1956 3.1254-3.6077 5.4721-3.2099 6.5829 1.1699 11.662 6.583 18.342 7.398 3.1456 0.69014 5.8841-1.8367 6.97-4.5855 1.2587-2.9864 2.3224-6.9454 0.0917-9.7519-3.2258-3.1916-8.0911-3.5046-12.35-4.2187-3.4139-0.71577-7.433-0.83039-10.027-3.4544-1.4739-1.5597-1.422-3.7148-0.76425-5.6555-0.46059-1.3012-1.1204-2.5623-2.0482-3.7296a2.6887 2.6887 0 0 0 -0.214 -0.21399c-4.6217-4.5727-10.563-6.2202-16.263-7.2146 1.7474-3.0191 3.6642-5.9347 5.7472-8.7125 2.7398 4.1221 5.9972 8.0614 10.638 10.914 2.2282 1.3742 4.6633 1.8307 7.0006 1.6814 0.9367-0.84242 1.9997-1.4895 3.3016-1.7425 3.1081-0.37283 5.458 2.3464 7.0006 4.6772 3.1766 4.2388 5.1807 9.6801 9.8742 12.564 2.8644 1.7666 6.3569 0.0367 8.5596-1.9871 2.3868-1.9248 4.6464-4.9828 3.6378-8.2234-2.5377-5.8915-8.9008-8.6924-13.053-13.237-1.8587-1.7052-3.1642-4.5289-1.9259-6.97 0.50453-0.76348 1.1048-1.4412 1.7731-2.0482 0.3743-1.9558 0.34546-4.0219-0.3057-6.114a2.6887 2.6887 0 0 0 -0.0917 -0.27513c-2.2864-5.3081-5.96-9.2784-9.9353-12.717 2.9938-1.7268 6.0899-3.2767 9.2933-4.6467 0.21985 3.5964 0.69542 7.2666 1.8954 10.883 0.93135 3.9199 3.5965 7.0608 7.0006 8.8654 2.231-0.59731 4.8611 0.0615 6.0835 2.1399 2.782 6.092 0.67776 13.163 2.7513 19.412 0.60636 2.8339 3.3477 4.9107 6.2363 4.8607 3.5383-0.21175 7.8212-0.85612 9.7824-4.1881 1.6075-3.5943 0.0449-7.5779-1.2228-11.036-1.2618-4.0867-3.8384-8.1069-3.057-12.534 0.46047-2.186 2.461-3.3563 4.555-3.7907 0.53623-0.62461 1.0289-1.3033 1.4674-2.0482a2.6887 2.6887 0 0 0 0.12228 -0.24457c3.0074-6.7244 0.87042-13.618-1.2228-19.351z"/>
      <path id="rect3880" fill="#1a1a1a" d="m-47.158 35.139c-3.7813 0-6.8477 3.3615-6.8477 7.5508v1066c0 4.1894 3.0664 7.5509 6.8477 7.5509h1096.4c3.7813 0 6.8477-3.3615 6.8477-7.5509v-1066c0-4.1893-3.0664-7.5508-6.8477-7.5508zm550.3 452.07c0.028-0.00004 0.0638 0 0.0917 0 3.5387 0 7.0258 0.20415 10.455 0.6114-2.0844 4.1852-3.8417 8.6953-4.1575 13.787-0.003 0.0156 0.003 0.0151 0 0.0305-0.00098 0.0183-0.0305 0.0428-0.0305 0.0611h0.0305c-0.24908 2.8991 0.61418 5.5402 2.0482 7.7037 1.6011 0.5202 3.0004 1.4073 3.7601 2.9959 1.0443 2.9757-0.50539 6.0834-1.8342 8.7125-1.9907 4.2429-5.0086 8.298-5.2886 13.115-0.33216 3.5104 2.9753 5.9008 5.9918 6.7866 2.875 1.1376 6.7491 1.5584 9.0182-0.97825 3.8363-5.2308 2.9825-12.215 4.9829-18.159 0.56311-2.5025 2.5462-4.9244 5.3192-4.8607 0.78476 0.0968 1.5482 0.2767 2.2928 0.51969 1.9399-0.66921 3.754-1.773 5.2581-3.4544 0.0648-0.0681 0.12607-0.13952 0.18342-0.21399 3.3949-4.629 4.9512-9.7321 5.9306-14.857 3.0093 1.7456 5.913 3.6679 8.6819 5.7472-3.0622 2.0403-6.0596 4.3326-8.6208 7.2757-0.0642 0.0737-0.11983 0.13955-0.18342 0.21399-2.7827 2.7406-4.0124 6.4328-3.8518 10.088 1.7376 1.657 2.3736 4.4288 1.0394 6.542-3.9502 5.2994-11.157 7.0548-15.469 12.106-2.1669 2.0396-2.3162 5.4448-0.73369 7.8871 1.9241 2.8436 4.6318 6.0575 8.3762 6.0835 3.943-0.44739 6.6628-3.8533 9.0182-6.6949 2.6649-2.9272 4.7192-6.6336 8.3151-8.4679 2.2554-1.2871 4.9661-0.15301 6.4809 1.7425 0.8142 0.14885 1.6597 0.23869 2.5373 0.24456 0.10237-0.004 0.20449-0.0146 0.3057-0.0305 7.2669-0.82453 12.178-6.0861 16.08-10.761 1.7663 3.0453 3.3727 6.2137 4.7689 9.4768-4.2978 0.28433-8.6806 0.94303-12.962 2.7513-0.0209 0.007-0.0404 0.0227-0.0611 0.0305-0.0381 0.0161-0.0841 0.0142-0.12228 0.0305-3.1335 1.146-5.326 3.411-6.6643 6.114 0.10329 0.48862 0.20093 0.99583 0.24456 1.4979 0.23098 2.4283-1.5356 4.5134-3.7907 5.1969-6.2002 1.8653-13.073 0.004-19.106 2.5985-2.76 0.96075-3.9594 4.0356-3.6684 6.756 0.27372 3.4902 1.353 7.8108 4.9829 9.171 4.8543 1.0565 9.5146-1.4521 13.94-3.057 3.1235-0.98505 6.7415-2.7883 9.9659-1.1617 1.5222 0.91115 2.2668 2.4255 2.5985 4.0964 1.1428 0.98179 2.4763 1.8118 4.0047 2.3845 0.11914 0.0495 0.24184 0.0904 0.36684 0.12228 6.1839 1.3458 11.968-0.0817 17.303-2.0176-0.00059 3.5336-0.20474 7.0002-0.6114 10.424-4.4125-2.231-9.1874-4.0884-14.643-4.1575-0.0232-0.00026-0.0381 0.00022-0.0611 0-2.5938-0.0696-4.9366 0.7381-6.8783 2.0176-0.51589 1.609-1.4091 3.0264-2.9959 3.7907-3.0539 1.0821-6.2508-0.54443-8.9265-1.9259-4.2924-1.9621-8.3756-5.1181-13.267-5.1664-3.4426-0.11302-5.635 3.2079-6.5114 6.1446-1.1058 2.8848-1.4198 6.6927 1.1617 8.8959 5.2478 3.7444 12.143 2.943 18.036 4.9218 2.5236 0.55832 4.9487 2.558 4.8912 5.3192-0.0979 0.78561-0.27588 1.5447-0.51969 2.2928 0.69855 2.0146 1.8773 3.9128 3.6684 5.4415 0.0489 0.053 0.0999 0.10398 0.15285 0.15285 4.5999 3.2821 9.6851 4.8098 14.735 5.7778-1.752 3.0215-3.6894 5.9332-5.7778 8.7125-1.9996-3.0108-4.2438-5.9513-7.0923-8.4985-2.7655-2.9012-6.6321-4.3335-10.486-4.1881-1.6468 1.7635-4.4662 2.3932-6.5726 1.07-5.2334-3.9544-7.0024-10.971-11.861-15.316-1.8468-2.0183-4.9527-2.5321-7.398-1.284-3.0401 1.8131-6.3901 4.4798-6.7866 8.1928-0.0299 3.8065 3.1883 6.5844 5.8389 8.8348 3.1746 3.0079 7.4073 5.2167 9.385 9.2628 1.2129 2.229-0.0151 4.8086-1.8342 6.2975-0.0789 0.41696-0.13705 0.84991-0.18342 1.284-0.0139 0.081-0.0242 0.16263-0.0305 0.24456-0.063 8.0056 6.0799 13.395 10.791 17.394-3.0581 1.7747-6.2295 3.3675-9.5073 4.7689-0.27432-4.3672-0.91952-8.8394-2.8125-13.176-0.0263-0.0604-0.0343-0.12306-0.0611-0.18342h-0.0305c-1.1509-3.0478-3.4528-5.1707-6.0529-6.4503-0.31212 0.0685-0.60041 0.13686-0.9171 0.18342-2.2854 0.37006-4.629-0.91549-5.4721-3.0876-2.3618-6.3475-0.12274-13.587-2.9042-19.84-1.123-3.1406-4.8492-4.0152-7.826-3.485-3.1625 0.43502-6.9821 1.6257-8.1011 4.9829-0.99524 5.1286 1.7388 9.8885 3.3933 14.582 0.94476 2.9395 2.4355 6.468 0.76425 9.4156-0.96363 1.3967-2.4269 2.0984-4.0353 2.415-1.0358 1.209-1.897 2.6338-2.4456 4.2798-0.0378 0.10995-0.0685 0.22235-0.0917 0.33627-1.1892 6.1279 0.20426 11.788 2.1094 17.058-3.5389-0.002-7.0563-0.23318-10.486-0.64198 2.2183-4.3875 4.1219-9.1231 4.2187-14.521v-0.061c0.0853-2.6427-0.74436-5.0257-2.0482-7.0006-1.6707-0.5405-3.1422-1.4695-3.8518-3.1487-0.96346-3.2234 0.81722-6.4914 2.2622-9.2933 1.9402-4.0882 4.8503-8.0436 4.9218-12.687 0.12664-3.3674-3.0055-5.5574-5.8695-6.4503-2.9291-1.1331-6.8486-1.6442-9.1405 1.0088-3.7526 5.1468-2.9788 11.976-4.8607 17.822-0.54488 2.5037-2.3825 5.0215-5.1358 5.1358-0.90404-0.0661-1.7778-0.24291-2.629-0.51969-1.9561 0.6868-3.8163 1.8369-5.3192 3.5767-0.0432 0.0595-0.084 0.12065-0.12228 0.18342-3.358 4.6056-4.9293 9.7007-5.9 14.796-3.0192-1.7522-5.9048-3.6896-8.6819-5.7778 0.46009-0.31343 0.92044-0.65179 1.3757-0.97824 2.4768-1.7497 5.3021-3.8608 7.5814-6.6032 2.1846-2.6285 3.8553-6.006 3.7601-9.9353-1.6779-1.6227-2.4292-4.2331-1.2534-6.3586 2.8585-4.1288 7.7492-6.0939 11.739-8.9571 2.7109-1.9148 5.9274-4.459 5.686-8.1928-0.43469-2.8364-2.4615-5.3042-4.555-7.1534-1.9184-1.6924-4.7191-2.7091-7.1228-1.4674-5.8996 3.0093-8.4774 9.7773-13.634 13.695-1.7519 1.6835-4.6405 1.9557-6.6032 0.45855-0.44605-0.40613-0.85665-0.8282-1.2534-1.284-2.5681-0.50596-5.2944-0.29993-7.8871 1.0394v0.0305c-4.6113 2.3559-8.1084 5.7725-11.189 9.385-1.7514-3.0288-3.3221-6.1719-4.7078-9.4156 3.889-0.24893 7.836-0.8021 11.708-2.2316 0.0913-0.0337 0.18396-0.057 0.27513-0.0917 3.5771-1.0201 6.2518-3.5365 7.826-6.6337-0.01-0.0409-0.0217-0.0814-0.0305-0.12228-0.78716-2.4186 0.4158-5.178 2.7513-6.2058 6.1611-2.3538 13.224-0.32909 19.351-2.6596 2.727-0.70698 4.386-3.5301 4.2798-6.2669-0.20686-3.3978-0.90216-7.4624-4.0047-9.4462-3.4754-1.6706-7.4772-0.20131-10.852 1.0394-3.9276 1.2334-7.6924 3.5412-11.922 3.3322-2.5797 0.0124-4.4031-2.3485-4.7384-4.7384-0.5231-0.45002-1.0722-0.89443-1.6814-1.284-0.0985-0.0573-0.2007-0.10844-0.30571-0.15285-6.7713-3.255-13.874-1.0309-19.657 1.07-0.00004-0.0153 0-0.0459 0-0.0611 0.00003-3.5545 0.20055-7.0417 0.61141-10.486 3.7683 1.8656 7.796 3.4466 12.289 4.0353 0.0849 0.0112 0.15935 0.0203 0.24456 0.0305 3.3466 0.65562 6.5529-0.26536 9.0793-1.9565 0.0935-0.29431 0.19288-0.56816 0.3057-0.85596 0.84705-2.1956 3.1254-3.6077 5.4721-3.2099 6.5829 1.1699 11.662 6.583 18.342 7.398 3.1456 0.69014 5.8841-1.8367 6.97-4.5855 1.2587-2.9864 2.3224-6.9454 0.0917-9.7519-3.2258-3.1916-8.0911-3.5046-12.35-4.2187-3.4139-0.71578-7.433-0.8304-10.027-3.4544-1.4739-1.5597-1.422-3.7148-0.76425-5.6555-0.46059-1.3012-1.1204-2.5623-2.0482-3.7296-0.0672-0.0753-0.13872-0.14675-0.214-0.21399-4.6217-4.5727-10.563-6.2202-16.263-7.2146 1.7474-3.0192 3.6642-5.9347 5.7472-8.7125 2.7398 4.1221 5.9972 8.0614 10.638 10.914 2.2282 1.3742 4.6633 1.8307 7.0006 1.6814 0.9367-0.84241 1.9997-1.4895 3.3016-1.7425 3.1081-0.37283 5.458 2.3464 7.0006 4.6772 3.1766 4.2388 5.1807 9.68 9.8742 12.564 2.8644 1.7666 6.3569 0.0367 8.5596-1.9871 2.3868-1.9248 4.6464-4.9828 3.6378-8.2234-2.5377-5.8915-8.9008-8.6924-13.053-13.237-1.8587-1.7052-3.1642-4.529-1.9259-6.97 0.50453-0.76349 1.1048-1.4412 1.7731-2.0482 0.3743-1.9558 0.34546-4.0219-0.3057-6.114-0.0256-0.0932-0.0562-0.18516-0.0917-0.27513-2.2864-5.3081-5.96-9.2784-9.9353-12.717 2.9938-1.7268 6.0899-3.2767 9.2933-4.6467 0.21985 3.5964 0.69542 7.2666 1.8954 10.883 0.93135 3.9199 3.5965 7.0608 7.0006 8.8654 2.231-0.59731 4.8611 0.0615 6.0835 2.1399 2.782 6.092 0.67776 13.163 2.7513 19.412 0.60636 2.8339 3.3477 4.9108 6.2363 4.8607 3.5383-0.21175 7.8212-0.85612 9.7824-4.1881 1.6075-3.5944 0.0449-7.5779-1.2228-11.036-1.2618-4.0867-3.8384-8.1069-3.057-12.534 0.46047-2.186 2.461-3.3563 4.555-3.7907 0.53623-0.62461 1.0289-1.3033 1.4674-2.0482 0.0449-0.0793 0.0857-0.16104 0.12228-0.24456 3.0074-6.7244 0.87042-13.618-1.2228-19.351z"/>
      <path id="path3815" d="m-189.97 23.25a5.7593 5.7593 0 0 0 -5.75 5.75v1079a5.7593 5.7593 0 0 0 5.75 5.75h104.94a5.7593 5.7593 0 0 0 5.75 -5.75v-1079a5.7593 5.7593 0 0 0 -5.75 -5.75h-104.94z" transform="matrix(.97825 0 0 1.0002 12.118 6.62)" stroke="#000" stroke-width=".98895" fill="url(#linearGradient3910)"/>
      <g id="g3924" stroke-width="3.2587px" transform="matrix(.97825 0 0 .97825 9.3288 12.891)">
        <path id="path3882" stroke="#000" fill="#151515" d="m-175 17.809v1115"/>
        <path id="path3886" stroke="#000" fill="#151515" d="m-165 17.809v1115"/>
        <path id="path3890" stroke="#000" fill="#151515" d="m-145 17.809v1115"/>
        <path id="path3894" stroke="#000" fill="#151515" d="m-135 17.809v1115"/>
        <path id="path3898" stroke="#000" fill="#151515" d="m-125 17.809v1115"/>
        <path id="path3902" stroke="#000" fill="#151515" d="m-105 17.809v1115"/>
        <path id="path3906" stroke="#000" fill="#151515" d="m-155 17.809v1115"/>
        <path id="path3910" stroke="#000" fill="#151515" d="m-115 17.809v1115"/>
        <path id="path3914" stroke="#000" fill="#151515" d="m-95 17.809v1115"/>
        <path id="path3941" stroke="#222" fill="none" d="m-180 17.809v1115"/>
        <path id="path3943" stroke="#222" fill="none" d="m-170 17.809v1115"/>
        <path id="path3945" stroke="#222" fill="none" d="m-150 17.809v1115"/>
        <path id="path3947" stroke="#222" fill="none" d="m-140 17.809v1115"/>
        <path id="path3949" stroke="#222" fill="none" d="m-130 17.809v1115"/>
        <path id="path3951" stroke="#222" fill="none" d="m-110 17.809v1115"/>
        <path id="path3953" stroke="#222" fill="none" d="m-160 17.809v1115"/>
        <path id="path3955" stroke="#222" fill="none" d="m-120 17.809v1115"/>
        <path id="path3957" stroke="#222" fill="none" d="m-100 17.809v1115"/>
      </g>
      <g id="g4464" opacity=".5" stroke-linejoin="round" transform="matrix(.97825 0 0 .97825 9.3288 12.891)" stroke="#fff" stroke-linecap="round" stroke-width="3" fill="#c8c8c8">
        <path id="path3819" opacity=".64651" transform="translate(6.7891 -15.833)" d="m159.6 26.552c0 23.71-19.447 42.931-43.437 42.931-23.989 0-43.437-19.221-43.437-42.931v-0.000002l43.437 0.000002z"/>
        <path id="path3822" opacity=".64651" transform="translate(753.29 -15.833)" d="m159.6 26.552c0 23.71-19.447 42.931-43.437 42.931-23.989 0-43.437-19.221-43.437-42.931v-0.000002l43.437 0.000002z"/>
        <path id="path3830" opacity=".64651" transform="matrix(1 0 0 -1 6.7891 1166.4)" d="m159.6 26.552c0 23.71-19.447 42.931-43.437 42.931-23.989 0-43.437-19.221-43.437-42.931v-0.000002l43.437 0.000002z"/>
        <path id="path3832" opacity=".64651" transform="matrix(1 0 0 -1 753.29 1166.4)" d="m159.6 26.552c0 23.71-19.447 42.931-43.437 42.931-23.989 0-43.437-19.221-43.437-42.931v-0.000002l43.437 0.000002z"/>
      </g>
      <path id="path4368" stroke-linejoin="round" d="m678.82 1120.1v-26.095c10.087-3.4593 20.056-7.2278 29.867-11.25 13.095-5.3678 25.924-11.218 38.488-17.547 6.2773-3.1627 12.481-6.4494 18.617-9.8436 0.72371-0.4003 1.4488-0.7887 2.1705-1.1923 0.80911-0.4521 1.6084-0.9192 2.415-1.3756 4.5726-2.5872 9.1141-5.2346 13.604-7.9482 0.37525-0.2269 0.75652-0.4449 1.1311-0.6726 1.1218-0.6816 2.2462-1.3893 3.3627-2.0788 5.9448-3.6717 11.817-7.4516 17.608-11.341 1.4548-0.9774 2.896-1.9746 4.341-2.9654 1.4409-0.9879 2.8796-1.964 4.3104-2.9653 1.4362-1.005 2.8537-2.008 4.2798-3.0264 5.6747-4.0527 11.272-8.2116 16.783-12.473 1.1499-0.8892 2.3117-1.7615 3.4544-2.6595 0.22764-0.179 0.4452-0.3711 0.67255-0.5504 13.552-10.686 26.594-22.007 39.069-33.902 0.11485-0.10957 0.22143-0.22656 0.33627-0.33632 2.5168-2.4041 5.0188-4.8244 7.4897-7.2756 0.52688-0.52287 1.0648-1.0343 1.5896-1.5591 0.70669-0.70668 1.4066-1.4294 2.1094-2.1399 1.2212-1.2348 2.4283-2.4833 3.6378-3.7296 1.1442-1.179 2.2903-2.357 3.4239-3.5461 1.2656-1.3274 2.5384-2.6645 3.7907-4.0047 1.194-1.2777 2.3643-2.5627 3.5461-3.8518 3.4983-3.8163 6.9728-7.6715 10.363-11.586 1.1636-1.3433 2.3037-2.7111 3.4544-4.0658 1.1304-1.3309 2.2449-2.663 3.3627-4.0047 0.9757-1.1713 1.9382-2.3362 2.9042-3.5156 0.24858-0.30315 0.4859-0.61336 0.73369-0.917 0.72018-0.88316 1.4556-1.7414 2.1704-2.6291 1.3627-1.6918 2.6923-3.3969 4.0353-5.1052 0.0176-0.0225 0.044-0.0386 0.0607-0.0611 1.0588-1.3474 2.1023-2.7083 3.1488-4.0658 0.90879-1.1792 1.8213-2.3595 2.7207-3.5461 0.49157-0.64868 0.97864-1.3059 1.4674-1.9565 0.29719-0.396 0.59037-0.79562 0.88658-1.1923 1.0238-1.371 2.0456-2.746 3.057-4.127 0.35285-0.48189 0.71852-0.9536 1.0699-1.4368 1.1124-1.5293 2.2048-3.0749 3.3016-4.616 0.0381-0.0529 0.0841-0.0998 0.12228-0.1529 0.96014-1.3502 1.8949-2.7065 2.8431-4.0659 1.0008-1.4349 2.0084-2.8654 2.9959-4.3104 0.98402-1.4398 1.9643-2.8913 2.9347-4.341 1.9442-2.9039 3.8575-5.8309 5.7472-8.7736 0.0792-0.12396 0.16513-0.243 0.24456-0.36684 0.86379-1.3472 1.7158-2.6802 2.5679-4.0353 0.90214-1.4348 1.8012-2.8668 2.6902-4.3104 0.0626-0.10096 0.1212-0.20465 0.18342-0.3057 0.52043-0.84628 1.043-1.6879 1.559-2.5374 0.36273-0.59673 0.70962-1.2052 1.07-1.8036 0.77672-1.2895 1.5571-2.586 2.3233-3.8824 1.0123-1.7121 2.0018-3.4424 2.9959-5.1664 0.10731-0.18616 0.2291-0.36402 0.33622-0.55026 0.76587-1.3319 1.5073-2.6657 2.2622-4.0048 0.82026-1.4548 1.6384-2.9084 2.4456-4.3715 0.0401-0.0724 0.0822-0.14194 0.12228-0.21394 0.5438-0.98676 1.0824-1.975 1.6203-2.9654 1.0548-1.9418 2.1167-3.883 3.1487-5.8388 0.89999-1.706 1.7772-3.4195 2.6597-5.1358 0.13099-0.25504 0.26677-0.50908 0.39746-0.76431 0.6701-1.3084 1.3272-2.629 1.987-3.9436 0.79091-1.5757 1.5778-3.154 2.354-4.7383 0.62647-1.279 1.2478-2.5673 1.8647-3.8518 0.14243-0.2967 0.28603-0.58959 0.42798-0.88648 0.71128-1.4882 1.4112-2.9676 2.1094-4.4634 0.90693-1.9422 1.8054-3.8842 2.6901-5.8388 0.1841-0.40686 0.3672-0.81548 0.5503-1.2228 0.4988-1.1092 1.0063-2.2189 1.4979-3.3322 0.6457-1.4622 1.262-2.9329 1.8953-4.4021 0.4978-1.1545 1.008-2.2957 1.498-3.4544 0.198-0.46819 0.384-0.93746 0.5808-1.4062 1.3683-3.261 2.6981-6.5509 4.0048-9.8436 0.3475-0.87582 0.6962-1.751 1.0393-2.629 0.5217-1.3344 1.0475-2.6652 1.5591-4.0046 0.093-0.24427 0.1823-0.48951 0.2751-0.73368 0.3224-0.84795 0.6294-1.6875 0.9477-2.5374 0.5448-1.4551 1.0875-2.9106 1.6202-4.3716 0.075-0.20612 0.1696-0.4049 0.2446-0.6114 0.2096-0.57697 0.4036-1.1645 0.6114-1.7424 0.3932-1.0936 0.7753-2.2048 1.1617-3.3016 0.4032-1.1448 0.827-2.2757 1.2228-3.4239 0.2461-0.71393 0.4904-1.4246 0.7337-2.1399 0.09-0.2661 0.1849-0.52855 0.275-0.79483 0.4186-1.237 0.8128-2.4886 1.2229-3.7296 0.5039-1.5258 1.0071-3.0539 1.4979-4.5855 0.052-0.16297 0.1008-0.32614 0.1528-0.48912 0.4259-1.3328 0.8376-2.6675 1.2535-4.0047 0.3891-1.251 0.7812-2.5051 1.1616-3.7601 0.5579-1.841 1.1118-3.6841 1.6508-5.5333 0.3532-1.2112 0.6945-2.4231 1.0394-3.6378 0.4821-1.6974 0.9402-3.4012 1.4062-5.1052 0.3209-1.1733 0.6651-2.3392 0.9783-3.5156 0.054-0.20288 0.099-0.40841 0.1528-0.6114 0.3752-1.4163 0.7668-2.8284 1.1311-4.2493 0.49-1.911 0.9364-3.828 1.4063-5.7472 0.2145-0.87621 0.4315-1.7512 0.6419-2.6289 0.3507-1.464 0.7004-2.9338 1.0394-4.4021 0.3667-1.5887 0.7171-3.1751 1.07-4.769 0.2348-1.0606 0.4744-2.1167 0.703-3.1793 0.2324-1.0803 0.4466-2.1579 0.6726-3.2405 0.1811-0.86702 0.3733-1.7298 0.5503-2.5984 0.4104-2.0155 0.804-4.0294 1.1922-6.0529 0.047-0.24319 0.076-0.4904 0.1223-0.73369 0.3193-1.6759 0.6437-3.3627 0.9476-5.0441 0.2319-1.2823 0.4496-2.5665 0.6726-3.8518 0.037-0.21414 0.085-0.42798 0.1223-0.64202 0.1947-1.1314 0.393-2.2594 0.5809-3.3932 0.2177-1.3147 0.4334-2.6259 0.6419-3.9436 0.4644-2.9368 0.8969-5.8826 1.3145-8.8348 0.085-0.60006 0.1616-1.2028 0.2446-1.8036 0.2695-1.9515 0.546-3.9115 0.7948-5.8695 0.1361-1.0706 0.2676-2.1374 0.3974-3.2099 0.1472-1.2156 0.2887-2.4198 0.428-3.6378 0.4855-4.2474 0.9267-8.5019 1.3145-12.778 0.02-0.21306 0.042-0.42896 0.061-0.64192 0.012-0.13276 0.019-0.26483 0.03-0.39747 0.1324-1.4903 0.2465-3.0001 0.3669-4.4938 0.1476-1.8322 0.2984-3.6657 0.4279-5.5026 0.1305-1.8513 0.2548-3.7076 0.3669-5.5639 0.1074-1.7793 0.2153-3.5658 0.3057-5.3497 0.097-1.9155 0.1673-3.8571 0.2445-5.7778 0.04-0.98911 0.088-1.9748 0.1223-2.9653 0.059-1.6731 0.1096-3.3366 0.1529-5.0135v-0.27509c0.024-0.96876 0.041-1.9342 0.061-2.9042 0.037-1.8717 0.072-3.7486 0.092-5.6249 0.019-1.8703 0.03-3.7502 0.03-5.6249 0-1.8775-0.012-3.7518-0.03-5.6249-0.019-1.8763-0.054-3.7532-0.092-5.6249-0.022-1.0594-0.034-2.1214-0.061-3.1793-0.043-1.6769-0.095-3.3404-0.1529-5.0135-0.02-0.58098-0.039-1.1622-0.061-1.7424-0.086-2.2694-0.1919-4.5551-0.3057-6.8172v-0.18342c-0.091-1.7929-0.1977-3.5614-0.3057-5.3497-0.1121-1.8563-0.2364-3.7126-0.3669-5.5639-0.1295-1.837-0.2803-3.6705-0.428-5.5026-0.1314-1.6322-0.2516-3.2629-0.3973-4.8912-0.02-0.21296-0.042-0.42886-0.061-0.64193-0.3878-4.2764-0.829-8.5309-1.3145-12.778-0.1393-1.2179-0.2808-2.4224-0.428-3.6378-0.1299-1.0734-0.2612-2.1384-0.3974-3.2099-0.2488-1.958-0.5253-3.918-0.7948-5.8695-0.045-0.32497-0.077-0.65347-0.1223-0.97825-0.038-0.27449-0.083-0.55104-0.1223-0.82534-0.4176-2.9523-0.8501-5.898-1.3145-8.8348-0.2079-1.3141-0.4248-2.6326-0.642-3.9436-0.2739-1.6535-0.5672-3.3038-0.8559-4.9523-0.1643-0.93815-0.3201-1.8762-0.4891-2.8125-0.3113-1.7244-0.6509-3.4476-0.9783-5.1664-0.046-0.24329-0.075-0.49049-0.1223-0.73368-0.3882-2.0235-0.7818-4.0374-1.1923-6.0529-0.1769-0.86849-0.3691-1.7314-0.5502-2.5984-0.226-1.0826-0.4402-2.1603-0.6726-3.2405-0.2286-1.0626-0.4682-2.1187-0.703-3.1793-0.095-0.42671-0.1797-0.85754-0.2752-1.2838-0.2606-1.1638-0.5268-2.324-0.7948-3.4851-0.339-1.4683-0.6887-2.9381-1.0394-4.4021-0.1759-0.73398-0.3408-1.4681-0.5197-2.201-0.035-0.14341-0.087-0.28458-0.1222-0.42789-0.2837-1.1589-0.5649-2.3291-0.856-3.4851-0.1898-0.75315-0.3575-1.5102-0.5503-2.2621-0.3643-1.4209-0.7559-2.833-1.1311-4.2493-0.054-0.20299-0.099-0.40852-0.1528-0.61141-0.3133-1.1763-0.6574-2.3422-0.9783-3.5156-0.1359-0.49714-0.26-1.0011-0.3974-1.4979-0.333-1.2044-0.6678-2.4063-1.0088-3.6073-0.3449-1.2147-0.6862-2.4266-1.0394-3.6378-0.539-1.8491-1.0929-3.6924-1.6508-5.5332-0.3804-1.255-0.7725-2.509-1.1616-3.7601-0.4659-1.4979-0.9279-3.0016-1.4063-4.4939-0.4908-1.5315-0.9941-3.0599-1.498-4.5855-0.4983-1.5086-0.9868-3.0217-1.4978-4.5244-0.3469-1.02-0.7173-2.0397-1.07-3.057-0.2868-0.82671-0.5656-1.6513-0.856-2.4762-0.01-0.0214-0.024-0.0406-0.03-0.061-0.2652-0.75276-0.5265-1.511-0.7949-2.2623-0.4019-1.125-0.8137-2.2411-1.2228-3.3626-0.077-0.2113-0.1366-0.43081-0.214-0.64202-0.4569-1.2482-0.9405-2.4856-1.4062-3.7296-0.4085-1.0907-0.8078-2.1836-1.2228-3.2711-0.5116-1.3394-1.0374-2.6702-1.5591-4.0046-0.1949-0.49881-0.3844-0.99987-0.5809-1.498-0.1487-0.37741-0.3088-0.75403-0.4585-1.131-1.2112-3.0521-2.4347-6.085-3.699-9.1099-0.1882-0.45029-0.3914-0.89539-0.5808-1.3451-0.1066-0.25326-0.1987-0.51103-0.3057-0.7643-0.4936-1.1672-0.9965-2.3219-1.498-3.4849-0.6317-1.4653-1.2511-2.9436-1.8953-4.4021-0.4916-1.1132-0.9991-2.2229-1.4979-3.3322-0.1831-0.40734-0.3662-0.81595-0.5503-1.2228-0.83761-1.8507-1.6798-3.6934-2.5373-5.5332-0.0479-0.10301-0.10467-0.20261-0.1528-0.30561-0.83621-1.7911-1.6825-3.5694-2.5374-5.3498-0.39355-0.81947-0.79473-1.6284-1.1922-2.4456-0.30737-0.63196-0.6074-1.2648-0.91711-1.8954-0.37026-0.75403-0.72683-1.5101-1.1005-2.2622-0.32948-0.66316-0.67666-1.3254-1.0089-1.987-0.65973-1.3145-1.317-2.6353-1.987-3.9436-0.1307-0.25522-0.26638-0.50927-0.39746-0.7643-0.13529-0.26287-0.26178-0.53207-0.39737-0.79473-0.66975-1.2974-1.3381-2.5913-2.0178-3.8825-0.0802-0.1529-0.16396-0.3056-0.24457-0.4586-1.032-1.9559-2.0938-3.897-3.1487-5.8389-0.57638-1.0611-1.1593-2.1225-1.7425-3.1793-0.80725-1.463-1.6254-2.9168-2.4456-4.3715-0.75364-1.3369-1.4977-2.675-2.2622-4.0047-0.10731-0.18665-0.22871-0.36371-0.33622-0.55026-0.522-0.90537-1.0322-1.8187-1.5591-2.7208-0.35667-0.61033-0.71089-1.2251-1.0699-1.8342-0.12052-0.20455-0.24593-0.40695-0.36684-0.6114-0.99272-1.6793-1.9857-3.3456-2.9959-5.0135-0.2113-0.34885-0.42994-0.69095-0.64202-1.0393-0.91926-1.5102-1.8485-3.024-2.7818-4.5244-0.27312-0.43894-0.55124-0.8765-0.82544-1.3146-0.6163-0.98441-1.2425-1.9545-1.8647-2.9347-0.43053-0.67803-0.85059-1.3721-1.284-2.0482-0.0792-0.12414-0.16484-0.2427-0.24456-0.36684-1.8407-2.8662-3.7021-5.6996-5.5944-8.529-0.18391-0.275-0.36587-0.55075-0.55027-0.82535-0.46662-0.69514-0.93647-1.3862-1.4062-2.0788-0.75247-1.1097-1.5018-2.2284-2.2622-3.3322-0.30286-0.43963-0.61297-0.87592-0.9171-1.3145-0.31167-0.4497-0.63469-0.89657-0.94763-1.3451-0.98128-1.4066-1.9714-2.8218-2.9654-4.2188-1.0968-1.5411-2.1892-3.0868-3.3016-4.616-0.35139-0.48307-0.71706-0.95487-1.0699-1.4368-1.0114-1.3811-2.0332-2.756-3.057-4.127-0.29621-0.39658-0.58939-0.79648-0.88658-1.1923-0.48873-0.65064-0.9758-1.3078-1.4674-1.9565-0.60984-0.80461-1.22-1.6138-1.8342-2.415-0.29113-0.37975-0.59429-0.75208-0.88649-1.1311-1.0467-1.3581-2.0895-2.7178-3.1488-4.0658-0.0176-0.0225-0.043-0.0386-0.0607-0.0611-0.49841-0.6341-0.99673-1.2635-1.4979-1.8954-0.58195-0.73359-1.157-1.4705-1.7425-2.201-0.26315-0.3283-0.531-0.65054-0.79483-0.97825-1.3794-1.7128-2.758-3.4093-4.1575-5.1053-0.54968-0.66599-1.0981-1.3237-1.6508-1.987-1.1187-1.3428-2.2314-2.6728-3.3627-4.0047-0.64183-0.75551-1.28-1.5101-1.9259-2.2621-0.48935-0.57002-0.97564-1.1443-1.4674-1.7119-0.0188-0.0215-0.0424-0.0387-0.0611-0.0612-1.121-1.2939-2.2605-2.5685-3.3933-3.8518-1.1544-1.3081-2.3184-2.6162-3.485-3.913-0.99419-1.1053-1.9928-2.2047-2.9959-3.3016-0.89431-0.97816-1.7888-1.9634-2.6902-2.9347-0.23586-0.25434-0.46677-0.51054-0.70312-0.7643-1.4016-1.505-2.831-3.0047-4.2492-4.4938-0.0645-0.0675-0.11886-0.14634-0.18342-0.21404-1.1358-1.1914-2.2774-2.365-3.4239-3.5461-0.96054-0.98969-1.9057-1.9829-2.8736-2.9652-0.25337-0.25729-0.5104-0.50771-0.76425-0.76431-0.7015-0.70932-1.4039-1.4038-2.1094-2.1094-0.71764-0.71764-1.4488-1.4263-2.1705-2.1398-2.282-2.2573-4.5876-4.5084-6.9089-6.7254-0.11465-0.10947-0.22162-0.22695-0.33627-0.33632-1.1446-1.0912-2.3006-2.1591-3.4544-3.2404-1.0794-1.0115-2.1529-2.0236-3.2404-3.0264-0.39726-0.36655-0.7938-0.73536-1.1922-1.1005-0.91495-0.83874-1.8307-1.6742-2.7513-2.5068-0.45537-0.41174-0.91892-0.81243-1.3757-1.2228-0.82828-0.74385-1.6434-1.4925-2.4762-2.2316-0.17863-0.15847-0.37144-0.30023-0.55027-0.4586-1.2625-1.1172-2.5178-2.2568-3.7907-3.3626-0.0492-0.043-0.10364-0.0793-0.15285-0.12228-0.15251-0.13255-0.30595-0.26521-0.45855-0.39746-1.1522-0.99801-2.3245-1.9767-3.485-2.9654-1.0278-0.87533-2.0533-1.7611-3.0876-2.6289-0.80431-0.67508-1.6067-1.347-2.415-2.0177-0.3553-0.29455-0.71398-0.59262-1.07-0.88648-0.47601-0.39277-0.95951-0.77047-1.4368-1.1617-2.3096-1.8932-4.6291-3.769-6.97-5.6249-0.39218-0.31089-0.76861-0.63782-1.1617-0.94763-0.22207-0.1752-0.45029-0.34502-0.67255-0.51974-1.3696-1.0764-2.7468-2.1463-4.127-3.2099-0.35687-0.27498-0.71241-0.55114-1.07-0.82534-0.80138-0.61444-1.6102-1.2242-2.415-1.8342-0.94117-0.71334-1.8666-1.4326-2.8125-2.1399-0.45449-0.33994-0.92009-0.67029-1.3757-1.0088-1.3066-0.97111-2.6279-1.9447-3.9436-2.9042-0.089-0.0646-0.18601-0.11856-0.27513-0.18342-1.0552-0.7687-2.1184-1.5315-3.1793-2.2927-0.47484-0.34082-0.93021-0.70004-1.4062-1.0395-0.94224-0.67146-1.8964-1.3212-2.843-1.987-0.41126-0.28927-0.81067-0.59849-1.2228-0.88649-1.3759-0.9621-2.7722-1.8933-4.1575-2.8431-1.446-0.99145-2.885-1.9873-4.341-2.9654-2.8982-1.9464-5.806-3.8549-8.7431-5.7472-1.4695-0.94665-2.9535-1.8793-4.4327-2.8125-1.28-0.80744-2.5647-1.6178-3.8518-2.415-0.40822-0.25278-0.8138-0.5124-1.2228-0.7643-0.90635-0.55799-1.8109-1.1285-2.7208-1.6813-1.8686-1.1354-3.7417-2.2491-5.6249-3.3627-0.012-0.01-0.0185-0.0235-0.0305-0.0303-3.0001-1.7738-6.0429-3.5098-9.0793-5.2275-0.80383-0.45469-1.6087-0.92503-2.415-1.3756-0.72097-0.40304-1.4475-0.79248-2.1705-1.1923-3.0738-1.7002-6.153-3.3711-9.2628-5.0135-2.7842-1.4705-5.5944-2.9173-8.4068-4.3409-0.31774-0.16082-0.62965-0.32889-0.94768-0.48912-0.88414-0.4454-1.7727-0.87377-2.6596-1.3145-1.3214-0.65689-2.6467-1.3103-3.9741-1.9565-0.66374-0.32321-1.3218-0.65777-1.9871-0.97825-0.28418-0.13695-0.57149-0.261-0.85596-0.39746-0.97218-0.46643-1.9593-0.91476-2.9347-1.3757-0.71744-0.33877-1.4208-0.70346-2.1399-1.0393-0.029-0.0137-0.0627-0.01761-0.0917-0.03033-1.4636-0.6833-2.9314-1.3468-4.4021-2.0176-4.8112-2.1945-9.6666-4.3311-14.551-6.3891-1.6279-0.68595-3.2552-1.3777-4.8912-2.0483-1.6367-0.67088-3.2771-1.3316-4.9218-1.987-0.61189-0.24388-1.2212-0.49206-1.8342-0.73368-1.0346-0.40812-2.0805-0.79042-3.1182-1.1923-1.6456-0.63723-3.2991-1.2736-4.9524-1.8954-1.482-0.55731-2.9752-1.1365-4.4632-1.6813-1.8387-0.67333-3.6852-1.3332-5.5332-1.9871-1.1567-0.4094-2.3248-0.79042-3.485-1.1922-0.52043-0.18029-1.038-0.37154-1.5591-0.55036v-25.106h-355.62v25.106c-1.3986 0.47983-2.7947 0.97678-4.1881 1.4674-1.9579 0.68947-3.9219 1.3678-5.8695 2.0788-0.15417 0.05674-0.30458 0.12698-0.45855 0.18352-1.5116 0.5532-3.0192 1.115-4.5244 1.6813-2.672 1.0052-5.3269 2.0419-7.9788 3.0876-2.0723 0.81693-4.1459 1.6346-6.2058 2.4761-1.8487 0.7552-3.6947 1.5179-5.5332 2.2928-1.9682 0.82936-3.9131 1.6856-5.8695 2.5373-0.29221 0.12727-0.59453 0.23908-0.88654 0.36684-2.0354 0.8904-4.0609 1.8063-6.0835 2.7208-3.7814 1.7094-7.5453 3.4353-11.28 5.2275-0.26647 0.12786-0.52864 0.26902-0.79482 0.39746-3.9919 1.9233-7.9545 3.8833-11.892 5.9-0.49216 0.25209-0.97609 0.51074-1.4674 0.76421-1.4679 0.7575-2.9421 1.5225-4.4021 2.2928-0.0927 0.04891-0.18239 0.10389-0.27513 0.1528-0.2337 0.12355-0.46951 0.24319-0.70311 0.36684-1.6283 0.8634-3.2422 1.75-4.8607 2.6291-1.9428 1.055-3.8798 2.1013-5.8083 3.1793-1.9245 1.0757-3.837 2.1728-5.7472 3.271-1.912 1.0994-3.8191 2.2105-5.7166 3.3322-0.0273 0.0156-0.0646 0.0147-0.0917 0.0303-1.5128 0.89451-3.0211 1.8122-4.5244 2.7207-0.70746 0.42769-1.404 0.85323-2.1093 1.284-1.5328 0.93588-3.0627 1.8924-4.5855 2.843-3.7061 2.3134-7.3898 4.6627-11.036 7.0618-1.462 0.96161-2.9196 1.9288-4.3716 2.9041-0.39639 0.26627-0.79659 0.52756-1.1923 0.79482-1.8217 1.2305-3.6356 2.4778-5.4414 3.7296-1.808 1.2531-3.5885 2.5165-5.3804 3.7907-1.7917 1.2739-3.5744 2.557-5.3498 3.8518-1.7873 1.3034-3.579 2.6192-5.3498 3.9435-3.5 2.618-6.9591 5.28-10.394 7.9789-0.23351 0.18352-0.46975 0.36636-0.70307 0.55027-1.3682 1.0787-2.7388 2.149-4.0964 3.2404-1.8331 1.4735-3.6583 2.9667-5.4721 4.4632-1.6921 1.3964-3.3691 2.8026-5.044 4.2187-0.51974 0.43942-1.041 0.87337-1.5591 1.3145-2.8208 2.4032-5.605 4.8474-8.3761 7.3064-1.8396 1.6323-3.6853 3.2654-5.5026 4.9218-1.4169 1.2916-2.8154 2.607-4.2188 3.913-1.6068 1.4957-3.2107 2.9792-4.7995 4.4939-0.12023 0.11464-0.24671 0.22157-0.36684 0.33632-0.89118 0.85098-1.774 1.7108-2.6597 2.5679-0.56826 0.55005-1.1459 1.0983-1.7119 1.6507-1.0466 1.022-2.0796 2.0574-3.1181 3.0876-0.52003 0.51574-1.0106 1.0414-1.5286 1.559-1.3248 1.3248-2.6627 2.6359-3.974 3.9742-0.22157 0.22586-0.45156 0.44627-0.67264 0.67243-1.5305 1.5675-3.043 3.1529-4.5549 4.7384-0.0697 0.0734-0.14429 0.14087-0.21404 0.21403-1.2028 1.2627-2.3858 2.547-3.5767 3.8212-1.1882 1.2714-2.37 2.5386-3.5461 3.8212-0.48717 0.5313-0.98226 1.0565-1.4674 1.5896-0.10203 0.11232-0.20377 0.22403-0.3057 0.33633-1.3619 1.4994-2.7204 3.01-4.0659 4.5244-0.06202 0.0704-0.1213 0.14399-0.18332 0.21403-1.4834 1.6713-2.9392 3.3545-4.4021 5.044-1.1397 1.316-2.2661 2.6166-3.3934 3.9435-1.4195 1.671-2.8189 3.3561-4.2187 5.0441-0.50301 0.60661-0.99752 1.2253-1.498 1.8342-0.32106 0.39071-0.65816 0.77008-0.97824 1.1617-0.82769 1.013-1.6554 2.0381-2.4761 3.057-0.27293 0.33885-0.5532 0.6694-0.82544 1.0088-2.6162 3.2641-5.1916 6.5497-7.7342 9.8742-1.1966 1.5646-2.3661 3.13-3.5461 4.7078-0.48902 0.65385-0.98118 1.3004-1.4674 1.9565-0.82114 1.108-1.6326 2.2176-2.4456 3.3322-2.2734 3.1167-4.5167 6.2495-6.7254 9.4156-0.30981 0.44383-0.60857 0.89999-0.9171 1.3451-1.2507 1.8041-2.5 3.6218-3.7296 5.4414-1.0038 1.4858-2.0064 2.9672-2.9959 4.4633-0.22333 0.3376-0.4499 0.67059-0.67254 1.0088-0.1666 0.25296-0.32302 0.51104-0.48912 0.7642-0.16532 0.2522-0.32419 0.51192-0.48912 0.76431-0.87201 1.3341-1.738 2.6627-2.5984 4.0046-1.8106 2.8236-3.5901 5.6399-5.3498 8.4986-0.55662 0.90401-1.0993 1.8132-1.6508 2.7207-1.1381 1.873-2.2771 3.768-3.3932 5.6554-0.12815 0.21659-0.2698 0.42545-0.39746 0.64203-0.88903 1.5083-1.7541 3.0069-2.629 4.5244-0.10477 0.18176-0.20113 0.36841-0.3057 0.55026-0.76851 1.3363-1.5353 2.6613-2.2927 4.0047-0.19516 0.34602-0.3865 0.6929-0.58088 1.0393-0.13108 0.2339-0.26667 0.46928-0.39736 0.70317-0.53305 0.95321-1.0624 1.9169-1.5896 2.8736-0.02837 0.0519-0.06359 0.10076-0.09195 0.15289-0.81537 1.4802-1.613 2.9748-2.4151 4.4632-1.1642 2.161-2.3184 4.3334-3.4544 6.5115-0.48805 0.93579-0.98451 1.8735-1.4673 2.8125-0.12561 0.24406-0.24182 0.48941-0.36684 0.73369-1.0112 1.9738-2.0081 3.943-2.9959 5.9306-0.45498 0.91534-0.92571 1.833-1.3758 2.7513-0.40881 0.83473-0.81762 1.6697-1.2228 2.5068-0.21678 0.44853-0.42632 0.89597-0.64183 1.3451-0.56787 1.1818-1.1219 2.3596-1.6815 3.5461-1.5744 3.3398-3.1075 6.7117-4.6159 10.088-0.2516 0.56278-0.51466 1.1176-0.7644 1.6813-0.32057 0.72478-0.6297 1.4441-0.94753 2.1705-0.89294 2.0403-1.7606 4.0915-2.629 6.1445-0.8137 1.9234-1.623 3.8434-2.4152 5.7778-0.049891 0.12286-0.10252 0.24387-0.1527 0.36684-0.020543 0.0509-0.00978 0.10203-0.030326 0.15289-1.3369 3.2741-2.6382 6.5687-3.9131 9.8741-0.5622 1.4577-1.1313 2.9079-1.6814 4.3715-0.53989 1.4363-1.0618 2.8686-1.5896 4.3105-0.49196 1.3427-0.98597 2.6876-1.4674 4.0353-0.27381 0.76616-0.55486 1.5251-0.82544 2.2927-0.58832 1.6706-1.139 3.3356-1.7119 5.0135-0.14996 0.44003-0.33994 0.87427-0.48912 1.3146-0.15036 0.445-0.24798 0.89959-0.39736 1.3451-0.56455 1.6822-1.1326 3.3548-1.6814 5.044-0.60407 1.861-1.188 3.7248-1.773 5.5944-0.08609 0.27683-0.21932 0.54821-0.3058 0.82543-0.11387 0.36606-0.19252 0.73398-0.3056 1.1005-0.54811 1.7753-1.1201 3.5667-1.6509 5.3497-0.64163 2.157-1.2489 4.3128-1.8647 6.4809-0.34131 1.201-0.67567 2.4029-1.0088 3.6073-0.26686 0.96504-0.53295 1.9369-0.79492 2.9042-0.20641 0.76303-0.40793 1.5282-0.6114 2.2927-0.37672 1.417-0.76528 2.8279-1.131 4.2492-0.08119 0.31471-0.16425 0.63294-0.24456 0.94774-0.48071 1.8819-0.9756 3.7658-1.4368 5.6554-0.17872 0.73301-0.31314 1.4672-0.48912 2.201-0.3507 1.464-0.70033 2.9338-1.0393 4.4021-0.26804 1.161-0.53422 2.3212-0.79492 3.4851-0.23458 1.0478-0.50487 2.0986-0.73368 3.1487-0.15515 0.71294-0.27528 1.4259-0.42788 2.1399-0.32086 1.502-0.63938 3.0179-0.94772 4.5244-0.0538 0.26325-0.09919 0.53139-0.1528 0.79483-0.40118 1.9752-0.78181 3.9478-1.1618 5.9306-0.30032 1.5676-0.59947 3.1355-0.88649 4.7078-0.12228 0.6694-0.2472 1.3473-0.36684 2.0176-0.20005 1.1192-0.38768 2.2412-0.58088 3.3627-0.19428 1.1287-0.42368 2.2623-0.6114 3.3932-0.0098 0.0606 0.0098 0.12228 0 0.18352-0.36391 2.2007-0.7015 4.3935-1.0393 6.6032-0.02935 0.19341-0.09293 0.38728-0.12228 0.58079-0.3149 2.0746-0.62569 4.1541-0.9172 6.2363-0.045 0.32476-0.07728 0.65327-0.12228 0.97824-0.26931 1.9513-0.54596 3.9116-0.79473 5.8695-0.13637 1.0715-0.26726 2.1365-0.39746 3.2099-0.14625 1.2085-0.28946 2.4268-0.42798 3.6378v0.12228c-0.481 4.214-0.92943 8.4136-1.3146 12.656-0.0313 0.34463-0.06065 0.69455-0.09195 1.0394-0.13285 1.4959-0.24593 2.9945-0.36684 4.4938-0.14762 1.8322-0.29846 3.6657-0.42798 5.5026-0.1304 1.8513-0.25464 3.7076-0.36684 5.5639-0.108 1.7881-0.21463 3.5569-0.3057 5.3497v0.18343c-0.11367 2.2619-0.21932 4.548-0.3057 6.8172-0.0225 0.5803-0.01076 1.1615-0.03032 1.7424-0.0587 1.673-0.14008 3.3367-0.18352 5.0135v0.27509c-0.02446 0.96631-0.01174 1.9368-0.03033 2.9042-0.03815 1.8717-0.07337 3.7486-0.09196 5.6249-0.01859 1.873-0.03032 3.7475-0.03032 5.6249s0.01174 3.752 0.03032 5.6249c0.01859 1.8763 0.0538 3.7532 0.09196 5.6249 0.01957 0.96993 0.0098 1.9355 0.03033 2.9042v0.27508c0.04304 1.6768 0.12551 3.3405 0.18352 5.0135 0.02054 0.58293 0.0098 1.16 0.03032 1.7424 0.01565 0.4092 0.045 0.814 0.06065 1.2228 0.07728 1.9206 0.14752 3.8625 0.24456 5.7778 0.09098 1.7839 0.19839 3.5704 0.3057 5.3497 0.1122 1.8563 0.23644 3.7125 0.36684 5.5639 0.12952 1.837 0.28036 3.6705 0.42798 5.5026 0.12052 1.4936 0.23468 3.0036 0.36684 4.4938 0.0313 0.34727 0.06065 0.6923 0.09196 1.0394 0.38514 4.2424 0.83356 8.4422 1.3146 12.656v0.12228c0.1394 1.218 0.28085 2.4223 0.42798 3.6378 0.13001 1.0726 0.26109 2.1394 0.39746 3.2099 0.24877 1.9579 0.52542 3.9182 0.79473 5.8695 0.045 0.32448 0.07728 0.65396 0.12228 0.97825 0.03913 0.27557 0.08315 0.55006 0.12228 0.82534 0.0098 0.0411 0.02446 0.0813 0.03032 0.12228 0.25004 1.764 0.49734 3.5303 0.7643 5.2887 0.02935 0.19457 0.06163 0.38641 0.09195 0.58079 0.33779 2.2096 0.67538 4.4025 1.0394 6.6032 0.0098 0.0607 0.02054 0.12228 0.03032 0.18352 0.18812 1.1338 0.38602 2.2618 0.58088 3.3932 0.19262 1.1178 0.38161 2.2473 0.58088 3.3627 0.12032 0.67392 0.24388 1.3446 0.36684 2.0176 0.2879 1.578 0.58519 3.1345 0.88649 4.7078 0.03913 0.20367 0.08315 0.40783 0.12228 0.6114 0.39384 2.0422 0.77575 4.08 1.1923 6.114 0.30942 1.5128 0.62568 3.0162 0.94763 4.5244 0.15241 0.71333 0.30345 1.4276 0.4585 2.1399 0.2295 1.0527 0.46809 2.0984 0.70316 3.1487 0.26129 1.166 0.5263 2.3219 0.79482 3.4851 0.33916 1.4684 0.68859 2.9381 1.0394 4.4021 0.1753 0.73065 0.3418 1.4714 0.51964 2.201 0.03522 0.14351 0.08706 0.28438 0.12228 0.42789 0.28516 1.1638 0.56376 2.3241 0.85596 3.4851 0.14586 0.57785 0.28056 1.1653 0.42808 1.7425 0.08022 0.31656 0.16298 0.63116 0.24456 0.94772 0.36557 1.421 0.75432 2.8325 1.131 4.2492 0.20318 0.76352 0.40509 1.5307 0.6114 2.2927 0.26285 0.97032 0.52718 1.936 0.79482 2.9042 0.33339 1.2053 0.66736 2.4053 1.0089 3.6073 0.61581 2.1681 1.2536 4.3238 1.8953 6.4809 0.02152 0.0714 0.04011 0.14293 0.06163 0.21395 0.61972 2.0802 1.2517 4.1667 1.8953 6.2363 0.08609 0.27685 0.1887 0.5488 0.27518 0.82545 0.58499 1.8696 1.1689 3.7333 1.7731 5.5944 0.5487 1.6893 1.1169 3.3618 1.6814 5.044 0.14996 0.44686 0.27684 0.89871 0.42788 1.3451 0.14967 0.44149 0.30815 0.87348 0.4586 1.3146 0.57051 1.6704 1.1261 3.3501 1.7119 5.0135 0 0.0117 0.02641 0.0188 0.03033 0.0305 0.26618 0.7555 0.52551 1.5083 0.79492 2.2622 0.48228 1.35 0.97463 2.6902 1.4674 4.0353 0.45244 1.2358 0.91437 2.4673 1.3756 3.699 0.62441 1.6671 1.2554 3.3235 1.8954 4.9829 0.49127 1.2737 0.9669 2.5521 1.4675 3.8213 0.81879 2.0759 1.6633 4.1421 2.5068 6.2057 0.64554 1.5797 1.2965 3.1662 1.9565 4.7383 0.6835 1.6292 1.3797 3.2703 2.0788 4.8912 0.697 1.6168 1.3972 3.2214 2.1092 4.8302 2.6411 5.9639 5.3783 11.881 8.2235 17.731 0.4405 0.90595 0.8995 1.8174 1.3451 2.7207 0.24642 0.49979 0.4856 0.99909 0.73368 1.4979 0.32155 0.64721 0.65406 1.2803 0.97825 1.926 0.04109 0.0812 0.08119 0.16318 0.12228 0.24457 0.62823 1.2501 1.2575 2.4849 1.8954 3.7296 1.7262 3.37 3.4949 6.7285 5.2885 10.058 0.80206 1.4885 1.5997 2.9831 2.4151 4.4632 0.02837 0.0518 0.06261 0.10096 0.09195 0.1529 0.52894 0.95946 1.0549 1.9177 1.5896 2.8736 0.32106 0.57442 0.65503 1.1388 0.97824 1.7119 0.29289 0.51945 0.59194 1.0406 0.88649 1.5591 0.46936 0.82594 0.93276 1.6528 1.4062 2.4761 0.10428 0.18137 0.20122 0.36899 0.3057 0.55026 0.87123 1.5109 1.7438 3.0226 2.629 4.5244 0.12747 0.21629 0.2696 0.42573 0.39746 0.64202 1.0081 1.705 2.0309 3.412 3.057 5.1052 1.2577 2.0752 2.5061 4.1486 3.7907 6.2057 0.31314 0.50184 0.63283 0.99732 0.94763 1.498 0.9308 1.48 1.868 2.9621 2.8125 4.4327 0.78504 1.2222 1.59 2.4222 2.3845 3.6378 0.33074 0.50605 0.64594 1.0236 0.97825 1.5285 2.3379 3.5514 4.7358 7.0841 7.1534 10.577 0.08315 0.12052 0.16102 0.24642 0.24456 0.36684 1.2521 1.8059 2.5176 3.5903 3.7907 5.3804 2.8018 3.939 5.6572 7.8477 8.5596 11.708 0.28379 0.37761 0.5712 0.75433 0.85596 1.1312 2.9783 3.9405 5.9979 7.8521 9.0794 11.708 0.18029 0.22597 0.36948 0.44706 0.55016 0.67264 0.96739 1.2068 1.9575 2.4089 2.9347 3.6072 0.26628 0.32654 0.52776 0.65249 0.79492 0.97825 0.67773 0.8273 1.3656 1.653 2.0482 2.4762 1.9831 2.3918 3.9996 4.7655 6.0224 7.1229 1.6676 1.9434 3.319 3.8887 5.0135 5.8082 2.305 2.612 4.6467 5.1976 7.0005 7.7649 0.94694 1.0326 1.8884 2.0621 2.843 3.0875 0.23155 0.24867 0.47122 0.4854 0.70316 0.73368 2.3764 2.5428 4.7602 5.0535 7.184 7.5509 1.212 1.2486 2.4445 2.4924 3.6684 3.7295 1.0003 1.0112 1.9879 2.0231 2.9958 3.0265 0.22558 0.22441 0.44667 0.44853 0.67264 0.67255 1.0361 1.0278 2.0739 2.0678 3.1181 3.0876 0.20123 0.19624 0.41008 0.38475 0.6114 0.58079 2.02 1.966 4.0642 3.904 6.114 5.8388 0.7732 0.72987 1.5462 1.4759 2.3233 2.2011 0.16376 0.1528 0.32546 0.30609 0.48912 0.4586 1.2971 1.2072 2.6046 2.3819 3.913 3.5767 0.30785 0.28105 0.60856 0.5757 0.9172 0.85596 0.49607 0.45097 1.0001 0.89617 1.4979 1.3451 1.1312 1.0208 2.2534 2.0459 3.3933 3.057 0.1616 0.14361 0.32703 0.28457 0.48912 0.42808 1.4862 1.3154 2.9627 2.6133 4.4632 3.913 1.1376 0.98509 2.2784 1.9586 3.4239 2.9346 0.52424 0.44657 1.0332 0.90048 1.5591 1.3451 0.80118 0.67734 1.6099 1.3448 2.4151 2.0176 1.3382 1.1185 2.686 2.2263 4.0353 3.3322 1.229 1.0074 2.461 2.0294 3.6989 3.0264 0.11876 0.096 0.24799 0.1795 0.36685 0.2751 1.3576 1.0914 2.7282 2.1617 4.0964 3.2405 1.3621 1.0739 2.7239 2.1486 4.0964 3.2098 0.60241 0.4656 1.1991 0.9428 1.8037 1.4062 0.78152 0.599 1.569 1.1781 2.3539 1.7731 1.3932 1.0562 2.7846 2.1056 4.1881 3.1488 1.3293 0.9878 2.6663 1.9892 4.0047 2.9652 0.0707 0.052 0.14312 0.1014 0.21404 0.1529 1.7062 1.2431 3.4146 2.4752 5.1358 3.6991 1.1194 0.7959 2.2371 1.566 3.3626 2.3538 0.6699 0.4688 1.3456 0.9404 2.0177 1.4063 1.4089 0.9767 2.8306 1.9404 4.2492 2.9041 0.39961 0.2715 0.79189 0.5549 1.1922 0.8254 0.39482 0.2667 0.79688 0.5291 1.1923 0.7948 1.4309 0.9612 2.8701 1.9257 4.3104 2.8736 0.0191 0.013 0.0422 0.018 0.0612 0.03 0.57237 0.3766 1.138 0.7566 1.7119 1.1311 1.1586 0.7563 2.3202 1.5144 3.485 2.2622 0.0926 0.06 0.18249 0.124 0.27513 0.1834 1.2606 0.808 2.5231 1.5864 3.7907 2.3845 0.59165 0.3724 1.1799 0.7609 1.7731 1.131 1.1186 0.6983 2.2387 1.3885 3.3627 2.0788 1.1108 0.6823 2.2162 1.3431 3.3322 2.0177 2.9907 1.8077 6.021 3.5978 9.0488 5.3498 0.43063 0.2491 0.85254 0.5161 1.284 0.7643 1.9121 1.0993 3.8207 2.1636 5.7472 3.2403 1.6258 0.9088 3.2554 1.7977 4.8912 2.6902 0.30893 0.1685 0.60779 0.3518 0.91711 0.5197 0.30472 0.1655 0.61209 0.3242 0.9171 0.4892 1.6352 0.8841 3.2766 1.7611 4.9218 2.629 1.4661 0.7735 2.9282 1.532 4.4021 2.2928 0.48931 0.2525 0.97717 0.5132 1.4674 0.7642 1.0734 0.5498 2.1629 1.0773 3.2404 1.6202 1.5656 0.7888 3.1337 1.5797 4.7078 2.3539 1.5776 0.776 3.1522 1.5622 4.7384 2.3234 1.2208 0.5856 2.4427 1.1654 3.6684 1.7425 0.42837 0.2016 0.85498 0.4106 1.284 0.6114 0.0909 0.042 0.18415 0.08 0.27513 0.1223 1.44 0.6723 2.8941 1.3268 4.341 1.987 1.6064 0.733 3.2155 1.4526 4.8301 2.1705 0.98431 0.4376 1.978 0.8826 2.9653 1.3145 0.67283 0.2943 1.3434 0.5949 2.0176 0.8866 1.5754 0.6814 3.1554 1.3505 4.7384 2.0175 0.81213 0.3423 1.6315 0.6704 2.4456 1.0089 2.7509 1.1437 5.5112 2.2934 8.2845 3.3932 0.33573 0.1332 0.67279 0.265 1.0088 0.3975 1.005 0.3963 2.0186 0.7711 3.0264 1.1617 1.6482 0.6386 3.2964 1.2723 4.9524 1.8953 1.5086 0.5676 3.0095 1.1574 4.5244 1.7119 0.15085 0.055 0.30761 0.098 0.45856 0.1529 1.6244 0.593 3.2597 1.1644 4.8912 1.7425 0.0426 0.015 0.0797 0.047 0.12229 0.061 0.28515 0.101 0.57061 0.2053 0.85596 0.3057 1.3964 0.4918 2.7866 0.9561 4.1881 1.4369v26.125h355.62zm-177.79-247.02c-164.24 0-297.39-133.15-297.39-297.39s133.15-297.39 297.39-297.39 297.39 133.15 297.39 297.39-133.15 297.39-297.39 297.39z" stroke="url(#radialGradient3912)" stroke-linecap="round" stroke-width="9.7825" fill="#111"/>
      <g id="g4219" transform="matrix(1.0139 0 0 1.0139 -2466.2 -158.94)">
        <path id="path3771" opacity=".30698" d="m2926.6 538.5c-102.77 0-186.09 83.289-186.09 186.06s83.32 186.09 186.09 186.09 186.09-83.321 186.09-186.09-83.321-186.06-186.09-186.06zm0 114.31c39.63 0 71.75 32.12 71.75 71.75s-32.12 71.781-71.75 71.781-71.75-32.151-71.75-71.781 32.12-71.75 71.75-71.75z" stroke="#f3eedf" stroke-width="2" fill="url(#radialGradient3914)"/>
        <g id="g4205">
          <path id="path3768" stroke="#6a5555" stroke-width=".88555" fill="#b3b3b3" d="m2926.6 195.78c-292.05 0-528.81 236.73-528.81 528.78s236.77 528.81 528.81 528.81c292.05 0 528.78-236.77 528.78-528.81 0-292.05-236.73-528.78-528.78-528.78zm0 349.59c98.961 0 179.19 80.227 179.19 179.19 0 98.961-80.227 179.19-179.19 179.19-98.961 0-179.19-80.227-179.19-179.19 0-98.961 80.227-179.19 179.19-179.19z"/>
          <g id="g4066" transform="translate(2421.8 150.01)">
            <g id="g4059">
              <path id="path13935" opacity=".4" fill="url(#linearGradient3916)" d="m504.88 45.774c-292.05 0-528.81 236.73-528.81 528.78s236.77 528.81 528.81 528.81c292.05 0 528.78-236.77 528.78-528.81 0-292.05-236.73-528.78-528.78-528.78zm0 349.59c98.961 0 179.19 80.227 179.19 179.19 0 98.961-80.227 179.19-179.19 179.19-98.961 0-179.19-80.227-179.19-179.19 0-98.961 80.226-179.19 179.19-179.19z"/>
              <g id="g4052">
                <g id="g4046">
                  <path id="path3775" opacity=".15814" d="m698.25 423.41c-79.687 0-144.28 64.594-144.28 144.28 0 79.687 64.594 144.28 144.28 144.28 79.687 0 144.28-64.594 144.28-144.28 0-79.687-64.594-144.28-144.28-144.28zm0 72.531c39.63 0 71.75 32.12 71.75 71.75s-32.12 71.781-71.75 71.781-71.75-32.151-71.75-71.781 32.12-71.75 71.75-71.75z" transform="translate(-193.37 6.868)" stroke="#e3eace" stroke-width="3" fill="none"/>
                  <path id="path5378" opacity=".37" fill="url(#linearGradient3918)" d="m504.85 1103.4c292.05 0 528.81-236.73 528.81-528.78s-236.77-528.81-528.81-528.81c-292.05 0-528.78 236.77-528.78 528.81 0 292.05 236.73 528.78 528.78 528.78zm0-349.59c-98.961 0-179.19-80.227-179.19-179.19 0-98.961 80.227-179.19 179.19-179.19 98.961 0 179.19 80.227 179.19 179.19 0 98.961-80.226 179.19-179.19 179.19z"/>
                </g>
              </g>
            </g>
          </g>
        </g>
      </g>
      <rect id="glare" opacity=".29302" rx="7.6924" ry="7.7728" height="1111.2" width="1251" y="20.532" x="-179.83" fill="url(#linearGradient3920)"/>
    </g>
  </g>
  <metadata>
    <rdf:RDF>
      <cc:Work>
        <dc:format>image/svg+xml</dc:format>
        <dc:type rdf:resource="http://purl.org/dc/dcmitype/StillImage"/>
        <cc:license rdf:resource="http://creativecommons.org/licenses/publicdomain/"/>
        <dc:publisher>
          <cc:Agent rdf:about="http://openclipart.org/">
            <dc:title>Openclipart</dc:title>
          </cc:Agent>
        </dc:publisher>
        <dc:title>Compact disc, CD, kompaktas</dc:title>
        <dc:date>2013-10-10T22:28:46</dc:date>
        <dc:description>Compact disc, CD, kompaktas, dvd, 50k</dc:description>
        <dc:source>https://openclipart.org/detail/184759/compact-disc-cd-kompaktas-by-keistutis-184759</dc:source>
        <dc:creator>
          <cc:Agent>
            <dc:title>Keistutis</dc:title>
          </cc:Agent>
        </dc:creator>
        <dc:subject>
          <rdf:Bag>
            <rdf:li>CD</rdf:li>
            <rdf:li>Compact disc</rdf:li>
            <rdf:li>dvd</rdf:li>
            <rdf:li>kompaktas</rdf:li>
          </rdf:Bag>
        </dc:subject>
      </cc:Work>
      <cc:License rdf:about="http://creativecommons.org/licenses/publicdomain/">
        <cc:permits rdf:resource="http://creativecommons.org/ns#Reproduction"/>
        <cc:permits rdf:resource="http://creativecommons.org/ns#Distribution"/>
        <cc:permits rdf:resource="http://creativecommons.org/ns#DerivativeWorks"/>
      </cc:License>
    </rdf:RDF>
  </metadata>
</svg>