<?xml version="1.0" encoding="UTF-8" standalone="no"?>
<!-- Created with Inkscape (http://www.inkscape.org/) -->

<svg
   xmlns:dc="http://purl.org/dc/elements/1.1/"
   xmlns:cc="http://creativecommons.org/ns#"
   xmlns:rdf="http://www.w3.org/1999/02/22-rdf-syntax-ns#"
   xmlns:svg="http://www.w3.org/2000/svg"
   xmlns="http://www.w3.org/2000/svg"
   xmlns:xlink="http://www.w3.org/1999/xlink"
   xmlns:sodipodi="http://sodipodi.sourceforge.net/DTD/sodipodi-0.dtd"
   xmlns:inkscape="http://www.inkscape.org/namespaces/inkscape"
   width="1300"
   height="1300"
   id="svg2"
   version="1.1"
   inkscape:version="0.92.3 (2405546, 2018-03-11)"
   sodipodi:docname="CD-DVD.svg"
   inkscape:export-filename="/home/kostas/Desktop/cd-dvd.png"
   inkscape:export-xdpi="30"
   inkscape:export-ydpi="30">
  <title
     id="title3114">CD-DVD</title>
  <defs
     id="defs4">
    <linearGradient
       id="linearGradient3973">
      <stop
         style="stop-color:#ffffff;stop-opacity:0.34782609;"
         offset="0"
         id="stop3975" />
      <stop
         id="stop3982"
         offset="0.95999998"
         style="stop-color:#ffffff;stop-opacity:0.26956522;" />
      <stop
         style="stop-color:#ffffff;stop-opacity:0.13913043;"
         offset="1"
         id="stop3977" />
    </linearGradient>
    <linearGradient
       id="linearGradient7019">
      <stop
         id="stop7021"
         offset="0"
         style="stop-color:#ffc988;stop-opacity:1" />
      <stop
         style="stop-color:#be88e4;stop-opacity:1;"
         offset="0.27419356"
         id="stop7027" />
      <stop
         id="stop7023"
         offset="1"
         style="stop-color:#96ff88;stop-opacity:1;" />
    </linearGradient>
    <inkscape:path-effect
       is_visible="true"
       id="path-effect12103"
       effect="spiro" />
    <inkscape:path-effect
       is_visible="true"
       id="path-effect12100"
       effect="spiro" />
    <inkscape:path-effect
       is_visible="true"
       id="path-effect12097"
       effect="spiro" />
    <inkscape:path-effect
       is_visible="true"
       id="path-effect12094"
       effect="spiro" />
    <inkscape:path-effect
       is_visible="true"
       id="path-effect12091"
       effect="spiro" />
    <inkscape:path-effect
       is_visible="true"
       id="path-effect12088"
       effect="spiro" />
    <inkscape:path-effect
       effect="spiro"
       id="path-effect12085"
       is_visible="true" />
    <inkscape:path-effect
       effect="spiro"
       id="path-effect12082"
       is_visible="true" />
    <inkscape:path-effect
       effect="spiro"
       id="path-effect12079"
       is_visible="true" />
    <linearGradient
       id="linearGradient4196">
      <stop
         style="stop-color:#fffeb6;stop-opacity:1;"
         offset="0"
         id="stop4198" />
      <stop
         id="stop7025"
         offset="0.54838711"
         style="stop-color:#d6e0da;stop-opacity:1;" />
      <stop
         style="stop-color:#aec3fe;stop-opacity:1"
         offset="1"
         id="stop4200" />
    </linearGradient>
    <linearGradient
       id="linearGradient3912">
      <stop
         style="stop-color:#ffffff;stop-opacity:1;"
         offset="0"
         id="stop3914" />
      <stop
         id="stop3920"
         offset="0.98409325"
         style="stop-color:#fffee3;stop-opacity:0.49803922;" />
      <stop
         style="stop-color:#fffec8;stop-opacity:0;"
         offset="1"
         id="stop3916" />
    </linearGradient>
    <linearGradient
       id="linearGradient3995">
      <stop
         style="stop-color:#5f5f5f;stop-opacity:1;"
         offset="0"
         id="stop3997" />
      <stop
         style="stop-color:#a4a4a4;stop-opacity:1;"
         offset="1"
         id="stop3999" />
    </linearGradient>
    <linearGradient
       id="linearGradient3959">
      <stop
         style="stop-color:#000000;stop-opacity:1;"
         offset="0"
         id="stop3961" />
      <stop
         id="stop3932"
         offset="0.04257783"
         style="stop-color:#111111;stop-opacity:1;" />
      <stop
         id="stop3929"
         offset="0.85155684"
         style="stop-color:#111111;stop-opacity:1;" />
      <stop
         style="stop-color:#000000;stop-opacity:1;"
         offset="1"
         id="stop3963" />
    </linearGradient>
    <linearGradient
       id="linearGradient3929">
      <stop
         style="stop-color:#d5d5d5;stop-opacity:1"
         offset="0"
         id="stop3931" />
      <stop
         id="stop4023"
         offset="0.10714285"
         style="stop-color:#333333;stop-opacity:1;" />
      <stop
         id="stop3937"
         offset="0.87841034"
         style="stop-color:#1b1b1b;stop-opacity:1;" />
      <stop
         style="stop-color:#e2e2e2;stop-opacity:1"
         offset="1"
         id="stop3933" />
    </linearGradient>
    <inkscape:path-effect
       is_visible="true"
       id="path-effect3916"
       effect="spiro" />
    <inkscape:path-effect
       is_visible="true"
       id="path-effect3912"
       effect="spiro" />
    <inkscape:path-effect
       is_visible="true"
       id="path-effect3908"
       effect="spiro" />
    <inkscape:path-effect
       effect="spiro"
       id="path-effect3904"
       is_visible="true" />
    <inkscape:path-effect
       effect="spiro"
       id="path-effect3900"
       is_visible="true" />
    <inkscape:path-effect
       effect="spiro"
       id="path-effect3896"
       is_visible="true" />
    <inkscape:path-effect
       effect="spiro"
       id="path-effect3892"
       is_visible="true" />
    <inkscape:path-effect
       effect="spiro"
       id="path-effect3888"
       is_visible="true" />
    <inkscape:path-effect
       effect="spiro"
       id="path-effect3884"
       is_visible="true" />
    <radialGradient
       inkscape:collect="always"
       xlink:href="#linearGradient3995"
       id="radialGradient3837"
       gradientUnits="userSpaceOnUse"
       gradientTransform="matrix(0.90706981,0.523697,-0.44449826,0.76989356,386.73616,-260.41604)"
       spreadMethod="reflect"
       cx="780"
       cy="706.97827"
       fx="780"
       fy="706.97827"
       r="639.42157" />
    <radialGradient
       inkscape:collect="always"
       xlink:href="#linearGradient3912"
       id="radialGradient3869"
       cx="698.25"
       cy="567.70312"
       fx="698.25"
       fy="567.70312"
       r="187.03767"
       gradientTransform="matrix(1.8936948,0,0,1.8935365,-819.64083,-499.66155)"
       gradientUnits="userSpaceOnUse" />
    <linearGradient
       inkscape:collect="always"
       xlink:href="#linearGradient3973"
       id="linearGradient3980"
       x1="694.47839"
       y1="-16.250034"
       x2="366.63226"
       y2="551.59607"
       gradientUnits="userSpaceOnUse"
       gradientTransform="translate(1.482605e-4,0.72743425)" />
    <linearGradient
       inkscape:collect="always"
       xlink:href="#linearGradient7019"
       id="linearGradient4199"
       gradientUnits="userSpaceOnUse"
       gradientTransform="translate(2557.4374,870.8055)"
       spreadMethod="reflect"
       x1="-2288.1108"
       y1="-376.2186"
       x2="-2073.7515"
       y2="-1176.2186" />
    <linearGradient
       inkscape:collect="always"
       xlink:href="#linearGradient4196"
       id="linearGradient4201"
       gradientUnits="userSpaceOnUse"
       gradientTransform="rotate(180,-773.85215,139.1684)"
       spreadMethod="reflect"
       x1="-2212.5552"
       y1="-425.03125"
       x2="-1658.299"
       y2="-745.03125" />
    <radialGradient
       inkscape:collect="always"
       xlink:href="#linearGradient3929"
       id="radialGradient4462"
       cx="502.63156"
       cy="575.30499"
       fx="502.63156"
       fy="575.30499"
       r="564.99884"
       gradientTransform="matrix(-0.87787673,0.65211642,-0.66271163,-0.89213995,1325.1414,760.78323)"
       gradientUnits="userSpaceOnUse" />
    <linearGradient
       inkscape:collect="always"
       xlink:href="#linearGradient3959"
       id="linearGradient3903"
       gradientUnits="userSpaceOnUse"
       x1="-196.21875"
       y1="568.5"
       x2="-78.786774"
       y2="568.5" />
  </defs>
  <sodipodi:namedview
     id="base"
     pagecolor="#ffffff"
     bordercolor="#000000"
     borderopacity="1"
     inkscape:pageopacity="0.0"
     inkscape:pageshadow="2"
     inkscape:zoom="0.35000001"
     inkscape:cx="796.79371"
     inkscape:cy="1019.5983"
     inkscape:document-units="px"
     inkscape:current-layer="layer1"
     showgrid="true"
     inkscape:window-width="1920"
     inkscape:window-height="1017"
     inkscape:window-x="3832"
     inkscape:window-y="549"
     inkscape:window-maximized="1"
     fit-margin-top="0"
     fit-margin-left="0"
     fit-margin-right="0"
     fit-margin-bottom="0"
     inkscape:pagecheckerboard="true"
     inkscape:showpageshadow="true"
     borderlayer="false"
     showborder="true">
    <inkscape:grid
       type="xygrid"
       id="grid3877"
       empspacing="5"
       visible="true"
       enabled="true"
       snapvisiblegridlinesonly="true"
       originx="-34.486555"
       originy="-34.488823" />
  </sodipodi:namedview>
  <metadata
     id="metadata7">
    <rdf:RDF>
      <cc:Work
         rdf:about="">
        <dc:format>image/svg+xml</dc:format>
        <dc:type
           rdf:resource="http://purl.org/dc/dcmitype/StillImage" />
        <dc:title>CD-DVD</dc:title>
        <cc:license
           rdf:resource="http://creativecommons.org/licenses/by/4.0/" />
        <dc:date>20120313</dc:date>
        <dc:creator>
          <cc:Agent>
            <dc:title>Kostas   lia  as</dc:title>
          </cc:Agent>
        </dc:creator>
        <dc:rights>
          <cc:Agent>
            <dc:title>For not comercial use</dc:title>
          </cc:Agent>
        </dc:rights>
        <dc:subject>
          <rdf:Bag>
            <rdf:li>CD</rdf:li>
            <rdf:li>DVD</rdf:li>
          </rdf:Bag>
        </dc:subject>
      </cc:Work>
      <cc:License
         rdf:about="http://creativecommons.org/licenses/by/4.0/">
        <cc:permits
           rdf:resource="http://creativecommons.org/ns#Reproduction" />
        <cc:permits
           rdf:resource="http://creativecommons.org/ns#Distribution" />
        <cc:requires
           rdf:resource="http://creativecommons.org/ns#Notice" />
        <cc:requires
           rdf:resource="http://creativecommons.org/ns#Attribution" />
        <cc:permits
           rdf:resource="http://creativecommons.org/ns#DerivativeWorks" />
      </cc:License>
    </rdf:RDF>
  </metadata>
  <g
     inkscape:label="Layer 1"
     inkscape:groupmode="layer"
     id="layer1"
     style="display:inline"
     transform="translate(193.37004,156.24997)">
    <g
       id="g179"
       transform="translate(10.561328,-81.560697)">
      <path
         inkscape:connector-curvature="0"
         id="rect2998"
         d="m -184.99275,7.3714875 c -4.35285,0 -7.84375,3.5358265 -7.84375,7.9375005 V 1135.309 c 0,4.4017 3.4909,7.9375 7.84375,7.9375 H 1077.1323 c 4.3527,0 7.875,-3.5358 7.875,-7.9375 V 15.308988 c 0,-4.401674 -3.5223,-7.9375005 -7.875,-7.9375005 z M 504.7885,484.87149 c 0.0286,-4e-5 0.0652,0 0.0937,0 3.61744,0 7.18202,0.20869 10.6875,0.625 -2.13076,4.27829 -3.92716,8.88864 -4.25,14.09375 -0.003,0.016 0.003,0.0154 0,0.0312 -0.001,0.0187 -0.0312,0.0438 -0.0312,0.0625 h 0.0312 c -0.25461,2.96356 0.62784,5.66344 2.09375,7.875 1.63669,0.53176 3.06709,1.43857 3.84375,3.0625 1.06752,3.04183 -0.51663,6.21866 -1.875,8.90625 -2.035,4.33725 -5.11995,8.48251 -5.40625,13.40625 -0.33955,3.58851 3.04147,6.03202 6.125,6.9375 2.93892,1.16286 6.89914,1.59309 9.21875,-1 3.92159,-5.34716 3.0488,-12.4864 5.09375,-18.5625 0.57563,-2.55818 2.60286,-5.03385 5.4375,-4.96875 0.80221,0.099 1.58264,0.28285 2.34375,0.53125 1.98308,-0.68409 3.83747,-1.81243 5.375,-3.53125 a 2.7485085,2.7485085 0 0 0 0.1875,-0.21875 c 3.4704,-4.73194 5.06129,-9.94848 6.0625,-15.1875 3.0762,1.78444 6.04445,3.74944 8.875,5.875 -3.13031,2.08568 -6.19435,4.42898 -8.8125,7.4375 -0.0656,0.0753 -0.1225,0.14265 -0.1875,0.21875 -2.84457,2.80154 -4.10162,6.5759 -3.9375,10.3125 1.77626,1.69386 2.42639,4.52731 1.0625,6.6875 -4.03808,5.41727 -11.40487,7.21164 -15.8125,12.375 -2.21506,2.08494 -2.36772,5.56593 -0.75,8.0625 1.9669,2.90679 4.7348,6.19225 8.5625,6.21875 4.03066,-0.45734 6.81095,-3.93901 9.21875,-6.84375 2.7242,-2.99228 4.82418,-6.78109 8.5,-8.65625 2.3055,-1.31571 5.07654,-0.15641 6.625,1.78125 0.83231,0.15216 1.69664,0.244 2.59375,0.25 a 2.7485085,2.7485085 0 0 0 0.3125,-0.0312 c 7.42849,-0.84287 12.44901,-6.22143 16.4375,-11 1.80556,3.11298 3.44767,6.35188 4.875,9.6875 -4.39333,0.29065 -8.87361,0.964 -13.25,2.8125 -0.0214,0.007 -0.0413,0.0232 -0.0625,0.0312 -0.039,0.0165 -0.086,0.0145 -0.125,0.0312 -3.20315,1.1715 -5.4444,3.48681 -6.8125,6.25 0.10559,0.49949 0.2054,1.01798 0.25,1.53125 0.23612,2.48229 -1.56972,4.61375 -3.875,5.3125 -6.33803,1.9068 -13.3639,0.004 -19.53125,2.65625 -2.82142,0.98212 -4.04746,4.12538 -3.75,6.90625 0.27981,3.56785 1.38308,7.98451 5.09375,9.375 4.96224,1.07997 9.72623,-1.48442 14.25,-3.125 3.19299,-1.00696 6.89142,-2.85033 10.1875,-1.1875 1.55602,0.93142 2.31724,2.47945 2.65625,4.1875 1.16824,1.00362 2.5314,1.85205 4.09375,2.4375 a 2.7485085,2.7485085 0 0 0 0.375,0.125 c 6.3214,1.37578 12.23434,-0.0835 17.6875,-2.0625 -6.1e-4,3.61216 -0.2093,7.15582 -0.625,10.65625 -4.51065,-2.28064 -9.3917,-4.1793 -14.96875,-4.25 -0.0237,-2.6e-4 -0.0389,2.3e-4 -0.0625,0 -2.65145,-0.0711 -5.04633,0.75452 -7.03125,2.0625 -0.52736,1.64479 -1.44041,3.09367 -3.0625,3.875 -3.12178,1.10612 -6.38979,-0.55654 -9.125,-1.96875 -4.38787,-2.00571 -8.56191,-5.23195 -13.5625,-5.28125 -3.51912,-0.11553 -5.76033,3.27927 -6.65625,6.28125 -1.13038,2.94891 -1.45143,6.84151 1.1875,9.09375 5.36454,3.82764 12.41295,3.00846 18.4375,5.03125 2.57974,0.57074 5.0587,2.61486 5,5.4375 -0.10011,0.80308 -0.28202,1.5791 -0.53125,2.34375 0.71409,2.05937 1.91908,3.99987 3.75,5.5625 a 2.7485085,2.7485085 0 0 0 0.15625,0.15625 c 4.70223,3.35507 9.90051,4.91671 15.0625,5.90625 -1.79098,3.08872 -3.77143,6.06515 -5.90625,8.90625 -2.0441,-3.0778 -4.33821,-6.08369 -7.25,-8.6875 -2.82704,-2.96571 -6.77962,-4.42989 -10.71875,-4.28125 -1.68338,1.80268 -4.5655,2.44646 -6.71875,1.09375 -5.34974,-4.04238 -7.15812,-11.21475 -12.125,-15.65625 -1.88784,-2.06315 -5.06285,-2.58841 -7.5625,-1.3125 -3.10767,1.8534 -6.53225,4.57944 -6.9375,8.375 -0.0306,3.89117 3.25917,6.73083 5.96875,9.03125 3.24524,3.07483 7.57203,5.33272 9.59375,9.46875 1.23988,2.27854 -0.0154,4.91553 -1.875,6.4375 -0.0807,0.42623 -0.1401,0.86881 -0.1875,1.3125 a 2.7485085,2.7485085 0 0 0 -0.0312,0.25 c -0.0644,8.18366 6.21509,13.69285 11.03125,17.78125 -3.12612,1.81421 -6.36807,3.44235 -9.71875,4.875 -0.28042,-4.46429 -0.93996,-9.03595 -2.875,-13.46875 -0.0269,-0.0617 -0.0351,-0.1258 -0.0625,-0.1875 h -0.0312 c -1.17645,-3.11552 -3.52957,-5.28569 -6.1875,-6.59375 -0.31906,0.07 -0.61377,0.1399 -0.9375,0.1875 -2.33622,0.37829 -4.73189,-0.93585 -5.59375,-3.15625 -2.41428,-6.48862 -0.12547,-13.88962 -2.96875,-20.28125 -1.14799,-3.21047 -4.95705,-4.10445 -8,-3.5625 -3.23286,0.44469 -7.13739,1.66181 -8.28125,5.09375 -1.01737,5.24266 1.77744,10.10844 3.46875,14.90625 0.96577,3.00489 2.48968,6.61185 0.78125,9.625 -0.98506,1.42774 -2.48084,2.14504 -4.125,2.46875 -1.05887,1.23593 -1.93918,2.69233 -2.5,4.375 a 2.7485085,2.7485085 0 0 0 -0.0937,0.34375 c -1.21561,6.2642 0.2088,12.05049 2.15625,17.4375 -3.61757,-0.002 -7.21324,-0.23836 -10.71875,-0.65625 2.26764,-4.48509 4.2136,-9.326 4.3125,-14.84375 v -0.0312 -0.0312 c 0.0872,-2.70142 -0.76091,-5.13742 -2.09375,-7.15625 -1.70785,-0.55252 -3.21209,-1.50221 -3.9375,-3.21875 -0.98488,-3.29511 0.8354,-6.63576 2.3125,-9.5 1.98336,-4.17917 4.95815,-8.22251 5.03125,-12.96875 0.12946,-3.44232 -3.07234,-5.68104 -6,-6.59375 -2.99423,-1.15829 -7.00093,-1.6808 -9.34375,1.03125 -3.83607,5.26131 -3.04504,12.24189 -4.96875,18.21875 -0.557,2.55939 -2.43549,5.13318 -5.25,5.25 -0.92415,-0.0676 -1.81733,-0.24831 -2.6875,-0.53125 -1.99962,0.70207 -3.9012,1.87777 -5.4375,3.65625 a 2.7485085,2.7485085 0 0 0 -0.125,0.1875 c -3.43266,4.70806 -5.03893,9.91647 -6.03125,15.125 -3.08636,-1.79118 -6.03616,-3.7717 -8.875,-5.90625 0.47032,-0.3204 0.9409,-0.66629 1.40625,-1 2.53183,-1.78862 5.42002,-3.94665 7.75,-6.75 2.2332,-2.68699 3.94105,-6.13956 3.84375,-10.15625 -1.71517,-1.65878 -2.48319,-4.32723 -1.28125,-6.5 2.92207,-4.22064 7.92154,-6.22944 12,-9.15625 2.77122,-1.95739 6.05922,-4.5582 5.8125,-8.375 -0.44436,-2.89942 -2.51628,-5.42215 -4.65625,-7.3125 -1.96106,-1.73003 -4.82402,-2.76931 -7.28125,-1.5 -6.03077,3.07626 -8.66598,9.99469 -13.9375,14 -1.79089,1.72096 -4.74372,1.99922 -6.75,0.46875 -0.45597,-0.41516 -0.8757,-0.84662 -1.28125,-1.3125 -2.62523,-0.51721 -5.4121,-0.3066 -8.0625,1.0625 v 0.0312 c -4.71383,2.40825 -8.28876,5.9009 -11.4375,9.59375 -1.79034,-3.09618 -3.39596,-6.30917 -4.8125,-9.625 3.97545,-0.25446 8.01023,-0.81994 11.96875,-2.28125 0.0933,-0.0344 0.18805,-0.0583 0.28125,-0.0937 3.65666,-1.04275 6.39085,-3.61511 8,-6.78125 -0.01,-0.0418 -0.0222,-0.0832 -0.0312,-0.125 -0.80466,-2.47237 0.42505,-5.29312 2.8125,-6.34375 6.29815,-2.40613 13.51792,-0.33641 19.78125,-2.71875 2.78767,-0.72271 4.48353,-3.60857 4.375,-6.40625 -0.21146,-3.47332 -0.92222,-7.62833 -4.09375,-9.65625 -3.55264,-1.70775 -7.64345,-0.20579 -11.09375,1.0625 -4.01499,1.26081 -7.86346,3.61999 -12.1875,3.40625 -2.6371,0.0127 -4.50106,-2.40076 -4.84375,-4.84375 -0.53473,-0.46003 -1.09605,-0.91432 -1.71875,-1.3125 a 2.7485085,2.7485085 0 0 0 -0.3125,-0.15625 c -6.92186,-3.32735 -14.18292,-1.05381 -20.09375,1.09375 -4e-5,-0.0156 0,-0.0469 0,-0.0625 3e-5,-3.63358 0.20501,-7.19825 0.625,-10.71875 3.85213,1.90705 7.96932,3.52323 12.5625,4.125 0.0868,0.0114 0.1629,0.0207 0.25,0.0312 3.42108,0.6702 6.69864,-0.27126 9.28125,-2 0.0956,-0.30086 0.19717,-0.5808 0.3125,-0.875 0.86589,-2.24447 3.19486,-3.68793 5.59375,-3.28125 6.72929,1.19594 11.92112,6.72945 18.75,7.5625 3.21556,0.70549 6.01497,-1.87751 7.125,-4.6875 1.28673,-3.05285 2.37406,-7.0998 0.0937,-9.96875 -3.29748,-3.26252 -8.27103,-3.58252 -12.625,-4.3125 -3.48983,-0.73169 -7.59835,-0.84886 -10.25,-3.53125 -1.50669,-1.59438 -1.45367,-3.79743 -0.78125,-5.78125 -0.47083,-1.33014 -1.14529,-2.61927 -2.09375,-3.8125 a 2.7485085,2.7485085 0 0 0 -0.21875,-0.21875 c -4.72448,-4.67442 -10.79782,-6.35849 -16.625,-7.375 1.78623,-3.08629 3.74567,-6.06672 5.875,-8.90625 2.80076,4.21378 6.13056,8.24067 10.875,11.15625 2.2777,1.40479 4.76699,1.87143 7.15625,1.71875 0.95753,-0.86115 2.04417,-1.5226 3.375,-1.78125 3.17721,-0.38112 5.57942,2.39857 7.15625,4.78125 3.24729,4.33301 5.29589,9.89532 10.09375,12.84375 2.9281,1.80587 6.49823,0.0375 8.75,-2.03125 2.43983,-1.96757 4.74974,-5.09365 3.71875,-8.40625 -2.59413,-6.02253 -9.09871,-8.88565 -13.34375,-13.53125 -1.90005,-1.7431 -3.2346,-4.62966 -1.96875,-7.125 0.51575,-0.78046 1.12942,-1.47326 1.8125,-2.09375 0.38262,-1.99931 0.35314,-4.11137 -0.3125,-6.25 a 2.7485085,2.7485085 0 0 0 -0.0937,-0.28125 c -2.33724,-5.42612 -6.0925,-9.48473 -10.15625,-13 3.06041,-1.76521 6.22533,-3.34955 9.5,-4.75 0.22474,3.67637 0.71089,7.42819 1.9375,11.125 0.95206,4.0071 3.67651,7.21779 7.15625,9.0625 2.2806,-0.61059 4.9692,0.0629 6.21875,2.1875 2.84381,6.22748 0.69283,13.45544 2.8125,19.84375 0.61985,2.89694 3.42216,5.01995 6.375,4.96875 3.617,-0.21646 7.99514,-0.87516 10,-4.28125 1.64327,-3.67428 0.0459,-7.74641 -1.25,-11.28125 -1.28986,-4.17758 -3.92381,-8.28716 -3.125,-12.8125 0.47071,-2.2346 2.51574,-3.43096 4.65625,-3.875 0.54815,-0.6385 1.0518,-1.33231 1.5,-2.09375 a 2.7485085,2.7485085 0 0 0 0.125,-0.25 c 3.07425,-6.87395 0.88977,-13.92117 -1.25,-19.78125 z"
         style="fill:url(#radialGradient3837);fill-opacity:1;fill-rule:nonzero;stroke:#6a5555;stroke-width:1;stroke-miterlimit:4" />
      <path
         transform="translate(-193.36775,6.8680085)"
         sodipodi:nodetypes="ssssssssscscccccccccccccccccccccccccccccccccccccccccccccccccccccccccccccccccccccccccccccccccccccccccccccccccccccccccccccccccccccccccccccccccccccccccscccccccccccccccccccccccccccccccccccccccccc"
         inkscape:connector-curvature="0"
         id="rect3880"
         d="m 135.625,15.875 c -3.86536,0 -7,3.436266 -7,7.71875 V 1113.2812 c 0,4.2825 3.13464,7.7188 7,7.7188 h 1120.75 c 3.8654,0 7,-3.4363 7,-7.7188 V 23.59375 c 0,-4.282484 -3.1346,-7.71875 -7,-7.71875 z M 698.15625,478 c 0.0286,-4e-5 0.0652,0 0.0937,0 3.61744,0 7.18202,0.20869 10.6875,0.625 -2.13076,4.27829 -3.92716,8.88864 -4.25,14.09375 -0.003,0.016 0.003,0.0154 0,0.0312 -10e-4,0.0187 -0.0312,0.0438 -0.0312,0.0625 h 0.0312 c -0.25461,2.96356 0.62784,5.66344 2.09375,7.875 1.63669,0.53176 3.06709,1.43857 3.84375,3.0625 1.06752,3.04183 -0.51663,6.21866 -1.875,8.90625 -2.035,4.33725 -5.11995,8.48251 -5.40625,13.40625 -0.33955,3.58851 3.04147,6.03202 6.125,6.9375 2.93892,1.16286 6.89914,1.59309 9.21875,-1 3.92159,-5.34716 3.0488,-12.4864 5.09375,-18.5625 0.57563,-2.55818 2.60286,-5.03385 5.4375,-4.96875 0.80221,0.099 1.58264,0.28285 2.34375,0.53125 1.98308,-0.68409 3.83747,-1.81243 5.375,-3.53125 0.0663,-0.0696 0.12888,-0.14262 0.1875,-0.21875 3.4704,-4.73194 5.06129,-9.94848 6.0625,-15.1875 3.0762,1.78444 6.04445,3.74944 8.875,5.875 -3.13031,2.08568 -6.19435,4.42898 -8.8125,7.4375 -0.0656,0.0753 -0.1225,0.14265 -0.1875,0.21875 -2.84457,2.80154 -4.10162,6.5759 -3.9375,10.3125 1.77626,1.69386 2.42639,4.52731 1.0625,6.6875 -4.03808,5.41727 -11.40487,7.21164 -15.8125,12.375 -2.21506,2.08494 -2.36772,5.56593 -0.75,8.0625 1.9669,2.90679 4.7348,6.19225 8.5625,6.21875 4.03066,-0.45734 6.81095,-3.93901 9.21875,-6.84375 2.7242,-2.99228 4.82418,-6.78109 8.5,-8.65625 2.3055,-1.31571 5.07654,-0.15641 6.625,1.78125 0.83231,0.15216 1.69664,0.244 2.59375,0.25 0.10465,-0.004 0.20904,-0.0149 0.3125,-0.0312 7.42849,-0.84287 12.44901,-6.22143 16.4375,-11 1.80556,3.11298 3.44767,6.35188 4.875,9.6875 -4.39333,0.29065 -8.87361,0.964 -13.25,2.8125 -0.0214,0.007 -0.0413,0.0232 -0.0625,0.0312 -0.039,0.0165 -0.086,0.0145 -0.125,0.0312 -3.20315,1.1715 -5.4444,3.48681 -6.8125,6.25 0.10559,0.49949 0.2054,1.01798 0.25,1.53125 0.23612,2.48229 -1.56972,4.61375 -3.875,5.3125 -6.33803,1.9068 -13.3639,0.004 -19.53125,2.65625 -2.82142,0.98212 -4.04746,4.12538 -3.75,6.90625 0.27981,3.56785 1.38308,7.98451 5.09375,9.375 4.96224,1.07997 9.72623,-1.48442 14.25,-3.125 3.19299,-1.00696 6.89142,-2.85033 10.1875,-1.1875 1.55602,0.93142 2.31724,2.47945 2.65625,4.1875 1.16824,1.00362 2.5314,1.85205 4.09375,2.4375 0.12179,0.0506 0.24722,0.0924 0.375,0.125 6.3214,1.37578 12.23434,-0.0835 17.6875,-2.0625 -6.1e-4,3.61216 -0.2093,7.15582 -0.625,10.65625 -4.51065,-2.28064 -9.3917,-4.1793 -14.96875,-4.25 -0.0237,-2.6e-4 -0.0389,2.3e-4 -0.0625,0 -2.65145,-0.0711 -5.04633,0.75452 -7.03125,2.0625 -0.52736,1.64479 -1.44041,3.09367 -3.0625,3.875 -3.12178,1.10612 -6.38979,-0.55654 -9.125,-1.96875 -4.38787,-2.00571 -8.56191,-5.23195 -13.5625,-5.28125 -3.51912,-0.11553 -5.76033,3.27927 -6.65625,6.28125 -1.13038,2.94891 -1.45143,6.84151 1.1875,9.09375 5.36454,3.82764 12.41295,3.00846 18.4375,5.03125 2.57974,0.57074 5.0587,2.61486 5,5.4375 -0.10011,0.80308 -0.28202,1.5791 -0.53125,2.34375 0.71409,2.05937 1.91908,3.99987 3.75,5.5625 0.05,0.0542 0.1021,0.10629 0.15625,0.15625 4.70223,3.35507 9.90051,4.91671 15.0625,5.90625 -1.79098,3.08872 -3.77143,6.06515 -5.90625,8.90625 -2.0441,-3.0778 -4.33821,-6.08369 -7.25,-8.6875 -2.82704,-2.96571 -6.77962,-4.42989 -10.71875,-4.28125 -1.68338,1.80268 -4.5655,2.44646 -6.71875,1.09375 -5.34974,-4.04238 -7.15812,-11.21475 -12.125,-15.65625 -1.88784,-2.06315 -5.06285,-2.58841 -7.5625,-1.3125 -3.10767,1.8534 -6.53225,4.57944 -6.9375,8.375 -0.0306,3.89117 3.25917,6.73083 5.96875,9.03125 3.24524,3.07483 7.57203,5.33272 9.59375,9.46875 1.23988,2.27854 -0.0154,4.91553 -1.875,6.4375 -0.0807,0.42623 -0.1401,0.86881 -0.1875,1.3125 -0.0142,0.0828 -0.0247,0.16625 -0.0312,0.25 -0.0644,8.18366 6.21509,13.69285 11.03125,17.78125 -3.12612,1.81421 -6.36807,3.44235 -9.71875,4.875 -0.28042,-4.46429 -0.93996,-9.03595 -2.875,-13.46875 -0.0269,-0.0617 -0.0351,-0.1258 -0.0625,-0.1875 h -0.0312 c -1.17645,-3.11552 -3.52957,-5.28569 -6.1875,-6.59375 -0.31906,0.07 -0.61377,0.1399 -0.9375,0.1875 -2.33622,0.37829 -4.73189,-0.93585 -5.59375,-3.15625 -2.41428,-6.48862 -0.12547,-13.88962 -2.96875,-20.28125 -1.14799,-3.21047 -4.95705,-4.10445 -8,-3.5625 -3.23286,0.44469 -7.13739,1.66181 -8.28125,5.09375 -1.01737,5.24266 1.77744,10.10844 3.46875,14.90625 0.96577,3.00489 2.48968,6.61185 0.78125,9.625 -0.98506,1.42774 -2.48084,2.14504 -4.125,2.46875 -1.05887,1.23593 -1.93918,2.69233 -2.5,4.375 -0.0386,0.1124 -0.07,0.2273 -0.0937,0.34375 -1.21561,6.2642 0.2088,12.05049 2.15625,17.4375 -3.61757,-0.002 -7.21324,-0.23836 -10.71875,-0.65625 2.26764,-4.48509 4.2136,-9.326 4.3125,-14.84375 v -0.0312 -0.0312 c 0.0872,-2.70142 -0.76091,-5.13742 -2.09375,-7.15625 -1.70785,-0.55252 -3.21209,-1.50221 -3.9375,-3.21875 -0.98488,-3.29511 0.8354,-6.63576 2.3125,-9.5 1.98336,-4.17917 4.95815,-8.22251 5.03125,-12.96875 0.12946,-3.44232 -3.07234,-5.68104 -6,-6.59375 -2.99423,-1.15829 -7.00093,-1.6808 -9.34375,1.03125 -3.83607,5.26131 -3.04504,12.24189 -4.96875,18.21875 -0.557,2.55939 -2.43549,5.13318 -5.25,5.25 -0.92415,-0.0676 -1.81733,-0.24831 -2.6875,-0.53125 -1.99962,0.70207 -3.9012,1.87777 -5.4375,3.65625 -0.0442,0.0608 -0.0859,0.12333 -0.125,0.1875 -3.43266,4.70806 -5.03893,9.91647 -6.03125,15.125 -3.08636,-1.79118 -6.03616,-3.7717 -8.875,-5.90625 0.47032,-0.3204 0.9409,-0.66629 1.40625,-1 2.53183,-1.78862 5.42002,-3.94665 7.75,-6.75 2.2332,-2.68699 3.94105,-6.13956 3.84375,-10.15625 -1.71517,-1.65878 -2.48319,-4.32723 -1.28125,-6.5 2.92207,-4.22064 7.92154,-6.22944 12,-9.15625 2.77122,-1.95739 6.05922,-4.5582 5.8125,-8.375 -0.44436,-2.89942 -2.51628,-5.42215 -4.65625,-7.3125 -1.96106,-1.73003 -4.82402,-2.76931 -7.28125,-1.5 -6.03077,3.07626 -8.66598,9.99469 -13.9375,14 -1.79089,1.72096 -4.74372,1.99922 -6.75,0.46875 -0.45597,-0.41516 -0.8757,-0.84662 -1.28125,-1.3125 -2.62523,-0.51721 -5.4121,-0.3066 -8.0625,1.0625 v 0.0312 c -4.71383,2.40825 -8.28876,5.9009 -11.4375,9.59375 -1.79034,-3.09618 -3.39596,-6.30917 -4.8125,-9.625 3.97545,-0.25446 8.01023,-0.81994 11.96875,-2.28125 0.0933,-0.0344 0.18805,-0.0583 0.28125,-0.0937 3.65666,-1.04275 6.39085,-3.61511 8,-6.78125 -0.01,-0.0418 -0.0222,-0.0832 -0.0312,-0.125 -0.80466,-2.47237 0.42505,-5.29312 2.8125,-6.34375 6.29815,-2.40613 13.51792,-0.33641 19.78125,-2.71875 2.78767,-0.72271 4.48353,-3.60857 4.375,-6.40625 -0.21146,-3.47332 -0.92222,-7.62833 -4.09375,-9.65625 -3.55264,-1.70775 -7.64345,-0.20579 -11.09375,1.0625 -4.01499,1.26081 -7.86346,3.61999 -12.1875,3.40625 -2.6371,0.0127 -4.50106,-2.40076 -4.84375,-4.84375 -0.53473,-0.46003 -1.09605,-0.91432 -1.71875,-1.3125 -0.10071,-0.0586 -0.20516,-0.11086 -0.3125,-0.15625 -6.92186,-3.32735 -14.18292,-1.05381 -20.09375,1.09375 -4e-5,-0.0156 0,-0.0469 0,-0.0625 3e-5,-3.63358 0.20501,-7.19825 0.625,-10.71875 3.85213,1.90705 7.96932,3.52323 12.5625,4.125 0.0868,0.0114 0.1629,0.0207 0.25,0.0312 3.42108,0.6702 6.69864,-0.27126 9.28125,-2 0.0956,-0.30086 0.19717,-0.5808 0.3125,-0.875 0.86589,-2.24447 3.19486,-3.68793 5.59375,-3.28125 6.72929,1.19594 11.92112,6.72945 18.75,7.5625 3.21556,0.70549 6.01497,-1.87751 7.125,-4.6875 1.28673,-3.05285 2.37406,-7.0998 0.0937,-9.96875 -3.29748,-3.26252 -8.27103,-3.58252 -12.625,-4.3125 -3.48983,-0.73169 -7.59835,-0.84886 -10.25,-3.53125 -1.50669,-1.59438 -1.45367,-3.79743 -0.78125,-5.78125 -0.47083,-1.33014 -1.14529,-2.61927 -2.09375,-3.8125 -0.0687,-0.077 -0.1418,-0.15002 -0.21875,-0.21875 -4.72448,-4.67442 -10.79782,-6.35849 -16.625,-7.375 1.78623,-3.08629 3.74567,-6.06672 5.875,-8.90625 2.80076,4.21378 6.13056,8.24067 10.875,11.15625 2.2777,1.40479 4.76699,1.87143 7.15625,1.71875 0.95753,-0.86115 2.04417,-1.5226 3.375,-1.78125 3.17721,-0.38112 5.57942,2.39857 7.15625,4.78125 3.24729,4.33301 5.29589,9.89532 10.09375,12.84375 2.9281,1.80587 6.49823,0.0375 8.75,-2.03125 2.43983,-1.96757 4.74974,-5.09365 3.71875,-8.40625 -2.59413,-6.02253 -9.09871,-8.88565 -13.34375,-13.53125 -1.90005,-1.7431 -3.2346,-4.62966 -1.96875,-7.125 0.51575,-0.78046 1.12942,-1.47326 1.8125,-2.09375 0.38262,-1.99931 0.35314,-4.11137 -0.3125,-6.25 -0.0262,-0.0953 -0.0575,-0.18928 -0.0937,-0.28125 -2.33724,-5.42612 -6.0925,-9.48473 -10.15625,-13 3.06041,-1.76521 6.22533,-3.34955 9.5,-4.75 0.22474,3.67637 0.71089,7.42819 1.9375,11.125 0.95206,4.0071 3.67651,7.21779 7.15625,9.0625 2.2806,-0.61059 4.9692,0.0629 6.21875,2.1875 2.84381,6.22748 0.69283,13.45544 2.8125,19.84375 0.61985,2.89694 3.42216,5.01995 6.375,4.96875 3.617,-0.21646 7.99514,-0.87516 10,-4.28125 1.64327,-3.67428 0.0459,-7.74641 -1.25,-11.28125 -1.28986,-4.17758 -3.92381,-8.28716 -3.125,-12.8125 0.47071,-2.2346 2.51574,-3.43096 4.65625,-3.875 0.54815,-0.6385 1.0518,-1.33231 1.5,-2.09375 0.0459,-0.0811 0.0876,-0.16462 0.125,-0.25 3.07425,-6.87395 0.88977,-13.92117 -1.25,-19.78125 z"
         style="fill:#1a1a1a;fill-opacity:1;fill-rule:nonzero;stroke:none" />
      <path
         transform="matrix(1,0,0,1.0224667,2.851001,-6.4101684)"
         d="M -189.96875,23.242188 A 5.7593316,5.7593316 0 0 0 -195.72656,29 v 1079 a 5.7593316,5.7593316 0 0 0 5.75781,5.7578 h 104.9375 A 5.7593316,5.7593316 0 0 0 -79.273438,1108 V 29 a 5.7593316,5.7593316 0 0 0 -5.757812,-5.757812 z"
         id="path3815"
         style="fill:url(#linearGradient3903);fill-opacity:1;stroke:#000000;stroke-width:0.98895246;stroke-miterlimit:4;stroke-dasharray:none;stroke-opacity:1"
         inkscape:original="M -189.96875 29 L -189.96875 1108 L -85.03125 1108 L -85.03125 29 L -189.96875 29 z "
         inkscape:radius="5.7587557"
         sodipodi:type="inkscape:offset" />
      <g
         id="g3924">
        <path
           style="fill:#151515;stroke:#000000;stroke-width:3.25868797px;stroke-linecap:butt;stroke-linejoin:miter;stroke-opacity:1"
           d="M -175,17.808979 V 1132.809"
           id="path3882"
           inkscape:path-effect="#path-effect12103"
           inkscape:original-d="M -175,17.808979 V 1132.809"
           inkscape:connector-curvature="0"
           sodipodi:nodetypes="cc" />
        <path
           style="fill:#151515;stroke:#000000;stroke-width:3.25868797px;stroke-linecap:butt;stroke-linejoin:miter;stroke-opacity:1"
           d="M -165,17.808979 V 1132.809"
           id="path3886"
           inkscape:path-effect="#path-effect12100"
           inkscape:original-d="M -165,17.808979 V 1132.809"
           inkscape:connector-curvature="0"
           sodipodi:nodetypes="cc" />
        <path
           style="fill:#151515;stroke:#000000;stroke-width:3.25868797px;stroke-linecap:butt;stroke-linejoin:miter;stroke-opacity:1"
           d="M -145,17.808979 V 1132.809"
           id="path3890"
           inkscape:path-effect="#path-effect12097"
           inkscape:original-d="M -145,17.808979 V 1132.809"
           inkscape:connector-curvature="0"
           sodipodi:nodetypes="cc" />
        <path
           style="fill:#151515;stroke:#000000;stroke-width:3.25868797px;stroke-linecap:butt;stroke-linejoin:miter;stroke-opacity:1"
           d="M -135,17.808979 V 1132.809"
           id="path3894"
           inkscape:path-effect="#path-effect12094"
           inkscape:original-d="M -135,17.808979 V 1132.809"
           inkscape:connector-curvature="0"
           sodipodi:nodetypes="cc" />
        <path
           style="fill:#151515;stroke:#000000;stroke-width:3.25868797px;stroke-linecap:butt;stroke-linejoin:miter;stroke-opacity:1"
           d="M -125,17.808979 V 1132.809"
           id="path3898"
           inkscape:path-effect="#path-effect12091"
           inkscape:original-d="M -125,17.808979 V 1132.809"
           inkscape:connector-curvature="0"
           sodipodi:nodetypes="cc" />
        <path
           style="fill:#151515;stroke:#000000;stroke-width:3.25868797px;stroke-linecap:butt;stroke-linejoin:miter;stroke-opacity:1"
           d="M -105,17.808979 V 1132.809"
           id="path3902"
           inkscape:path-effect="#path-effect12088"
           inkscape:original-d="M -105,17.808979 V 1132.809"
           inkscape:connector-curvature="0"
           sodipodi:nodetypes="cc" />
        <path
           inkscape:connector-curvature="0"
           inkscape:original-d="M -155,17.808979 V 1132.809"
           inkscape:path-effect="#path-effect12085"
           id="path3906"
           d="M -155,17.808979 V 1132.809"
           style="fill:#151515;stroke:#000000;stroke-width:3.25868797px;stroke-linecap:butt;stroke-linejoin:miter;stroke-opacity:1"
           sodipodi:nodetypes="cc" />
        <path
           inkscape:connector-curvature="0"
           inkscape:original-d="M -115,17.808979 V 1132.809"
           inkscape:path-effect="#path-effect12082"
           id="path3910"
           d="M -115,17.808979 V 1132.809"
           style="fill:#151515;stroke:#000000;stroke-width:3.25868797px;stroke-linecap:butt;stroke-linejoin:miter;stroke-opacity:1"
           sodipodi:nodetypes="cc" />
        <path
           inkscape:connector-curvature="0"
           inkscape:original-d="M -95,17.808979 V 1132.809"
           inkscape:path-effect="#path-effect12079"
           id="path3914"
           d="M -95,17.808979 V 1132.809"
           style="fill:#151515;stroke:#000000;stroke-width:3.25868797px;stroke-linecap:butt;stroke-linejoin:miter;stroke-opacity:1"
           sodipodi:nodetypes="cc" />
        <path
           sodipodi:nodetypes="cc"
           inkscape:connector-curvature="0"
           inkscape:original-d="M -180,17.808979 V 1132.809"
           inkscape:path-effect="#path-effect3884"
           id="path3941"
           d="M -180,17.808979 V 1132.809"
           style="fill:none;stroke:#222222;stroke-width:3.25868797px;stroke-linecap:butt;stroke-linejoin:miter;stroke-opacity:1" />
        <path
           sodipodi:nodetypes="cc"
           inkscape:connector-curvature="0"
           inkscape:original-d="M -170,17.808979 V 1132.809"
           inkscape:path-effect="#path-effect3888"
           id="path3943"
           d="M -170,17.808979 V 1132.809"
           style="fill:none;stroke:#222222;stroke-width:3.25868797px;stroke-linecap:butt;stroke-linejoin:miter;stroke-opacity:1" />
        <path
           sodipodi:nodetypes="cc"
           inkscape:connector-curvature="0"
           inkscape:original-d="M -150,17.808979 V 1132.809"
           inkscape:path-effect="#path-effect3892"
           id="path3945"
           d="M -150,17.808979 V 1132.809"
           style="fill:none;stroke:#222222;stroke-width:3.25868797px;stroke-linecap:butt;stroke-linejoin:miter;stroke-opacity:1" />
        <path
           sodipodi:nodetypes="cc"
           inkscape:connector-curvature="0"
           inkscape:original-d="M -140,17.808979 V 1132.809"
           inkscape:path-effect="#path-effect3896"
           id="path3947"
           d="M -140,17.808979 V 1132.809"
           style="fill:none;stroke:#222222;stroke-width:3.25868797px;stroke-linecap:butt;stroke-linejoin:miter;stroke-opacity:1" />
        <path
           sodipodi:nodetypes="cc"
           inkscape:connector-curvature="0"
           inkscape:original-d="M -130,17.808979 V 1132.809"
           inkscape:path-effect="#path-effect3900"
           id="path3949"
           d="M -130,17.808979 V 1132.809"
           style="fill:none;stroke:#222222;stroke-width:3.25868797px;stroke-linecap:butt;stroke-linejoin:miter;stroke-opacity:1" />
        <path
           sodipodi:nodetypes="cc"
           inkscape:connector-curvature="0"
           inkscape:original-d="M -110,17.808979 V 1132.809"
           inkscape:path-effect="#path-effect3904"
           id="path3951"
           d="M -110,17.808979 V 1132.809"
           style="fill:none;stroke:#222222;stroke-width:3.25868797px;stroke-linecap:butt;stroke-linejoin:miter;stroke-opacity:1" />
        <path
           sodipodi:nodetypes="cc"
           style="fill:none;stroke:#222222;stroke-width:3.25868797px;stroke-linecap:butt;stroke-linejoin:miter;stroke-opacity:1"
           d="M -160,17.808979 V 1132.809"
           id="path3953"
           inkscape:path-effect="#path-effect3908"
           inkscape:original-d="M -160,17.808979 V 1132.809"
           inkscape:connector-curvature="0" />
        <path
           sodipodi:nodetypes="cc"
           style="fill:none;stroke:#222222;stroke-width:3.25868797px;stroke-linecap:butt;stroke-linejoin:miter;stroke-opacity:1"
           d="M -120,17.808979 V 1132.809"
           id="path3955"
           inkscape:path-effect="#path-effect3912"
           inkscape:original-d="M -120,17.808979 V 1132.809"
           inkscape:connector-curvature="0" />
        <path
           sodipodi:nodetypes="cc"
           style="fill:none;stroke:#222222;stroke-width:3.25868797px;stroke-linecap:butt;stroke-linejoin:miter;stroke-opacity:1"
           d="M -100,17.808979 V 1132.809"
           id="path3957"
           inkscape:path-effect="#path-effect3916"
           inkscape:original-d="M -100,17.808979 V 1132.809"
           inkscape:connector-curvature="0" />
      </g>
      <g
         style="opacity:0.5;stroke:#ffffff;stroke-width:3;stroke-miterlimit:4;stroke-dasharray:none"
         id="g4464">
        <path
           sodipodi:type="arc"
           style="opacity:0.6465116;fill:#c8c8c8;fill-opacity:1;fill-rule:nonzero;stroke:#ffffff;stroke-width:3;stroke-linecap:round;stroke-linejoin:round;stroke-miterlimit:4;stroke-dasharray:none;stroke-dashoffset:0;stroke-opacity:1"
           id="path3819"
           sodipodi:cx="116.16754"
           sodipodi:cy="26.552273"
           sodipodi:rx="43.436558"
           sodipodi:ry="42.931484"
           d="m 159.6041,26.552273 a 43.436558,42.931484 0 0 1 -21.71828,37.179756 43.436558,42.931484 0 0 1 -43.436559,-10e-7 43.436558,42.931484 0 0 1 -21.718277,-37.179757 l 43.436556,2e-6 z"
           sodipodi:start="0"
           sodipodi:end="3.1415927"
           transform="translate(6.7891244,-15.832946)" />
        <path
           transform="translate(753.29185,-15.832946)"
           sodipodi:end="3.1415927"
           sodipodi:start="0"
           d="m 159.6041,26.552273 a 43.436558,42.931484 0 0 1 -21.71828,37.179756 43.436558,42.931484 0 0 1 -43.436559,-10e-7 43.436558,42.931484 0 0 1 -21.718277,-37.179757 l 43.436556,2e-6 z"
           sodipodi:ry="42.931484"
           sodipodi:rx="43.436558"
           sodipodi:cy="26.552273"
           sodipodi:cx="116.16754"
           id="path3822"
           style="opacity:0.6465116;fill:#c8c8c8;fill-opacity:1;fill-rule:nonzero;stroke:#ffffff;stroke-width:3;stroke-linecap:round;stroke-linejoin:round;stroke-miterlimit:4;stroke-dasharray:none;stroke-dashoffset:0;stroke-opacity:1"
           sodipodi:type="arc" />
        <path
           transform="matrix(1,0,0,-1,6.7891244,1166.4443)"
           sodipodi:end="3.1415927"
           sodipodi:start="0"
           d="m 159.6041,26.552273 a 43.436558,42.931484 0 0 1 -21.71828,37.179756 43.436558,42.931484 0 0 1 -43.436559,-10e-7 43.436558,42.931484 0 0 1 -21.718277,-37.179757 l 43.436556,2e-6 z"
           sodipodi:ry="42.931484"
           sodipodi:rx="43.436558"
           sodipodi:cy="26.552273"
           sodipodi:cx="116.16754"
           id="path3830"
           style="opacity:0.6465116;fill:#c8c8c8;fill-opacity:1;fill-rule:nonzero;stroke:#ffffff;stroke-width:3;stroke-linecap:round;stroke-linejoin:round;stroke-miterlimit:4;stroke-dasharray:none;stroke-dashoffset:0;stroke-opacity:1"
           sodipodi:type="arc" />
        <path
           sodipodi:type="arc"
           style="opacity:0.6465116;fill:#c8c8c8;fill-opacity:1;fill-rule:nonzero;stroke:#ffffff;stroke-width:3;stroke-linecap:round;stroke-linejoin:round;stroke-miterlimit:4;stroke-dasharray:none;stroke-dashoffset:0;stroke-opacity:1"
           id="path3832"
           sodipodi:cx="116.16754"
           sodipodi:cy="26.552273"
           sodipodi:rx="43.436558"
           sodipodi:ry="42.931484"
           d="m 159.6041,26.552273 a 43.436558,42.931484 0 0 1 -21.71828,37.179756 43.436558,42.931484 0 0 1 -43.436559,-10e-7 43.436558,42.931484 0 0 1 -21.718277,-37.179757 l 43.436556,2e-6 z"
           sodipodi:start="0"
           sodipodi:end="3.1415927"
           transform="matrix(1,0,0,-1,753.29185,1166.4443)" />
      </g>
      <path
         sodipodi:nodetypes="ccsscccccccscsccccccscscsccccccccccccscccccccccccccccccccccccccccccccccccccccccsscccccccccccccccccscccccccccccccscccccccccccccccscccccccscccccccccccscccccccccscccccccccccccccscccccccccccccccccccccccccccccccccscccccccccccsccccccccccccccccsccccccccccccccccccccccccccccccccccccccccccccccccccscccccccccccccccccccccccsccccccccccccccsccccccscccccccccccccccccccscccccscscccccccccccccccccccsscccccscscccccccccccsccccccccsccccccccccccccscccccccccccccccccccccccccccccccccccccccccccccccccccccsccccccccccccccccccccccccccccccccccccccccccccccccccsccccccccccccccccccccccccccccccccccccccccccccscccccccccccccccccccccsccccccccccccccccccccccccccccccccccccccccccccccccccscccccccccsssss"
         inkscape:connector-curvature="0"
         id="path4368"
         d="m 684.38197,1131.8391 v -26.675 c 10.3115,-3.5362 20.50155,-7.3885 30.53125,-11.5 13.3859,-5.4872 26.50085,-11.4669 39.34375,-17.9375 6.4169,-3.233 12.75875,-6.5928 19.03125,-10.0625 0.7398,-0.4092 1.48105,-0.8062 2.21875,-1.2188 0.8271,-0.4622 1.64415,-0.9397 2.46875,-1.4062 4.6743,-2.6447 9.31675,-5.351 13.90625,-8.125 0.3836,-0.2319 0.77335,-0.4548 1.15625,-0.6875 1.1468,-0.6968 2.2961,-1.4202 3.4375,-2.125 6.077,-3.7534 12.0801,-7.6174 18,-11.5937 1.4872,-0.9991 2.9604,-2.0185 4.4375,-3.0313 1.4729,-1.0099 2.94365,-2.0077 4.40625,-3.0313 1.4681,-1.0273 2.9172,-2.0526 4.375,-3.0937 5.8009,-4.1428 11.52295,-8.3942 17.15625,-12.75 1.1755,-0.909 2.36315,-1.8007 3.53125,-2.7187 0.2327,-0.1829 0.4551,-0.3793 0.6875,-0.5626 13.8533,-10.9236 27.1856,-22.49651 39.9375,-34.65621 0.1174,-0.112 0.22635,-0.2316 0.34375,-0.3438 2.5728,-2.4576 5.13045,-4.9317 7.65625,-7.4374 0.5386,-0.5345 1.0885,-1.05731 1.625,-1.5938 0.7224,-0.7224 1.43785,-1.4612 2.15625,-2.1875 1.2484,-1.2623 2.48235,-2.5385 3.71875,-3.8125 1.1696,-1.2052 2.3412,-2.4094 3.5,-3.625 1.2937,-1.3569 2.5948,-2.7238 3.875,-4.0938 1.2205,-1.3061 2.4169,-2.6197 3.625,-3.9374 3.5761,-3.9012 7.12785,-7.8421 10.59375,-11.8438 1.1895,-1.3732 2.35493,-2.7714 3.53123,-4.1562 1.1555,-1.3605 2.2948,-2.72221 3.4375,-4.0938 0.9974,-1.19731 1.9813,-2.3881 2.9688,-3.5938 0.2541,-0.3099 0.4967,-0.627 0.75,-0.9374 0.7362,-0.9028 1.488,-1.7801 2.2187,-2.6876 1.393,-1.72941 2.7522,-3.4724 4.125,-5.2187 0.018,-0.023 0.045,-0.0395 0.062,-0.0625 1.0824,-1.3774 2.1491,-2.7685 3.2188,-4.1562 0.929,-1.20541 1.8618,-2.41201 2.7812,-3.625 0.5025,-0.6631 1.0004,-1.3349 1.5,-2 0.3038,-0.4048 0.6035,-0.81331 0.9063,-1.2188 1.0466,-1.40151 2.0911,-2.8071 3.125,-4.2188 0.3607,-0.4926 0.7345,-0.9748 1.0937,-1.4687 1.1371,-1.5633 2.2538,-3.1433 3.375,-4.7187 0.039,-0.0541 0.086,-0.102 0.125,-0.1563 0.9815,-1.3802 1.937,-2.7667 2.9063,-4.1563 1.0231,-1.4668 2.0531,-2.9291 3.0625,-4.4062 1.0059,-1.4718 2.008,-2.9556 3,-4.4375 1.9874,-2.9685 3.9433,-5.9606 5.875,-8.9687 0.081,-0.12671 0.1688,-0.2484 0.25,-0.375 0.883,-1.3772 1.7539,-2.7398 2.625,-4.125 0.9222,-1.4667 1.8412,-2.93061 2.75,-4.4063 0.064,-0.1032 0.1239,-0.2092 0.1875,-0.3125 0.532,-0.8651 1.0662,-1.7254 1.5937,-2.5938 0.3708,-0.61 0.7254,-1.232 1.0938,-1.8437 0.794,-1.31821 1.5917,-2.6435 2.375,-3.9687 1.0348,-1.7502 2.0463,-3.51891 3.0625,-5.2813 0.1097,-0.1903 0.2342,-0.37211 0.3437,-0.5625 0.7829,-1.3615 1.5408,-2.725 2.3125,-4.0938 0.8385,-1.4872 1.6748,-2.9731 2.5,-4.4687 0.041,-0.074 0.084,-0.1451 0.125,-0.2187 0.5559,-1.0087 1.1065,-2.01891 1.6563,-3.0313 1.0783,-1.985 2.1638,-3.9694 3.2187,-5.9687 0.92,-1.74391 1.81675,-3.4955 2.71885,-5.25 0.1339,-0.26071 0.2727,-0.5204 0.4063,-0.7813 0.685,-1.3375 1.3567,-2.6875 2.0312,-4.0313 0.8085,-1.6107 1.6129,-3.2241 2.4063,-4.8437 0.6404,-1.3074 1.2756,-2.62441 1.9062,-3.9375 0.1456,-0.3033 0.2924,-0.6027 0.4375,-0.9062 0.7271,-1.5213 1.4426,-3.0336 2.1563,-4.5626 0.9271,-1.9854 1.8456,-3.9706 2.75,-5.9687 0.1882,-0.4159 0.3753,-0.83361 0.5625,-1.25 0.5099,-1.13391 1.0287,-2.2682 1.5312,-3.4063 0.6601,-1.4947 1.2901,-2.9981 1.9375,-4.5 0.5088,-1.1802 1.0304,-2.34671 1.5313,-3.5312 0.2024,-0.4786 0.3925,-0.9583 0.5937,-1.4375 1.3987,-3.3335 2.7581,-6.6966 4.0938,-10.0625 0.3553,-0.8953 0.7117,-1.7899 1.0625,-2.6875 0.5333,-1.3641 1.0708,-2.7245 1.5937,-4.0937 0.095,-0.2497 0.1864,-0.5004 0.2813,-0.75 0.3295,-0.8668 0.6433,-1.725 0.9687,-2.5938 0.5569,-1.4875 1.1117,-2.9753 1.6563,-4.4688 0.077,-0.2107 0.1733,-0.4139 0.25,-0.625 0.2143,-0.5898 0.4126,-1.1904 0.625,-1.7812 0.4019,-1.1179 0.7925,-2.2538 1.1875,-3.375 0.4122,-1.1702 0.8454,-2.3263 1.25,-3.5 0.2516,-0.7298 0.5013,-1.45631 0.75,-2.1875 0.092,-0.27201 0.189,-0.5403 0.2812,-0.8125 0.4279,-1.2645 0.8308,-2.5439 1.25,-3.8125 0.5151,-1.5597 1.0295,-3.1218 1.5313,-4.6875 0.053,-0.1666 0.103,-0.3334 0.1562,-0.5 0.4353,-1.3624 0.8562,-2.7268 1.2813,-4.0938 0.3978,-1.2788 0.7986,-2.5608 1.1875,-3.8437 0.5703,-1.8819 1.1365,-3.766 1.6875,-5.6563 0.361,-1.2381 0.7099,-2.477 1.0625,-3.7187 0.4928,-1.7351 0.9611,-3.4768 1.4375,-5.2187 0.328,-1.1994 0.6798,-2.39121 1,-3.5938 0.055,-0.2074 0.1011,-0.4175 0.1562,-0.625 0.3836,-1.4478 0.7839,-2.8913 1.1563,-4.3438 0.5009,-1.9535 0.9572,-3.9131 1.4375,-5.875 0.2193,-0.8957 0.4411,-1.79011 0.6562,-2.6874 0.3585,-1.4966 0.716,-2.999 1.0625,-4.5 0.3749,-1.624 0.7331,-3.24571 1.0938,-4.875 0.24,-1.0842 0.485,-2.16381 0.7187,-3.25 0.2375,-1.1043 0.4565,-2.20591 0.6875,-3.3126 0.1851,-0.8863 0.3816,-1.7683 0.5625,-2.6562 0.4196,-2.0603 0.8219,-4.119 1.2188,-6.1875 0.048,-0.2486 0.078,-0.5013 0.125,-0.75 0.3264,-1.7132 0.658,-3.4375 0.9687,-5.1563 0.237,-1.3108 0.4596,-2.6236 0.6875,-3.9374 0.038,-0.2189 0.087,-0.4375 0.125,-0.6563 0.1991,-1.1566 0.4018,-2.3097 0.5938,-3.4687 0.2226,-1.3439 0.4431,-2.6843 0.6562,-4.0313 0.4748,-3.00211 0.9169,-6.01341 1.3438,-9.0313 0.087,-0.6134 0.1652,-1.2295 0.25,-1.8437 0.2755,-1.9949 0.5581,-3.9985 0.8125,-6 0.1391,-1.0944 0.2735,-2.1849 0.4062,-3.2813 0.1505,-1.2426 0.2951,-2.4736 0.4375,-3.7187 0.4963,-4.3419 0.9473,-8.691 1.3438,-13.0625 0.02,-0.2178 0.043,-0.4385 0.062,-0.6562 0.012,-0.13571 0.019,-0.27071 0.031,-0.4063 0.1353,-1.52341 0.252,-3.0668 0.375,-4.5937 0.1509,-1.8729 0.3051,-3.7472 0.4375,-5.625 0.1334,-1.89251 0.2604,-3.79 0.375,-5.6876 0.1098,-1.8189 0.2201,-3.6451 0.3125,-5.4687 0.099,-1.9581 0.171,-3.9429 0.25,-5.9063 0.041,-1.01111 0.09,-2.0187 0.125,-3.0312 0.06,-1.7103 0.112,-3.4108 0.1563,-5.125 0,-0.094 0,-0.1874 0,-0.2812 0.025,-0.99031 0.042,-1.97721 0.062,-2.9688 0.038,-1.91331 0.074,-3.832 0.094,-5.75 0.019,-1.9119 0.031,-3.83361 0.031,-5.75 0,-1.9193 -0.012,-3.8352 -0.031,-5.75 -0.019,-1.918 -0.055,-3.8367 -0.094,-5.75 -0.022,-1.083 -0.035,-2.1686 -0.062,-3.25 -0.044,-1.7142 -0.097,-3.41471 -0.1563,-5.125 -0.021,-0.5939 -0.04,-1.188 -0.062,-1.7812 -0.088,-2.3199 -0.1961,-4.6564 -0.3125,-6.9688 0,-0.062 0,-0.1251 0,-0.1875 -0.093,-1.8328 -0.2021,-3.6406 -0.3125,-5.4687 -0.1146,-1.8976 -0.2416,-3.7952 -0.375,-5.6876 -0.1324,-1.8778 -0.2866,-3.7521 -0.4375,-5.625 -0.1344,-1.6685 -0.2572,-3.3355 -0.4062,-5 -0.02,-0.2177 -0.043,-0.4384 -0.062,-0.6562 -0.3965,-4.3715 -0.8475,-8.7206 -1.3438,-13.0625 -0.1424,-1.245 -0.287,-2.4763 -0.4375,-3.7187 -0.1328,-1.0973 -0.267,-2.186 -0.4062,-3.2813 -0.2544,-2.0015 -0.537,-4.0051 -0.8125,-6 -0.046,-0.3322 -0.079,-0.668 -0.125,-1 -0.039,-0.2806 -0.085,-0.5633 -0.125,-0.8437 -0.4269,-3.01791 -0.869,-6.0292 -1.3438,-9.0313 -0.2125,-1.3433 -0.4342,-2.6911 -0.6562,-4.0313 -0.28,-1.6903 -0.5799,-3.3773 -0.875,-5.0624 -0.1679,-0.95901 -0.3272,-1.9179 -0.5,-2.875 -0.3182,-1.7628 -0.6653,-3.52431 -1,-5.2813 -0.047,-0.2487 -0.077,-0.5014 -0.125,-0.75 -0.3969,-2.0685 -0.7992,-4.1272 -1.2188,-6.1875 -0.1809,-0.88781 -0.3774,-1.7699 -0.5625,-2.6562 -0.231,-1.10671 -0.45,-2.2083 -0.6875,-3.3126 -0.2337,-1.0862 -0.4787,-2.1658 -0.7187,-3.25 -0.097,-0.4362 -0.1837,-0.87661 -0.2813,-1.3124 -0.2664,-1.1897 -0.5385,-2.37571 -0.8125,-3.5626 -0.3465,-1.501 -0.704,-3.00341 -1.0625,-4.5 -0.1798,-0.7503 -0.3484,-1.50071 -0.5312,-2.25 -0.036,-0.1466 -0.089,-0.2909 -0.125,-0.4374 -0.29,-1.1847 -0.5774,-2.3809 -0.875,-3.5626 -0.194,-0.7699 -0.3654,-1.5438 -0.5625,-2.3124 -0.3724,-1.4525 -0.7727,-2.896 -1.1563,-4.3438 -0.055,-0.2075 -0.101,-0.4176 -0.1562,-0.625 -0.3202,-1.2025 -0.672,-2.39431 -1,-3.5938 -0.139,-0.5082 -0.2658,-1.0234 -0.4063,-1.5312 -0.3404,-1.23121 -0.6826,-2.4598 -1.0312,-3.6875 -0.3526,-1.2417 -0.7015,-2.4806 -1.0625,-3.7187 -0.551,-1.89021 -1.1172,-3.7745 -1.6875,-5.6563 -0.3889,-1.28291 -0.7897,-2.5648 -1.1875,-3.8437 -0.4762,-1.5312 -0.9485,-3.0683 -1.4375,-4.5938 -0.5018,-1.5656 -1.0162,-3.12791 -1.5313,-4.6875 -0.5094,-1.5421 -1.0088,-3.08891 -1.5312,-4.625 -0.3546,-1.04271 -0.7332,-2.0851 -1.0938,-3.125 -0.2931,-0.8451 -0.5781,-1.688 -0.875,-2.5313 -0.01,-0.0219 -0.024,-0.0415 -0.031,-0.0624 -0.2711,-0.7695 -0.5382,-1.5446 -0.8125,-2.3126 -0.4109,-1.15 -0.8318,-2.2909 -1.25,-3.4374 -0.079,-0.216 -0.1397,-0.4404 -0.2188,-0.6563 -0.4671,-1.276 -0.9614,-2.54091 -1.4375,-3.8125 -0.4175,-1.115 -0.8257,-2.2322 -1.25,-3.3438 -0.5229,-1.3692 -1.0604,-2.7296 -1.5937,-4.0937 -0.1993,-0.5099 -0.393,-1.0221 -0.5938,-1.5313 -0.1521,-0.3858 -0.3157,-0.7708 -0.4687,-1.1562 -1.2382,-3.12 -2.4889,-6.22031 -3.7813,-9.3125 -0.1924,-0.46031 -0.4001,-0.9153 -0.5937,-1.375 -0.109,-0.2589 -0.2031,-0.5224 -0.3125,-0.7813 -0.5046,-1.1932 -1.0187,-2.3735 -1.5313,-3.5624 -0.6458,-1.49791 -1.279,-3.0091 -1.9375,-4.5 -0.5025,-1.138 -1.0213,-2.2723 -1.5312,-3.4063 -0.1872,-0.4164 -0.3743,-0.8341 -0.5625,-1.25 -0.8563,-1.8919 -1.7172,-3.77551 -2.5938,-5.6563 -0.049,-0.1053 -0.107,-0.20711 -0.1562,-0.3124 -0.8548,-1.8309 -1.7199,-3.6488 -2.5938,-5.4688 -0.4023,-0.8377 -0.8124,-1.6646 -1.2187,-2.5 -0.3142,-0.64601 -0.6209,-1.2929 -0.9375,-1.9375 -0.3785,-0.7708 -0.743,-1.54371 -1.125,-2.3125 -0.3368,-0.6779 -0.6917,-1.3549 -1.0313,-2.0312 -0.6744,-1.3437 -1.3463,-2.6939 -2.0312,-4.0313 -0.1336,-0.2609 -0.2723,-0.5206 -0.4063,-0.7813 -0.1383,-0.26871 -0.2676,-0.5439 -0.4062,-0.8124 -0.68465,-1.3262 -1.36785,-2.64891 -2.06265,-3.9688 -0.082,-0.1563 -0.1676,-0.3124 -0.25,-0.4688 -1.0549,-1.9994 -2.1404,-3.9837 -3.2187,-5.9687 -0.5892,-1.0847 -1.1851,-2.1697 -1.7813,-3.25 -0.8252,-1.4955 -1.6615,-2.9817 -2.5,-4.4687 -0.7704,-1.36661 -1.531,-2.73451 -2.3125,-4.0938 -0.1097,-0.1908 -0.2338,-0.3718 -0.3437,-0.5625 -0.5336,-0.9255 -1.0551,-1.8591 -1.5938,-2.7813 -0.3646,-0.6239 -0.7267,-1.2523 -1.0937,-1.875 -0.1232,-0.2091 -0.2514,-0.416 -0.375,-0.625 -1.0148,-1.7166 -2.0299,-3.42001 -3.0625,-5.125 -0.216,-0.35661 -0.4395,-0.70631 -0.6563,-1.0624 -0.9397,-1.5438 -1.8896,-3.09121 -2.8437,-4.625 -0.2792,-0.4487 -0.5635,-0.896 -0.8438,-1.3438 -0.63,-1.0063 -1.2701,-1.998 -1.9062,-3 -0.4401,-0.69311 -0.8695,-1.4026 -1.3125,-2.0938 -0.081,-0.1269 -0.1685,-0.2481 -0.25,-0.375 -1.8816,-2.9299 -3.7844,-5.8263 -5.7188,-8.7187 -0.188,-0.28111 -0.374,-0.563 -0.5625,-0.8437 -0.477,-0.7106 -0.9573,-1.417 -1.4375,-2.125 -0.7692,-1.13441 -1.5352,-2.27791 -2.3125,-3.4063 -0.3096,-0.44941 -0.6266,-0.8954 -0.9375,-1.3437 -0.3186,-0.4597 -0.6488,-0.91651 -0.9687,-1.375 -1.0031,-1.4379 -2.0152,-2.8846 -3.0313,-4.3126 -1.1212,-1.57541 -2.2379,-3.15541 -3.375,-4.7187 -0.3592,-0.49381 -0.733,-0.9761 -1.0937,-1.4687 -1.0339,-1.41181 -2.0784,-2.81731 -3.125,-4.2188 -0.3028,-0.4054 -0.6025,-0.8142 -0.9063,-1.2188 -0.4996,-0.66511 -0.9975,-1.3369 -1.5,-2 -0.6234,-0.8225 -1.2471,-1.64971 -1.875,-2.4687 -0.2976,-0.3882 -0.6075,-0.76881 -0.9062,-1.1563 -1.07,-1.38831 -2.136,-2.7782 -3.2188,-4.1562 -0.018,-0.023 -0.044,-0.0395 -0.062,-0.0625 -0.5095,-0.6482 -1.0189,-1.2916 -1.5312,-1.9375 -0.5949,-0.7499 -1.1827,-1.5032 -1.7813,-2.25 -0.269,-0.3356 -0.5428,-0.66501 -0.8125,-1 -1.4101,-1.7509 -2.8193,-3.4851 -4.25,-5.2188 -0.5619,-0.68081 -1.1225,-1.3531 -1.6875,-2.0312 -1.1436,-1.3727 -2.281,-2.7322 -3.4375,-4.0938 -0.6561,-0.77231 -1.3085,-1.54371 -1.9687,-2.3124 -0.50023,-0.5827 -0.99733,-1.16971 -1.50003,-1.75 -0.0192,-0.022 -0.0433,-0.0395 -0.0625,-0.0626 -1.1459,-1.32271 -2.31075,-2.62561 -3.46875,-3.9374 -1.1801,-1.3372 -2.3699,-2.6744 -3.5625,-4 -1.0163,-1.1299 -2.0371,-2.2537 -3.0625,-3.375 -0.9142,-0.99991 -1.8286,-2.00701 -2.75,-3 -0.2411,-0.26 -0.47715,-0.5219 -0.71875,-0.7813 -1.4328,-1.5385 -2.89395,-3.0715 -4.34375,-4.5937 -0.0659,-0.069 -0.1215,-0.1496 -0.1875,-0.2188 -1.1611,-1.2179 -2.328,-2.4176 -3.5,-3.625 -0.9819,-1.0117 -1.9481,-2.027 -2.9375,-3.0312 -0.259,-0.26301 -0.52175,-0.519 -0.78125,-0.7813 -0.7171,-0.7251 -1.43515,-1.43501 -2.15625,-2.1563 -0.7336,-0.7336 -1.48105,-1.458 -2.21875,-2.1874 -2.3328,-2.3075 -4.6896,-4.6087 -7.0625,-6.875 -0.1172,-0.1119 -0.22655,-0.232 -0.34375,-0.3438 -1.17,-1.1155 -2.35175,-2.2071 -3.53125,-3.3125 -1.1034,-1.034 -2.2008,-2.0686 -3.3125,-3.0937 -0.4061,-0.3747 -0.81145,-0.75171 -1.21875,-1.125 -0.9353,-0.8574 -1.8714,-1.7114 -2.8125,-2.5626 -0.4655,-0.4209 -0.93935,-0.8305 -1.40625,-1.25 -0.8467,-0.7604 -1.67995,-1.5257 -2.53125,-2.2812 -0.1826,-0.162 -0.3797,-0.30691 -0.5625,-0.4688 -1.2906,-1.1421 -2.5738,-2.307 -3.875,-3.4374 -0.0503,-0.044 -0.10595,-0.0811 -0.15625,-0.125 -0.1559,-0.1355 -0.31275,-0.2711 -0.46875,-0.4063 -1.1778,-1.0202 -2.3762,-2.02064 -3.5625,-3.03134 -1.0506,-0.8948 -2.09895,-1.8003 -3.15625,-2.6874 -0.8222,-0.6901 -1.64245,-1.377 -2.46875,-2.0626 -0.3632,-0.3011 -0.72985,-0.6058 -1.09375,-0.9062 -0.4866,-0.4015 -0.98085,-0.7876 -1.46875,-1.1875 -2.361,-1.9353 -4.732,-3.8528 -7.125,-5.75 -0.4009,-0.3178 -0.7857,-0.652 -1.1875,-0.9687 -0.227,-0.1791 -0.4603,-0.3527 -0.6875,-0.5313 -1.4001,-1.1003 -2.80785,-2.194 -4.21875,-3.2813 -0.3648,-0.2811 -0.72825,-0.5634 -1.09375,-0.8437 -0.8192,-0.6281 -1.64605,-1.2514 -2.46875,-1.875 -0.9621,-0.7292 -1.9081,-1.4644 -2.875,-2.1875 -0.4646,-0.3475 -0.94055,-0.6852 -1.40625,-1.0312 -1.3357,-0.9927 -2.68635,-1.9879 -4.03125,-2.9688 -0.091,-0.066 -0.19015,-0.1212 -0.28125,-0.1875 -1.0787,-0.7858 -2.1655,-1.5656 -3.25,-2.3437 -0.4854,-0.3484 -0.9509,-0.7156 -1.4375,-1.0626 -0.9632,-0.6864 -1.93855,-1.3506 -2.90625,-2.0312 -0.4204,-0.2957 -0.8287,-0.6118 -1.25,-0.9062 -1.4065,-0.9835 -2.8339,-1.9354 -4.25,-2.9063 -1.4782,-1.0135 -2.9492,-2.0315 -4.4375,-3.0313 -2.9626,-1.9897 -5.9351,-3.9406 -8.9375,-5.875 -1.5022,-0.9677 -3.01915,-1.9211 -4.53125,-2.875 -1.3085,-0.8254 -2.6217,-1.653796 -3.9375,-2.468696 -0.4173,-0.2584 -0.8319,-0.5238 -1.25,-0.7813 -0.9265,-0.5704 -1.85115,-1.1536 -2.78125,-1.7187 -1.9101,-1.1607 -3.8249,-2.2991 -5.75,-3.4375 -0.0123,-0.01 -0.0189,-0.024 -0.0312,-0.031 -3.0668,-1.8133 -6.17725,-3.5878 -9.28125,-5.3438 -0.8217,-0.4648 -1.64445,-0.9456 -2.46875,-1.4062 -0.737,-0.412 -1.47965,-0.8101 -2.21875,-1.2188 -3.1422,-1.738 -6.28985,-3.4461 -9.46875,-5.125 -2.8461,-1.5032 -5.71885,-2.98215 -8.59375,-4.43745 -0.3248,-0.1644 -0.64365,-0.3362 -0.96875,-0.5 -0.9038,-0.4553 -1.81215,-0.8932 -2.71875,-1.3437 -1.3508,-0.6715 -2.7056,-1.3394 -4.0625,-2 -0.6785,-0.3304 -1.35125,-0.6724 -2.03125,-1 -0.2905,-0.14 -0.5842,-0.2668 -0.875,-0.4063 -0.9938,-0.4768 -2.0029,-0.9351 -3,-1.4063 -0.7334,-0.3463 -1.4524,-0.7191 -2.1875,-1.0624 -0.0296,-0.014 -0.0641,-0.018 -0.0937,-0.031 -1.4961,-0.6985 -2.9966,-1.3768 -4.5,-2.0625 -4.9182,-2.2433 -9.8816,-4.4274 -14.875,-6.5312 -1.6641,-0.7012 -3.3276,-1.4083 -5,-2.0938 -1.6731,-0.6858 -3.34995,-1.3612 -5.03125,-2.0312 -0.6255,-0.2493 -1.2484,-0.503 -1.875,-0.75 -1.0576,-0.4172 -2.1268,-0.808 -3.1875,-1.2188 -1.6822,-0.6514 -3.3725,-1.3019 -5.0625,-1.9375 -1.5149,-0.5697 -3.0414,-1.1618 -4.5625,-1.7187 -1.8796,-0.6883 -3.76715,-1.3628 -5.65625,-2.0313 -1.1824,-0.4185 -2.3765,-0.808 -3.5625,-1.2187 -0.532,-0.1843 -1.06105,-0.3798 -1.59375,-0.5626 V 19.781036 H 320.85132 v 25.664768 c -1.4297,0.4905 -2.85685,0.9985 -4.28125,1.5 -2.0014,0.7048 -4.0091,1.3982 -6,2.125 -0.1576,0.058 -0.31135,0.1298 -0.46875,0.1876 -1.5452,0.5655 -3.0863,1.1398 -4.625,1.7187 -2.7314,1.0276 -5.44535,2.0873 -8.15625,3.1563 -2.1184,0.8351 -4.23805,1.6709 -6.34375,2.5312 -1.8898,0.772 -3.77685,1.5517 -5.65625,2.3438 -2.012,0.8478 -4.0001,1.7231 -6,2.5937 -0.2987,0.1301 -0.60775,0.2444 -0.90625,0.375 -2.0807,0.9102 -4.15125,1.8465 -6.21875,2.7813 -3.8655,1.7474 -7.71305,3.5117 -11.53125,5.3437 -0.2724,0.1307 -0.5404,0.275 -0.8125,0.4063 -4.0807,1.9661 -8.13135,3.9697 -12.15625,6.0312 -0.5031,0.2577 -0.9978,0.5221 -1.5,0.7812 -1.5005,0.77435 -3.0075,1.55635 -4.5,2.34375 -0.0948,0.05 -0.18645,0.1062 -0.28125,0.1562 -0.2389,0.1263 -0.47995,0.2486 -0.71875,0.375 -1.6645,0.8826 -3.31425,1.7889 -4.96875,2.6876 -1.986,1.0785 -3.9661,2.148 -5.9375,3.25 -1.9673,1.0996 -3.9223,2.2211 -5.875,3.3437 -1.9545,1.1238 -3.90405,2.2597 -5.84375,3.4063 -0.0279,0.016 -0.066,0.015 -0.0937,0.031 -1.5464,0.9144 -3.0883,1.8525 -4.625,2.7812 -0.7232,0.4372 -1.43525,0.8722 -2.15625,1.3126 -1.5669,0.9567 -3.1308,1.9345 -4.6875,2.9062 -3.7885,2.364896 -7.55415,4.766396 -11.2812,7.218796 -1.4945,0.983 -2.9845,1.9717 -4.4688,2.9687 -0.4052,0.2722 -0.8143,0.5393 -1.2188,0.8125 -1.8622,1.2579 -3.7164,2.5329 -5.5624,3.8125 -1.8482,1.281 -3.6683,2.5725 -5.5,3.875 -1.8315,1.3022 -3.6539,2.6139 -5.4688,3.9375 -1.827,1.3324 -3.6586,2.6774 -5.4688,4.0312 -3.5778,2.6762 -7.1139,5.3974 -10.625,8.1563 -0.2387,0.1876 -0.4802,0.3745 -0.7187,0.5625 -1.3986,1.1027 -2.7997,2.1968 -4.1875,3.3125 -1.8739,1.5063 -3.7397,3.0327 -5.5938,4.5625 -1.7297,1.4274 -3.444,2.8649 -5.1562,4.3125 -0.5313,0.4492 -1.0642,0.8928 -1.5938,1.3437 -2.8835,2.45664 -5.7296,4.95524 -8.5624,7.46884 -1.8805,1.6686 -3.7673,3.338 -5.625,5.0312 -1.4484,1.3203 -2.878,2.665 -4.3126,4 -1.6425,1.529 -3.2821,3.0454 -4.9062,4.5938 -0.1229,0.11719 -0.2522,0.2265 -0.375,0.3438 -0.911,0.8699 -1.8135,1.74889 -2.7188,2.625 -0.5809,0.56229 -1.1714,1.1227 -1.75,1.68739 -1.0699,1.04471 -2.1258,2.10311 -3.1874,3.15631 -0.5316,0.5272 -1.0331,1.0646 -1.5626,1.59369 -1.3543,1.35431 -2.7219,2.69451 -4.0624,4.06261 -0.2265,0.23089 -0.4616,0.4562 -0.6876,0.68739 -1.5645,1.6024 -3.110696,3.22301 -4.656196,4.84381 -0.0713,0.075 -0.1475,0.144 -0.2188,0.21879 -1.2295,1.2908 -2.4388,2.6036 -3.6562,3.90621 -1.2146,1.29969 -2.4227,2.5951 -3.625,3.90619 -0.498,0.54311 -1.0041,1.08001 -1.5,1.625 -0.1043,0.11481 -0.2083,0.22901 -0.3125,0.34381 -1.3922,1.5327 -2.7809,3.07689 -4.1563,4.625 -0.0634,0.072 -0.124,0.14719 -0.1874,0.21879 -1.5164,1.70851 -3.0046,3.42911 -4.5,5.15621 -1.16502,1.3453 -2.31652,2.6748 -3.46882,4.03119 -1.4511,1.70811 -2.8816,3.43071 -4.3125,5.15631 -0.5142,0.6201 -1.0197,1.25259 -1.5313,1.875 -0.3282,0.3994 -0.6728,0.7872 -1,1.1875 -0.8461,1.0355 -1.6922,2.0834 -2.5312,3.125 -0.279,0.34639 -0.5655,0.68429 -0.8438,1.03119 -2.6744,3.33671 -5.307,6.69531 -7.9062,10.09381 -1.2232,1.5994 -2.4187,3.19959 -3.625,4.8125 -0.4999,0.66839 -1.003,1.32929 -1.5,2 -0.8394,1.13269 -1.6689,2.2669 -2.5,3.40629 -2.324,3.186 -4.6171,6.3885 -6.875,9.625 -0.3167,0.4537 -0.6221,0.92001 -0.9375,1.375 -1.2785,1.8442 -2.5556,3.7023 -3.8125,5.5624 -1.0261,1.51881 -2.051,3.03321 -3.0625,4.5626 -0.2283,0.3451 -0.4599,0.6855 -0.6875,1.03121 -0.1703,0.25859 -0.3302,0.5224 -0.5,0.78119 -0.169,0.25781 -0.3314,0.52331 -0.5,0.78131 -0.8914,1.3638 -1.7766,2.7219 -2.6562,4.09369 -1.8509,2.88641 -3.6699,5.7653 -5.4688,8.6876 -0.569,0.92411 -1.1237,1.85351 -1.6875,2.78121 -1.1634,1.9146 -2.3277,3.85179 -3.4687,5.78119 -0.131,0.22141 -0.2758,0.43491 -0.4063,0.65631 -0.9088,1.5418 -1.7931,3.07379 -2.6875,4.625 -0.1071,0.1858 -0.2056,0.3766 -0.3125,0.5625 -0.7856,1.366 -1.5694,2.72049 -2.3437,4.09379 -0.1995,0.35371 -0.3951,0.7083 -0.5938,1.0624 -0.134,0.2391 -0.2726,0.47971 -0.4062,0.71881 -0.5449,0.9744 -1.086,1.9595 -1.625,2.9375 -0.029,0.053 -0.065,0.103 -0.094,0.15629 -0.8335,1.51311 -1.6489,3.04091 -2.4688,4.5624 -1.1901,2.20901 -2.37,4.42981 -3.5312,6.65631 -0.4989,0.9566 -1.0064,1.91519 -1.4999,2.875 -0.1284,0.24949 -0.2472,0.50029 -0.375,0.75 -1.0337,2.01769 -2.0528,4.0307 -3.0625,6.0625 -0.4651,0.9357 -0.9463,1.8738 -1.4064,2.8125 -0.4179,0.8533 -0.8358,1.7068 -1.25,2.5625 -0.2216,0.4585 -0.4358,0.9159 -0.6561,1.375 -0.5805,1.2081 -1.1469,2.4121 -1.7189,3.625 -1.6094,3.4141 -3.1766,6.86099 -4.7186,10.3125 -0.2572,0.5753 -0.5261,1.1425 -0.7814,1.71869 -0.3277,0.7409 -0.6437,1.47621 -0.9686,2.21881 -0.9128,2.08569 -1.7998,4.18249 -2.6875,6.28119 -0.8318,1.96621 -1.6591,3.92881 -2.4689,5.90631 -0.051,0.1256 -0.1048,0.2493 -0.1561,0.375 -0.021,0.052 -0.01,0.1043 -0.031,0.15629 -1.3666,3.3469 -2.6969,6.71481 -4.0001,10.09371 -0.5747,1.4901 -1.1565,2.9726 -1.7188,4.46869 -0.5519,1.4682 -1.0854,2.93241 -1.625,4.40631 -0.5029,1.37259 -1.0079,2.7474 -1.5,4.125 -0.2799,0.7832 -0.5672,1.559 -0.8438,2.34369 -0.6014,1.70771 -1.1643,3.40981 -1.75,5.125 -0.1533,0.44981 -0.3475,0.89371 -0.5,1.34381 -0.1537,0.4549 -0.2535,0.9196 -0.4062,1.375 -0.5771,1.71959 -1.1578,3.4294 -1.7188,5.15619 -0.6175,1.90241 -1.2144,3.80761 -1.8124,5.71881 -0.088,0.28299 -0.2242,0.5604 -0.3126,0.84379 -0.1164,0.3742 -0.1968,0.7503 -0.3124,1.125 -0.5603,1.81481 -1.145,3.64601 -1.6876,5.46871 -0.6559,2.205 -1.2767,4.4087 -1.9062,6.625 -0.3489,1.22769 -0.6907,2.4563 -1.0312,3.6875 -0.2728,0.9865 -0.5448,1.98 -0.8126,2.96879 -0.211,0.78 -0.417,1.56221 -0.625,2.34371 -0.3851,1.4485 -0.7823,2.89079 -1.1562,4.34369 -0.083,0.32171 -0.1679,0.64701 -0.25,0.96881 -0.4914,1.92379 -0.9973,3.8496 -1.4688,5.78119 -0.1827,0.74931 -0.3201,1.49981 -0.5,2.25 -0.3585,1.49661 -0.7159,2.999 -1.0624,4.5 -0.274,1.18681 -0.5461,2.37281 -0.8126,3.5626 -0.2398,1.07111 -0.5161,2.14531 -0.75,3.21871 -0.1586,0.72879 -0.2814,1.4576 -0.4374,2.1875 -0.328,1.5354 -0.6536,3.08499 -0.9688,4.625 -0.055,0.2691 -0.1014,0.5432 -0.1562,0.8125 -0.4101,2.0191 -0.7992,4.0356 -1.1876,6.0625 -0.307,1.6025 -0.6128,3.20519 -0.9062,4.8125 -0.125,0.68429 -0.2527,1.37729 -0.375,2.0625 -0.2045,1.1441 -0.3963,2.291 -0.5938,3.4375 -0.1986,1.1538 -0.4331,2.3126 -0.625,3.46869 -0.01,0.062 0.01,0.125 0,0.1876 -0.372,2.24961 -0.7171,4.4912 -1.0624,6.75 -0.03,0.19771 -0.095,0.3959 -0.125,0.59371 -0.3219,2.12079 -0.6396,4.2465 -0.9376,6.375 -0.046,0.33199 -0.079,0.6678 -0.125,1 -0.2753,1.9947 -0.5581,3.99859 -0.8124,6 -0.1394,1.0953 -0.2732,2.184 -0.4063,3.28129 -0.1495,1.2354 -0.2959,2.48071 -0.4375,3.71871 v 0.125 c -0.4917,4.3077 -0.9501,8.6007 -1.3438,12.9375 -0.032,0.3523 -0.062,0.71 -0.094,1.0625 -0.1358,1.5292 -0.2514,3.0611 -0.375,4.5937 -0.1509,1.8729 -0.3051,3.7472 -0.4375,5.625 -0.1333,1.8925 -0.2603,3.79 -0.375,5.6876 -0.1104,1.8279 -0.2194,3.636 -0.3125,5.4687 v 0.1875 c -0.1162,2.3122 -0.2242,4.6491 -0.3125,6.9688 -0.023,0.5932 -0.011,1.1873 -0.031,1.7812 -0.06,1.7102 -0.1432,3.4109 -0.1876,5.125 v 0.2812 c -0.025,0.9878 -0.012,1.9799 -0.031,2.9688 -0.039,1.9133 -0.075,3.832 -0.094,5.75 -0.019,1.9146 -0.031,3.8308 -0.031,5.75 0,1.9192 0.012,3.8354 0.031,5.75 0.019,1.918 0.055,3.8367 0.094,5.75 0.02,0.9915 0.01,1.9785 0.031,2.9688 v 0.2812 c 0.044,1.7141 0.1283,3.4148 0.1876,5.125 0.021,0.5959 0.01,1.1858 0.031,1.7812 0.016,0.4183 0.046,0.8321 0.062,1.25 0.079,1.9633 0.1508,3.9484 0.25,5.9063 0.093,1.8236 0.2028,3.6498 0.3125,5.4687 0.1147,1.8976 0.2417,3.7951 0.375,5.6876 0.1324,1.8778 0.2866,3.7521 0.4375,5.625 0.1232,1.5268 0.2399,3.0704 0.375,4.5937 0.032,0.355 0.062,0.7077 0.094,1.0625 0.3937,4.3367 0.8521,8.6299 1.3438,12.9375 v 0.125 c 0.1425,1.2451 0.2871,2.4762 0.4375,3.7187 0.1329,1.0964 0.2669,2.187 0.4063,3.2813 0.2543,2.0014 0.5371,4.0053 0.8124,6 0.046,0.3317 0.079,0.6685 0.125,1 0.04,0.2817 0.085,0.5623 0.125,0.8437 0.01,0.042 0.025,0.0831 0.031,0.125 0.2556,1.8032 0.5084,3.6088 0.7813,5.4063 0.03,0.1989 0.063,0.395 0.094,0.5937 0.3453,2.2587 0.6904,4.5004 1.0625,6.75 0.01,0.062 0.021,0.125 0.031,0.1876 0.1923,1.159 0.3946,2.3121 0.5938,3.4687 0.1969,1.1426 0.3901,2.2973 0.5938,3.4375 0.123,0.6889 0.2493,1.3745 0.375,2.0625 0.2943,1.6131 0.5982,3.2042 0.9062,4.8125 0.04,0.2082 0.085,0.4169 0.125,0.625 0.4026,2.0876 0.793,4.1707 1.2188,6.25 0.3163,1.5464 0.6396,3.0833 0.9687,4.625 0.1558,0.7292 0.3102,1.4594 0.4687,2.1875 0.2346,1.0761 0.4785,2.1451 0.7188,3.2187 0.2671,1.1919 0.538,2.3735 0.8125,3.5626 0.3467,1.501 0.7039,3.0034 1.0625,4.5 0.1792,0.7469 0.3494,1.5041 0.5312,2.25 0.036,0.1467 0.089,0.2907 0.125,0.4374 0.2915,1.1897 0.5763,2.3758 0.875,3.5626 0.1491,0.5907 0.2868,1.1912 0.4376,1.7812 0.082,0.3236 0.1666,0.6452 0.25,0.9688 0.3737,1.4526 0.7711,2.8955 1.1562,4.3437 0.2077,0.7805 0.4141,1.5647 0.625,2.3437 0.2687,0.9919 0.5389,1.9791 0.8125,2.9688 0.3408,1.2321 0.6822,2.4588 1.0313,3.6875 0.6295,2.2163 1.2815,4.42 1.9374,6.625 0.022,0.073 0.041,0.1461 0.063,0.2187 0.6335,2.1265 1.2795,4.2594 1.9374,6.375 0.088,0.283 0.1929,0.561 0.2813,0.8438 0.598,1.9112 1.1949,3.8163 1.8125,5.7188 0.5609,1.7269 1.1417,3.4366 1.7188,5.1562 0.1533,0.4568 0.283,0.9187 0.4374,1.375 0.153,0.4513 0.315,0.8929 0.4688,1.3438 0.5832,1.7076 1.1511,3.4246 1.75,5.125 0,0.012 0.027,0.0192 0.031,0.0312 0.2721,0.7723 0.5372,1.5418 0.8126,2.3125 0.493,1.38 0.9963,2.75 1.5,4.125 0.4625,1.2633 0.9347,2.5222 1.4062,3.7813 0.6383,1.7042 1.2833,3.3974 1.9375,5.0937 0.5022,1.302 0.9884,2.6089 1.5001,3.9063 0.837,2.1221 1.7003,4.2342 2.5625,6.3437 0.6599,1.6148 1.3253,3.2366 2,4.8437 0.6987,1.6654 1.4104,3.343 2.125,5 0.7125,1.6528 1.4283,3.293 2.1561,4.9376 2.6998,6.0965 5.4979,12.1451 8.4064,18.125 0.4503,0.9261 0.9195,1.8578 1.375,2.7812 0.2519,0.5109 0.4964,1.0213 0.75,1.5312 0.3287,0.6616 0.6686,1.3088 1,1.9688 0.042,0.083 0.083,0.1668 0.125,0.25 0.6422,1.2779 1.2855,2.5402 1.9375,3.8125 1.7646,3.445 3.5726,6.8781 5.4061,10.2813 0.8199,1.5216 1.6353,3.0494 2.4688,4.5624 0.029,0.053 0.064,0.1032 0.094,0.1563 0.5407,0.9808 1.0784,1.9603 1.625,2.9375 0.3282,0.5872 0.6696,1.1641 1,1.75 0.2994,0.531 0.6051,1.0638 0.9062,1.5938 0.4798,0.8443 0.9535,1.6896 1.4375,2.5312 0.1066,0.1854 0.2057,0.3772 0.3125,0.5625 0.8906,1.5445 1.7826,3.0898 2.6875,4.625 0.1303,0.2211 0.2756,0.4352 0.4063,0.6563 1.0305,1.7429 2.0761,3.4879 3.125,5.2187 1.2857,2.1214 2.5618,4.2409 3.875,6.3437 0.3201,0.513 0.6469,1.0195 0.9687,1.5313 0.9515,1.5129 1.9095,3.028 2.875,4.5313 0.8025,1.2494 1.6254,2.4761 2.4375,3.7187 0.3381,0.5173 0.6603,1.0464 1,1.5625 2.3899,3.6304 4.8411,7.2416 7.3125,10.8125 0.085,0.1232 0.1646,0.2519 0.25,0.375 1.2799,1.8461 2.5736,3.6701 3.875,5.5 2.8641,4.0266 5.783,8.0222 8.75,11.9687 0.2901,0.386 0.5839,0.7711 0.875,1.1563 3.0445,4.0281 6.1313,8.0267 9.2813,11.9687 0.1843,0.231 0.3777,0.457 0.5624,0.6876 0.9889,1.2336 2.001,2.4625 3,3.6874 0.2722,0.3338 0.5395,0.667 0.8126,1 0.6928,0.8457 1.396,1.6898 2.0937,2.5313 2.0272,2.445 4.0885,4.8715 6.1563,7.2813 1.70472,1.9866 3.39282,3.9752 5.12502,5.9374 2.3563,2.6701 4.75,5.3132 7.1562,7.9376 0.968,1.0556 1.9304,2.108 2.9062,3.1562 0.2367,0.2542 0.4817,0.4962 0.7188,0.75 2.4292,2.5994 4.866,5.1659 7.343796,7.7188 1.2389,1.2764 2.4989,2.5478 3.75,3.8124 1.0225,1.0337 2.0321,2.0681 3.0624,3.0938 0.2306,0.2294 0.4566,0.4585 0.6876,0.6875 1.0591,1.0507 2.12,2.1138 3.1874,3.1563 0.2057,0.2006 0.4192,0.3933 0.625,0.5937 2.0649,2.0097 4.1546,3.9908 6.25,5.9687 0.7904,0.7461 1.5806,1.5087 2.375,2.25 0.1674,0.1562 0.3327,0.3129 0.5,0.4688 1.3259,1.2341 2.6625,2.4349 4,3.6562 0.3147,0.2873 0.6221,0.5885 0.9376,0.875 0.5071,0.461 1.0223,0.9161 1.5312,1.375 1.1564,1.0435 2.3035,2.0914 3.4688,3.125 0.1652,0.1468 0.3343,0.2909 0.5,0.4376 1.5193,1.3447 3.0286,2.6714 4.5624,4 1.1629,1.007 2.3291,2.00221 3.5,2.99991 0.5359,0.4565 1.0562,0.9205 1.5938,1.375 0.819,0.6924 1.6457,1.3747 2.4688,2.0625 1.368,1.1434 2.7457,2.2758 4.125,3.4063 1.2563,1.0298 2.5157,2.0746 3.7812,3.0937 0.1214,0.098 0.2535,0.1835 0.375,0.2813 1.3878,1.1156 2.7889,2.2097 4.1875,3.3125 1.3924,1.0978 2.7845,2.1964 4.1875,3.2812 0.6158,0.476 1.2258,0.9638 1.8438,1.4375 0.7989,0.6123 1.6039,1.2043 2.4062,1.8125 1.4242,1.0797 2.8465,2.1524 4.2812,3.2188 1.3589,1.0098 2.7256,2.0335 4.0938,3.0312 0.0723,0.053 0.1463,0.1036 0.2188,0.1563 1.7441,1.2707 3.4905,2.5302 5.25,3.7813 1.1443,0.8136 2.2868,1.6009 3.4374,2.4062 0.6848,0.4792 1.3755,0.9613 2.0626,1.4375 1.4402,0.9985 2.8935,1.9836 4.3437,2.9687 0.4085,0.2776 0.8095,0.5673 1.2187,0.8438 0.4036,0.2726 0.8146,0.5409 1.2188,0.8125 1.4627,0.9825 2.9339,1.9685 4.4062,2.9375 0.0195,0.013 0.0431,0.018 0.0626,0.031 0.5851,0.385 1.1633,0.7735 1.75,1.1563 1.1844,0.7731 2.37175,1.5481 3.56245,2.3125 0.0947,0.061 0.18655,0.1268 0.28125,0.1875 1.2886,0.826 2.5792,1.6217 3.875,2.4375 0.6048,0.3807 1.2061,0.7778 1.8125,1.1562 1.1435,0.7138 2.2885,1.4193 3.4375,2.125 1.1355,0.6975 2.26545,1.373 3.40625,2.0626 3.0572,1.8479 6.1549,3.6778 9.25,5.4687 0.4402,0.2547 0.8715,0.5276 1.3125,0.7813 1.9546,1.1238 3.9057,2.2117 5.875,3.3124 1.6619,0.929 3.3278,1.8377 5,2.75 0.3158,0.1723 0.6213,0.3596 0.9375,0.5313 0.3115,0.1691 0.6257,0.3314 0.9375,0.5 1.6716,0.9038 3.34945,1.8003 5.03125,2.6875 1.4987,0.7907 2.9933,1.5661 4.5,2.3438 0.5002,0.2581 0.9989,0.5246 1.5,0.7812 1.0973,0.562 2.211,1.1012 3.3125,1.6562 1.6004,0.8064 3.2034,1.6149 4.8125,2.4063 1.6127,0.7932 3.22235,1.5969 4.84375,2.375 1.248,0.5987 2.497,1.1914 3.75,1.7813 0.4379,0.2061 0.874,0.4197 1.3125,0.625 0.0929,0.043 0.18825,0.082 0.28125,0.125 1.472,0.6873 2.9585,1.3563 4.4375,2.0312 1.6421,0.7493 3.287,1.4849 4.9375,2.2188 1.0062,0.4473 2.02195,0.9022 3.03125,1.3437 0.6878,0.3008 1.3733,0.6081 2.0625,0.9063 1.6104,0.6966 3.22555,1.3805 4.84375,2.0624 0.8302,0.3499 1.6678,0.6853 2.5,1.0313 2.8121,1.1691 5.63375,2.3444 8.46875,3.4687 0.3432,0.1361 0.68775,0.2709 1.03125,0.4063 1.0274,0.4051 2.06345,0.7883 3.09375,1.1875 1.6849,0.6528 3.3697,1.3006 5.0625,1.9375 1.5421,0.5802 3.0764,1.1831 4.625,1.75 0.1542,0.056 0.31445,0.1 0.46875,0.1563 1.6605,0.6061 3.3322,1.1903 5,1.7812 0.0435,0.015 0.0815,0.048 0.125,0.062 0.2915,0.1032 0.5833,0.2098 0.875,0.3125 1.4274,0.5027 2.84855,0.9773 4.28125,1.4688 v 26.7062 h 363.53125 z m -181.75,-252.51881 c -167.89181,0 -304,-136.1084 -304,-304 0,-167.8915 136.10819,-304 304,-304 167.89165,0 304,136.1085 304,304 0,167.8916 -136.10835,304 -304,304 z"
         style="fill:#111111;fill-opacity:1;fill-rule:nonzero;stroke:url(#radialGradient4462);stroke-width:10;stroke-linecap:round;stroke-linejoin:round;stroke-miterlimit:4;stroke-dasharray:none" />
      <path
         inkscape:connector-curvature="0"
         id="path3771"
         d="m 502.63159,382.45225 c -106.51502,0 -192.86891,86.3217 -192.86891,192.83657 0,106.51488 86.35389,192.86896 192.86891,192.86896 106.51492,0 192.86901,-86.35408 192.86901,-192.86896 0,-106.51487 -86.35409,-192.83657 -192.86901,-192.83657 z m 0,118.47433 c 41.07283,0 74.36224,33.28944 74.36224,74.36224 0,41.07281 -33.28941,74.39462 -74.36224,74.39462 -41.07293,0 -74.36224,-33.32181 -74.36224,-74.39462 0,-41.0728 33.28931,-74.36224 74.36224,-74.36224 z"
         style="opacity:0.30697674;fill:url(#radialGradient3869);fill-opacity:1;stroke:#f3eedf;stroke-width:2.07281494;stroke-miterlimit:4;stroke-dasharray:none;stroke-opacity:1" />
      <path
         id="path3768"
         d="m 502.64786,27.255955 c -302.67918,0 -548.065239,245.353695 -548.065239,548.032885 0,302.67907 245.386059,548.06526 548.065239,548.06526 302.67908,0 548.03274,-245.38619 548.03274,-548.06526 0,-302.67919 -245.35366,-548.032885 -548.03274,-548.032885 z m 0,362.321585 c 102.56361,0 185.71127,83.14754 185.71127,185.7113 0,102.56371 -83.14766,185.71127 -185.71127,185.71127 -102.56371,0 -185.71127,-83.14756 -185.71127,-185.71127 0,-102.56376 83.14756,-185.7113 185.71127,-185.7113 z"
         style="fill:#b3b3b3;fill-opacity:1;fill-rule:nonzero;stroke:#6a5555;stroke-width:0.91778558"
         inkscape:connector-curvature="0" />
      <g
         transform="matrix(1.0364075,0,0,1.0364075,-20.615837,-20.184831)"
         id="g4066">
        <g
           id="g4059">
          <path
             inkscape:tile-y0="-3871.8992"
             inkscape:tile-x0="-3267.9999"
             inkscape:tile-h="1057.5937"
             inkscape:tile-w="1057.5935"
             inkscape:tile-cy="-3343.1024"
             inkscape:tile-cx="-2739.2032"
             inkscape:connector-curvature="0"
             style="opacity:0.4;fill:url(#linearGradient4199);fill-opacity:1;fill-rule:nonzero;stroke:none"
             d="m 504.8823,45.7743 c -292.0465,0 -528.8125,236.7347 -528.8125,528.7812 0,292.0465 236.766,528.8125 528.8125,528.8125 292.0462,0 528.781,-236.766 528.781,-528.8125 0,-292.0465 -236.7346,-528.7812 -528.781,-528.7812 z m 0,349.5937 c 98.9608,0 179.1875,80.2267 179.1875,179.1875 0,98.9608 -80.2267,179.1875 -179.1875,179.1875 -98.961,0 -179.1875,-80.2267 -179.1875,-179.1875 0,-98.9608 80.2265,-179.1875 179.1875,-179.1875 z"
             id="path13935" />
          <g
             id="g4052">
            <g
               id="g4046">
              <path
                 inkscape:connector-curvature="0"
                 transform="translate(-193.36775,6.8680085)"
                 id="path3775"
                 d="m 698.25,423.40625 c -79.6868,0 -144.28125,64.59445 -144.28125,144.28125 0,79.68683 64.59445,144.28125 144.28125,144.28125 79.68683,0 144.28125,-64.59442 144.28125,-144.28125 0,-79.6868 -64.59442,-144.28125 -144.28125,-144.28125 z m 0,72.53125 c 39.62998,0 71.75,32.12003 71.75,71.75 0,39.62998 -32.12002,71.78125 -71.75,71.78125 -39.62997,0 -71.75,-32.15127 -71.75,-71.78125 0,-39.62997 32.12003,-71.75 71.75,-71.75 z"
                 style="opacity:0.15813952;fill:none;stroke:#e3eace;stroke-width:3;stroke-miterlimit:4;stroke-dasharray:none;stroke-opacity:1" />
              <path
                 id="path5378"
                 d="m 504.8508,1103.368 c 292.0464,0 528.8125,-236.73467 528.8125,-528.78117 0,-292.04653 -236.7661,-528.81253 -528.8125,-528.81253 -292.0462,0 -528.781,236.766 -528.781,528.81253 0,292.0465 236.7347,528.78117 528.781,528.78117 z m 0,-349.59367 c -98.9608,0 -179.1875,-80.22671 -179.1875,-179.1875 0,-98.9608 80.2267,-179.1875 179.1875,-179.1875 98.961,0 179.1875,80.2267 179.1875,179.1875 0,98.96079 -80.2265,179.1875 -179.1875,179.1875 z"
                 style="opacity:0.37000002;fill:url(#linearGradient4201);fill-opacity:1;fill-rule:nonzero;stroke:none"
                 inkscape:connector-curvature="0"
                 inkscape:tile-cx="-2739.2032"
                 inkscape:tile-cy="-3343.1024"
                 inkscape:tile-w="1057.5935"
                 inkscape:tile-h="1057.5937"
                 inkscape:tile-x0="-3267.9999"
                 inkscape:tile-y0="-3871.8992" />
            </g>
          </g>
        </g>
      </g>
      <rect
         inkscape:label="#rect3977"
         ry="7.9456229"
         rx="7.8634424"
         y="7.8111238"
         x="-193.36775"
         height="1135.9388"
         width="1278.8678"
         id="glare"
         style="display:inline;opacity:0.29302326;fill:url(#linearGradient3980);fill-opacity:1;fill-rule:nonzero;stroke:none" />
    </g>
  </g>
</svg>
