<?xml version="1.0" encoding="UTF-8" standalone="no"?>
<svg
   version="1.1"
   x="0px"
   y="0px"
   viewBox="0 0 100 100"
   enable-background="new 0 0 100 100"
   xml:space="preserve"
   id="svg134"
   sodipodi:docname="favicon.svg"
   inkscape:version="1.2 (dc2aeda, 2022-05-15)"
   xmlns:inkscape="http://www.inkscape.org/namespaces/inkscape"
   xmlns:sodipodi="http://sodipodi.sourceforge.net/DTD/sodipodi-0.dtd"
   xmlns="http://www.w3.org/2000/svg"
   xmlns:svg="http://www.w3.org/2000/svg"><defs
     id="defs138" /><sodipodi:namedview
     id="namedview136"
     pagecolor="#ffffff"
     bordercolor="#666666"
     borderopacity="1.0"
     inkscape:showpageshadow="2"
     inkscape:pageopacity="0.0"
     inkscape:pagecheckerboard="0"
     inkscape:deskcolor="#d1d1d1"
     showgrid="false"
     inkscape:zoom="3.5290336"
     inkscape:cx="34.003644"
     inkscape:cy="47.746783"
     inkscape:window-width="1440"
     inkscape:window-height="793"
     inkscape:window-x="0"
     inkscape:window-y="25"
     inkscape:window-maximized="0"
     inkscape:current-layer="svg134" /><path
     fill="#000000"
     d="M 68.725358,17.129467 H 54.065329 C 53.721734,6.9361667 47.193442,0.86599861 36.427483,0.86599861 c -1.259847,0 -2.29063,1.03078319 -2.29063,2.29062949 0,1.2598462 1.030783,2.2906294 2.29063,2.2906294 8.246266,0 12.827525,4.0086016 13.171119,11.6822095 H 31.273566 c -6.29923,0 -11.567678,2.519693 -15.461748,6.528295 -0.114532,0.114531 -0.343594,0.229062 -0.458126,0.343594 -0.114531,0.114531 -0.229062,0.343594 -0.343594,0.458125 -5.0393847,5.497511 -7.6736078,13.285651 -7.6736078,21.073791 0,1.259846 1.0307835,2.29063 2.2906291,2.29063 H 14.43744 v 1.488908 c 0,21.302855 8.818923,43.407429 28.403805,45.354463 0.229063,0.114532 0.343594,0.343595 0.572658,0.572658 1.60344,1.60344 4.123133,3.89407 6.757357,3.89407 2.748755,0 5.039384,-2.519693 6.642826,-4.237665 0.114531,-0.114531 0.343594,-0.343594 0.458125,-0.458125 C 66.320196,93.521959 73.879274,88.13898 78.918659,78.632867 83.270855,70.615665 85.561484,60.1933 85.561484,49.198279 V 47.70937 h 4.810322 c 1.259847,0 2.290629,-1.030784 2.290629,-2.29063 C 92.776966,31.560433 83.728981,17.129467 68.725358,17.129467 Z M 83.385386,43.242643 H 72.733959 l -1.60344,-1.603441 5.497511,-5.497511 7.100951,7.100952 z m -27.143959,0 -2.748755,-2.748755 4.924854,-4.924854 6.070167,6.070168 -1.60344,1.603441 z m -18.554098,0 -1.60344,-1.603441 6.070167,-6.070168 4.924854,4.924854 -2.748755,2.748755 z m -20.615665,0 7.100951,-7.100952 5.497511,5.497511 -1.60344,1.603441 z m 0,-14.201902 3.89407,3.894069 -8.933455,8.933456 c 0.572658,-4.352196 2.176099,-9.047988 5.039385,-12.827525 z m 11.453147,-7.100952 1.717972,1.717973 -6.070168,6.070167 -4.008601,-4.008601 c 2.29063,-1.947035 5.039385,-3.321413 8.360797,-3.779539 z m 16.148938,-0.229063 2.405161,2.405161 -4.924854,4.924854 -5.49751,-5.382979 1.947035,-1.947036 z m 17.408783,0 1.947035,1.947036 -5.49751,5.49751 -4.924854,-4.924854 2.405161,-2.405161 h 6.070168 z m 18.095972,4.352197 c 0,0 -0.114531,0.114531 0,0 l -3.665006,3.665006 -6.070168,-6.070167 1.60344,-1.603441 c 3.206881,0.572657 5.955637,2.061566 8.131734,4.008602 z m -6.871887,6.871887 -5.497511,5.49751 -6.070168,-6.070167 5.49751,-5.497511 z m -17.981442,-0.572657 -4.924853,4.924854 -5.039385,-4.924854 4.924854,-4.924854 z m -16.377999,0 -6.070169,6.070167 -5.497511,-5.49751 6.070169,-6.070168 z m 40.773203,0.572657 3.435943,-3.435944 c 2.405162,3.435944 3.894071,7.444546 4.58126,11.453147 z m 1.374378,16.263469 c 0,26.914895 -12.598462,39.742421 -25.082393,40.658673 -1.145314,0.114531 -1.717971,0.80172 -2.748755,1.832503 -0.572657,0.687189 -2.519693,2.634224 -3.321412,2.748756 -0.916252,0 -2.863287,-1.947035 -3.665007,-2.634224 C 45.246406,90.773204 44.559218,90.086015 43.528434,90.086015 31.159035,89.169763 18.789636,76.113174 18.789636,49.198279 V 47.70937 h 31.152561 31.15256 z"
     id="path132"
     style="stroke-width:1.14531" /></svg>
